<?xml version="1.0" encoding="UTF-8"?>
<svg id="Layer_2" data-name="Layer 2" xmlns="http://www.w3.org/2000/svg" viewBox="0 0 419.78 158.25">
  <defs>
    <style>
      .cls-1 {
        fill: #bfffd6;
        stroke: #3e3e3e;
        stroke-miterlimit: 10;
      }

      .cls-2 {
        fill: #f6f6f6;
      }

      .cls-3 {
        fill: #3e3e3e;
      }

      .cls-4 {
        fill: #cdb4ff;
      }
    </style>
  </defs>
  <g id="Layer_8" data-name="Layer 8">
    <g>
      <path class="cls-3" d="M0,96.11C24.05,71.01,47.05,46.97,47.05,16.65V6.19h31.36v10.46c0,27.6-14.01,53.53-33.87,74.86l15.05-1.67h18.82V56.38l23-23h8.36v119.19h-31.37v-31.36H0v-25.09Z"/>
      <path class="cls-3" d="M310,96.11c24.05-25.09,47.05-49.14,47.05-79.46V6.19h31.36v10.46c0,27.6-14.01,53.53-33.87,74.86l15.05-1.67h18.82V56.38l23-23h8.36v119.19h-31.37v-31.36h-78.41v-25.09Z"/>
      <g>
        <g>
          <circle class="cls-3" cx="211.39" cy="80.88" r="77.38"/>
          <path class="cls-3" d="M268.8,80.89c-10.1,21.94-31.71,36.35-55.63,37.08-25.01,.77-48.32-13.54-59.19-36.37,9.76-22.09,31.12-36.8,54.91-37.8,25.36-1.07,49.15,13.63,59.9,37.08Z"/>
          <circle class="cls-3" cx="211.39" cy="80.88" r="25.67"/>
          <circle class="cls-3" cx="211.39" cy="80.88" r="13.91"/>
        </g>
        <g>
          <circle class="cls-1" cx="208.39" cy="77.88" r="77.38"/>
          <path class="cls-2" d="M265.8,77.89c-10.1,21.94-31.71,36.35-55.63,37.08-25.01,.77-48.32-13.54-59.19-36.37,9.76-22.09,31.12-36.8,54.91-37.8,25.36-1.07,49.15,13.63,59.9,37.08Z"/>
          <circle class="cls-4" cx="208.39" cy="77.88" r="25.67"/>
          <circle class="cls-3" cx="208.39" cy="77.88" r="13.91"/>
        </g>
      </g>
    </g>
  </g>
</svg>