<svg width="472" height="473" viewBox="0 0 472 473" fill="none" xmlns="http://www.w3.org/2000/svg">
<path id="star-abt" d="M275.71 1L291.02 98.98L336.2 10.48L320.14 108.33L390.76 37.97L344.91 126.13L434.05 80.79L362.91 150.63L461.85 134.75L372.37 179.42L471.43 194.56L372.37 209.7L461.85 254.38L362.91 238.5L434.05 308.34L344.91 263L390.76 351.16L320.14 280.8L336.2 378.65L291.02 290.15L275.71 388.12L260.41 290.15L215.23 378.65L231.29 280.8L160.67 351.16L206.52 263L117.37 308.34L188.52 238.5L89.57 254.38L179.06 209.7L80 194.56L179.06 179.42L89.57 134.75L188.52 150.63L117.37 80.79L206.52 126.13L160.67 37.97L231.29 108.33L215.23 10.48L260.41 98.98L275.71 1Z" fill="#3E3E3E"/>
<path id="star-abt-b" d="M268.71 4L284.02 101.98L329.2 13.48L313.14 111.33L383.76 40.97L337.91 129.13L427.05 83.79L355.91 153.63L454.85 137.75L365.37 182.42L464.43 197.56L365.37 212.7L454.85 257.38L355.91 241.5L427.05 311.34L337.91 266L383.76 354.16L313.14 283.8L329.2 381.65L284.02 293.15L268.71 391.12L253.41 293.15L208.23 381.65L224.29 283.8L153.67 354.16L199.52 266L110.37 311.34L181.52 241.5L82.57 257.38L172.06 212.7L73 197.56L172.06 182.42L82.57 137.75L181.52 153.63L110.37 83.79L199.52 129.13L153.67 40.97L224.29 111.33L208.23 13.48L253.41 101.98L268.71 4Z" fill="#F6F6F6" stroke="#3E3E3E" stroke-miterlimit="10"/>
<path d="M294.458 126.371L232.568 143.955C230.528 144.534 229.337 146.671 229.916 148.711L247.5 210.601C248.079 212.641 250.219 213.841 252.258 213.262L314.149 195.679C316.188 195.099 317.377 192.953 316.797 190.913L299.214 129.023C298.634 126.983 296.498 125.792 294.458 126.371ZM266.479 213.151C256.09 216.103 250.048 226.926 253 237.315C255.951 247.704 266.784 253.743 277.173 250.792C287.562 247.84 293.604 237.017 290.65 226.618C287.696 216.22 276.878 210.197 266.479 213.151ZM232.673 196.725C223.516 167.349 192.545 150.471 162.773 158.929C133.001 167.387 114.986 199.004 123.578 229.248C124.059 230.941 124.609 232.583 125.233 234.194L125.244 234.232C132.744 258.288 154.881 273.965 179.001 274.192C183.903 293.716 188.815 313.236 193.717 332.76C194.001 333.906 194.297 335.059 194.581 336.205C195.591 340.232 196.612 344.267 197.621 348.294L231.847 338.571C230.587 334.614 229.335 330.645 228.076 326.689C227.715 325.565 227.361 324.428 227 323.304C220.947 304.232 214.888 285.172 208.835 266.101C230.402 253.206 241.529 227.018 234.339 201.709C233.858 200.016 233.305 198.365 232.684 196.763L232.673 196.725ZM103.289 216.05L46.1888 232.272C43.7743 232.958 42.3653 235.5 43.0513 237.915L48.0907 255.653C48.7767 258.067 51.3089 259.479 53.7234 258.793L110.824 242.57C113.238 241.884 114.659 239.35 113.973 236.935L108.934 219.197C108.248 216.783 105.703 215.364 103.289 216.05ZM84.1245 261.258C71.8406 264.748 64.7132 277.533 68.2031 289.817C71.693 302.101 84.4803 309.238 96.7641 305.748C109.048 302.258 116.185 289.471 112.692 277.177C109.2 264.884 96.4084 257.769 84.1245 261.258Z" fill="#CDB4FF" stroke="#3E3E3E" stroke-width="3" stroke-miterlimit="10"/>
<path d="M366.989 282.139C365.938 278.841 364.972 276.943 362.549 273.026C361.009 270.532 358.885 267.226 355.777 262.215C350.388 253.527 343.149 245.832 339.202 236.402C339.055 236.07 338.858 235.595 338.604 235.065L338.574 234.741C338.511 234.155 338.398 233.574 338.232 232.987L307.118 123.471C305.513 117.825 299.575 114.522 293.928 116.126L29.5604 191.235C23.9139 192.839 20.5988 198.771 22.203 204.417L53.3171 313.933C53.481 314.51 53.7 315.061 53.9547 315.592L54.093 315.896C54.1553 316.481 54.237 316.988 54.2872 317.348C55.8972 327.442 53.776 337.796 53.7595 348.02C53.7507 353.917 53.6816 357.845 53.6828 360.776C53.6814 365.382 53.8582 367.505 54.698 370.863C55.9571 375.807 57.7628 379.858 59.3696 382.842C59.3985 383.749 59.5468 384.673 59.8092 385.597C67.5083 407.756 75.1881 429.921 82.8775 452.084C82.9951 452.424 84.3529 456.654 87.6281 459.986C89.0723 461.447 90.3459 462.198 91.686 462.524C93.1045 462.869 94.3025 462.695 95.0267 462.5L380.874 381.289C381.583 381.077 382.694 380.595 383.719 379.556C384.687 378.574 385.376 377.266 385.846 375.261C386.871 370.708 385.802 366.396 385.722 366.044C380.611 343.149 375.5 320.254 370.388 297.36C370.128 296.446 369.771 295.591 369.319 294.805C369.114 291.412 368.52 287.017 366.989 282.139ZM229.916 148.711C229.337 146.671 230.528 144.534 232.568 143.955L294.458 126.371C296.498 125.792 298.634 126.983 299.214 129.023L316.797 190.913C317.377 192.953 316.188 195.099 314.149 195.679L252.258 213.262C250.219 213.842 248.079 212.641 247.5 210.601L229.916 148.711ZM266.479 213.151C276.878 210.197 287.698 216.23 290.65 226.619C293.601 237.007 287.571 247.838 277.173 250.792C266.775 253.746 255.954 247.714 253 237.315C250.045 226.917 256.09 216.103 266.479 213.151ZM162.773 158.929C192.545 150.471 223.516 167.349 232.673 196.725L232.684 196.763C233.305 198.365 233.858 200.017 234.339 201.71C241.529 227.018 230.402 253.206 208.835 266.101C214.888 285.173 220.947 304.232 227 323.304C227.361 324.428 227.715 325.565 228.076 326.689C229.335 330.645 230.587 334.614 231.847 338.571L197.621 348.294C196.612 344.267 195.59 340.232 194.581 336.205C194.297 335.059 194.001 333.906 193.717 332.76C188.815 313.236 183.903 293.716 179.001 274.192C154.881 273.965 132.744 258.288 125.244 234.232L125.233 234.194C124.609 232.583 124.059 230.941 123.578 229.248C114.986 199.004 132.53 167.521 162.773 158.929ZM68.203 289.817C64.7131 277.533 71.8405 264.748 84.1244 261.258C96.4083 257.769 109.202 264.893 112.692 277.177C116.182 289.461 109.048 302.258 96.7641 305.748C84.4802 309.238 71.6957 302.11 68.203 289.817ZM43.0512 237.915C42.3653 235.5 43.7742 232.958 46.1887 232.272L103.289 216.05C105.703 215.364 108.248 216.783 108.934 219.197L113.973 236.935C114.659 239.35 113.238 241.885 110.824 242.57L53.7233 258.793C51.3088 259.479 48.7766 258.067 48.0907 255.653L43.0512 237.915ZM235.764 414.199C235.575 414.118 235.41 414.05 235.23 413.966C235.121 414.132 235.017 414.276 234.908 414.442L103.999 451.634C103.866 450.435 103.736 449.245 103.603 448.046C102.088 434.297 100.566 420.56 99.0505 406.81C98.7536 404.119 98.4568 401.428 98.16 398.736L102.864 397.4L102.856 397.371L335.826 331.183L335.834 331.212L343.818 328.943C344.981 331.389 346.143 333.834 347.306 336.28C353.764 349.862 360.216 363.425 366.664 377.01L235.764 414.199Z" fill="#CDB4FF" stroke="#3E3E3E" stroke-width="3" stroke-miterlimit="10"/>
<path d="M339.202 236.402C339.055 236.07 338.858 235.595 338.604 235.065L338.574 234.741C338.819 235.274 339.038 235.825 339.202 236.402Z" fill="#CDB4FF" stroke="#3E3E3E" stroke-width="3" stroke-miterlimit="10"/>
<path d="M54.093 315.896C54.1553 316.481 54.2369 316.988 54.2872 317.348C54.1205 316.761 54.0143 316.168 53.9547 315.592L54.093 315.896Z" fill="#CDB4FF" stroke="#3E3E3E" stroke-width="3" stroke-miterlimit="10"/>
<path d="M299.214 129.023L316.797 190.913C317.377 192.953 316.188 195.099 314.149 195.679L252.258 213.262C250.219 213.841 248.079 212.641 247.5 210.601L229.916 148.71C229.337 146.671 230.528 144.534 232.567 143.955L294.458 126.371C296.497 125.792 298.634 126.983 299.214 129.023Z" fill="#CDB4FF" stroke="#3E3E3E" stroke-width="3" stroke-miterlimit="10"/>
<path d="M291.706 131.322L237.511 146.719C235.466 147.3 234.279 149.429 234.86 151.475L250.257 205.67C250.838 207.715 252.967 208.902 255.013 208.321L309.208 192.924C311.253 192.343 312.44 190.214 311.859 188.168L296.462 133.973C295.881 131.928 293.752 130.741 291.706 131.322Z" fill="#CDB4FF" stroke="#3E3E3E" stroke-width="3" stroke-miterlimit="10"/>
<path d="M108.934 219.197L113.973 236.935C114.659 239.35 113.238 241.884 110.824 242.57L53.7233 258.793C51.3088 259.479 48.7766 258.067 48.0906 255.653L43.0512 237.915C42.3652 235.5 43.7742 232.958 46.1887 232.272L103.289 216.05C105.703 215.364 108.248 216.783 108.934 219.197Z" fill="#CDB4FF" stroke="#3E3E3E" stroke-width="3" stroke-miterlimit="10"/>
<path d="M197.621 348.294C196.612 344.267 195.59 340.232 194.581 336.205L228.076 326.689C229.335 330.645 230.587 334.614 231.847 338.571L197.621 348.294Z" fill="#CDB4FF" stroke="#3E3E3E" stroke-width="3" stroke-miterlimit="10"/>
<path d="M366.664 377.01L235.764 414.199C235.575 414.118 235.41 414.05 235.23 413.966C235.122 414.132 235.017 414.276 234.908 414.442L103.999 451.634C103.866 450.435 103.736 449.245 103.603 448.046C102.088 434.297 100.566 420.56 99.0506 406.81C98.7537 404.119 98.4569 401.428 98.1601 398.736L102.864 397.4L102.856 397.371L335.826 331.183L335.834 331.212L343.818 328.944C344.981 331.389 346.143 333.834 347.306 336.28C353.764 349.862 360.216 363.425 366.664 377.01Z" fill="#CDB4FF" stroke="#3E3E3E" stroke-width="3" stroke-miterlimit="10"/>
<path d="M290.65 226.619C293.604 237.017 287.571 247.838 277.173 250.792C266.774 253.746 255.954 247.714 253 237.315C250.045 226.917 256.09 216.103 266.479 213.151C276.868 210.2 287.698 216.23 290.65 226.619Z" fill="#CDB4FF" stroke="#3E3E3E" stroke-width="3" stroke-miterlimit="10"/>
<path d="M276.456 248.23C285.434 245.68 290.645 236.333 288.094 227.355C285.543 218.377 276.197 213.166 267.219 215.717C258.24 218.268 253.03 227.614 255.581 236.592C258.131 245.571 267.477 250.781 276.456 248.23Z" fill="#CDB4FF" stroke="#3E3E3E" stroke-width="3" stroke-miterlimit="10"/>
<path d="M95.3171 300.618C104.768 297.933 110.253 288.095 107.568 278.643C104.883 269.192 95.0446 263.707 85.5935 266.392C76.1424 269.078 70.6574 278.916 73.3425 288.367C76.0277 297.818 85.866 303.303 95.3171 300.618Z" fill="#CDB4FF" stroke="#3E3E3E" stroke-width="3" stroke-miterlimit="10"/>
<path d="M233.104 198.131C240.283 223.401 229.196 249.546 207.698 262.463C203.481 265.002 198.86 267.032 193.896 268.442C193.752 268.483 193.618 268.522 193.47 268.553C188.345 269.978 183.18 270.645 178.111 270.619C155.072 270.542 133.786 256.36 125.253 234.229L125.242 234.191C124.618 232.58 124.069 230.938 123.588 229.245C114.995 199.002 132.539 167.519 162.782 158.926C193.026 150.334 223.526 167.346 232.683 196.722L232.694 196.761C232.825 197.222 232.972 197.669 233.104 198.131Z" fill="#CDB4FF" stroke="#3E3E3E" stroke-width="3" stroke-miterlimit="10"/>
<path d="M112.692 277.177C116.185 289.471 109.048 302.258 96.764 305.748C84.4802 309.238 71.6956 302.11 68.203 289.817C64.7103 277.523 71.8405 264.748 84.1244 261.258C96.4083 257.769 109.202 264.893 112.692 277.177Z" fill="#CDB4FF" stroke="#3E3E3E" stroke-width="3" stroke-miterlimit="10"/>
<path d="M206.124 391.651L205.489 391.831C205.591 391.751 205.661 391.668 205.763 391.587C205.892 391.603 205.995 391.636 206.124 391.651Z" fill="#CDB4FF" stroke="#3E3E3E" stroke-width="3" stroke-miterlimit="10"/>
<path d="M346.967 351.626L250.61 379.002L250.544 378.989C250.437 378.978 250.349 378.962 250.249 378.938C250.167 379.014 250.101 379.074 250.025 379.137L249.975 379.182L206.111 391.644L206.046 391.632C205.948 391.618 205.86 391.601 205.76 391.578C205.677 391.653 205.611 391.714 205.536 391.777L205.486 391.822L109.12 419.2L109.112 419.171C108.307 414.327 107.493 409.485 106.688 404.64C106.247 401.99 105.796 399.342 105.355 396.692L338.335 330.501C339.353 332.988 340.362 335.477 341.38 337.963C343.246 342.517 345.111 347.07 346.967 351.626Z" fill="#CDB4FF" stroke="#3E3E3E" stroke-width="3" stroke-miterlimit="10"/>
<path d="M250.613 379.011L249.978 379.192C250.08 379.111 250.15 379.029 250.252 378.948C250.381 378.963 250.484 378.996 250.613 379.011Z" fill="#CDB4FF" stroke="#3E3E3E" stroke-width="3" stroke-miterlimit="10"/>
<path d="M249.931 192.3L253.609 205.248L265.585 201.845" fill="#CDB4FF"/>
<path d="M250.075 192.259C253.141 195.734 254.979 200.118 256.197 204.513L252.874 202.66C256.999 201.592 261.284 200.978 265.544 201.701L265.626 201.99C261.574 203.276 257.474 204.399 253.403 205.618L253.321 205.33L251.52 198.845C250.908 196.69 250.331 194.515 249.777 192.344L250.065 192.262L250.075 192.259Z" fill="#3E3E3E"/>
<path d="M249.948 161.441C247.07 172.352 251.884 183.917 261.637 189.557C271.429 195.226 283.927 193.588 291.942 185.573" fill="#CDB4FF"/>
<path d="M250.095 161.482C246.498 178.461 260.127 193.354 277.304 191.208C282.435 190.717 287.419 188.719 291.839 185.467L292.054 185.676C288.749 190.181 283.411 193.236 277.699 194.172C266.249 196.095 254.348 188.456 250.381 177.785C248.386 172.519 248.165 166.656 249.81 161.397L250.102 161.47L250.095 161.482Z" fill="#3E3E3E"/>
<path d="M366.664 377.01L235.764 414.199C235.575 414.118 235.41 414.05 235.23 413.966C235.121 414.132 235.017 414.276 234.908 414.442L103.999 451.634C103.866 450.435 103.736 449.245 103.603 448.046C102.088 434.296 100.566 420.56 99.0504 406.81C98.7536 404.119 98.4568 401.428 98.16 398.736L343.818 328.943C344.981 331.389 346.143 333.834 347.306 336.28C353.763 349.862 360.216 363.425 366.664 377.01Z" fill="#CDB4FF" stroke="#3E3E3E" stroke-width="3" stroke-miterlimit="10"/>
<path d="M364.844 373.826L103.035 448.207" stroke="#3E3E3E" stroke-width="3" stroke-miterlimit="10"/>
<path d="M190.911 259.581L214.734 343.432L197.621 348.294C196.612 344.267 195.59 340.232 194.581 336.205C194.297 335.059 194.001 333.906 193.717 332.76C188.815 313.236 183.903 293.716 179.001 274.192C178.703 272.998 178.399 271.816 178.101 270.622C177.994 270.174 177.876 269.719 177.759 269.274C177.295 267.42 176.831 265.567 176.367 263.713L190.911 259.581Z" fill="#CDB4FF" stroke="#3E3E3E" stroke-width="3" stroke-miterlimit="10"/>
<path d="M231.856 338.568L214.743 343.43L190.921 259.578L205.465 255.446C206.083 257.402 206.708 259.345 207.326 261.3C207.447 261.692 207.566 262.074 207.698 262.463C208.074 263.676 208.459 264.887 208.845 266.098C214.897 285.17 220.957 304.229 227.009 323.301C227.37 324.425 227.724 325.562 228.085 326.686C229.345 330.643 230.597 334.611 231.856 338.568Z" fill="#CDB4FF" stroke="#3E3E3E" stroke-width="3" stroke-miterlimit="10"/>
<path d="M344.477 352.303L248.111 379.681C247.991 379.663 247.879 379.632 247.75 379.617C247.657 379.695 247.578 379.78 247.476 379.861L203.621 392.321C203.502 392.302 203.389 392.272 203.26 392.257C203.168 392.335 203.088 392.42 202.987 392.501L106.63 419.876C105.816 415.035 105.011 410.19 104.197 405.348C103.756 402.698 103.315 400.047 102.874 397.397L102.865 397.368L335.836 331.18L335.844 331.209C336.862 333.695 337.88 336.182 338.899 338.668C340.761 343.212 342.614 347.759 344.477 352.303Z" fill="#CDB4FF" stroke="#3E3E3E" stroke-width="3" stroke-miterlimit="10"/>
<path d="M98.6946 406.911L347.671 336.176" stroke="#3E3E3E" stroke-width="3" stroke-miterlimit="10"/>
<path d="M234.339 201.71C241.529 227.018 230.402 253.206 208.835 266.101C204.642 268.612 200.057 270.622 195.132 272.021C194.92 272.081 194.708 272.141 194.494 272.192C189.324 273.609 184.12 274.245 179.001 274.192C154.881 273.965 132.744 258.288 125.244 234.232L125.233 234.194C125.092 233.735 124.954 233.285 124.823 232.824C116.231 202.58 133.784 171.095 164.018 162.505C192.558 154.397 222.204 169.572 232.673 196.725L232.684 196.763C233.305 198.365 233.858 200.017 234.339 201.71Z" fill="#CDB4FF" stroke="#3E3E3E" stroke-width="3" stroke-miterlimit="10"/>
<path d="M193.805 267.315C221.446 259.461 237.488 230.687 229.635 203.046C221.782 175.404 193.008 159.363 165.366 167.216C137.725 175.069 121.683 203.843 129.536 231.484C137.389 259.126 166.163 275.168 193.805 267.315Z" fill="#CDB4FF" stroke="#3E3E3E" stroke-width="3" stroke-miterlimit="10"/>
<path d="M179.371 215.704C181.262 215.167 182.36 213.198 181.822 211.307C181.285 209.416 179.316 208.318 177.425 208.855C175.534 209.393 174.436 211.362 174.973 213.253C175.511 215.144 177.479 216.242 179.371 215.704Z" fill="#CDB4FF" stroke="#3E3E3E" stroke-width="3" stroke-miterlimit="10"/>
<path d="M161.92 203.094C157.5 211.907 159.985 222.335 167.013 227.532C175.313 233.657 188.489 231.442 194.876 221.466" fill="#CDB4FF"/>
<path d="M161.92 203.094C161.375 205.567 161.153 207.969 161.343 210.285C160.523 216.984 163.658 224.285 169.75 227.472C173.694 229.605 178.561 229.979 182.919 228.668C185.107 228.026 187.16 226.985 188.975 225.617C191.072 224.616 193.026 223.188 194.873 221.457C191.547 231.997 177.425 235.053 168.328 230.111C161.134 226.343 157.449 217.837 158.336 209.944C159.062 207.378 160.258 205 161.917 203.084L161.92 203.094Z" fill="#3E3E3E"/>
<path d="M154.471 199.669C147.412 212.33 152.02 228.548 164.681 235.607C177.342 242.665 193.56 238.058 200.618 225.397" fill="#CDB4FF"/>
<path d="M154.471 199.669C153.346 202.993 152.761 206.35 152.835 209.646C151.595 219.406 156.775 229.588 165.411 234.297C173.969 239.174 185.324 238.194 192.995 232.043C195.842 230.392 198.397 228.117 200.609 225.399C198.031 232.754 192.644 237.247 185.149 239.335C170.695 243.712 154.602 234.748 150.735 220.149C148.591 212.712 149.518 205.692 154.461 199.672L154.471 199.669Z" fill="#3E3E3E"/>
<path d="M161.307 204.193C156.887 213.006 159.372 223.434 166.4 228.631C174.7 234.756 187.876 232.541 194.263 222.566" fill="#CDB4FF"/>
<path d="M161.307 204.193C160.762 206.666 160.54 209.068 160.73 211.384C159.91 218.083 163.045 225.385 169.137 228.571C173.081 230.704 177.948 231.078 182.306 229.768C184.494 229.125 186.547 228.084 188.362 226.716C190.459 225.715 192.413 224.287 194.26 222.556C190.934 233.096 176.811 236.152 167.715 231.21C160.521 227.443 156.836 218.936 157.723 211.043C158.449 208.477 159.645 206.1 161.304 204.183L161.307 204.193Z" fill="#3E3E3E"/>
<path d="M153.858 200.768C146.799 213.429 151.407 229.648 164.068 236.706C176.729 243.765 192.947 239.157 200.006 226.496" fill="#CDB4FF"/>
<path d="M153.858 200.768C152.733 204.092 152.149 207.45 152.222 210.745C150.982 220.506 156.162 230.688 164.798 235.397C173.356 240.273 184.711 239.293 192.382 233.143C195.229 231.492 197.785 229.217 199.996 226.499C197.418 233.853 192.031 238.347 184.536 240.434C170.082 244.811 153.99 235.848 150.123 221.249C147.979 213.812 148.905 206.791 153.848 200.771L153.858 200.768Z" fill="#3E3E3E"/>
<path d="M180.271 183.087C181.619 181.207 205.664 193.795 204.075 198.519C203.228 201.026 195.819 199.357 187.818 203.137C187.304 203.377 185.734 204.145 183.537 204.354C182.638 204.443 177.971 204.885 176.572 202.632C175.058 200.193 179.006 197.221 177.567 193.107C176.792 190.895 175.052 190.038 175.494 189.07C176.168 187.6 180.512 189.058 181.487 187.367C182.315 185.926 179.804 183.749 180.271 183.087Z" fill="#CDB4FF" stroke="#3E3E3E" stroke-width="3" stroke-miterlimit="10"/>
<path d="M176.133 337.756L259.128 314.176" stroke="#3E3E3E" stroke-width="3" stroke-miterlimit="10"/>
<path d="M177.712 183.814C179.06 181.934 203.105 194.522 201.516 199.246C200.669 201.753 193.261 200.084 185.259 203.864C184.745 204.104 183.175 204.872 180.979 205.081C180.079 205.17 175.412 205.612 174.013 203.359C172.499 200.92 176.447 197.948 175.008 193.834C174.234 191.622 172.493 190.765 172.936 189.797C173.609 188.327 177.953 189.785 178.928 188.094C179.756 186.653 177.246 184.476 177.712 183.814Z" fill="#CDB4FF" stroke="#3E3E3E" stroke-width="3" stroke-miterlimit="10"/>
<path d="M102.448 218.139L48.0219 233.602C47.4587 233.762 47.1319 234.348 47.2919 234.911L47.6854 236.297C47.8454 236.86 48.4316 237.187 48.9948 237.027L103.421 221.564C103.984 221.404 104.311 220.818 104.151 220.255L103.757 218.869C103.597 218.306 103.011 217.979 102.448 218.139Z" fill="#CDB4FF" stroke="#3E3E3E" stroke-width="3" stroke-miterlimit="10"/>
<path d="M86.1938 271.763C87.2738 271.539 92.745 270.525 97.917 273.984C101.82 276.596 103.329 280.263 103.808 281.583" fill="#CDB4FF"/>
<path d="M86.1624 271.616C93.068 265.807 105.324 272.576 103.95 281.532L103.667 281.633C101.125 274.663 93.4703 270.517 86.2252 271.91L86.1624 271.616Z" fill="#3E3E3E"/>
<path d="M50.2774 322.188C50.0227 321.657 49.8134 321.104 49.6494 320.526L18.5354 211.01C16.9311 205.364 20.2366 199.435 25.8832 197.831L290.26 122.72C295.907 121.115 301.836 124.421 303.44 130.067L334.554 239.583C334.751 240.276 334.875 240.968 334.936 241.658C335.193 242.198 335.388 242.663 335.527 243.008C339.475 252.438 346.71 260.123 352.1 268.811C355.208 273.822 357.335 277.137 358.875 279.631C361.298 283.548 362.263 285.447 363.315 288.745C365.246 294.849 365.677 300.206 365.734 303.776L366.464 306.344L57.6071 394.092L56.8774 391.524C55.0496 388.457 52.5966 383.664 51.033 377.466C50.1933 374.107 50.0165 371.985 50.0179 367.379C50.0167 364.448 50.0858 360.52 50.0918 354.613C50.1084 344.389 52.2323 334.045 50.6223 323.951C50.5624 323.594 50.4904 323.084 50.4157 322.492" fill="#F6F6F6"/>
<path d="M50.2774 322.188C50.0227 321.657 49.8134 321.104 49.6494 320.526L18.5354 211.01C16.9311 205.364 20.2366 199.435 25.8832 197.831L290.26 122.72C295.907 121.115 301.836 124.421 303.44 130.067L334.554 239.583C334.751 240.276 334.875 240.968 334.936 241.658C335.193 242.198 335.388 242.663 335.527 243.008C339.475 252.438 346.71 260.123 352.1 268.811C355.208 273.822 357.335 277.137 358.875 279.631C361.298 283.548 362.263 285.447 363.315 288.745C365.246 294.849 365.677 300.206 365.734 303.776L366.464 306.344L57.6071 394.092L56.8774 391.524C55.0496 388.457 52.5966 383.664 51.033 377.466C50.1933 374.107 50.0165 371.985 50.0179 367.379C50.0167 364.448 50.0858 360.52 50.0918 354.613C50.1084 344.389 52.2323 334.045 50.6223 323.951C50.5624 323.594 50.4904 323.084 50.4157 322.492" stroke="#3E3E3E" stroke-width="2" stroke-miterlimit="10"/>
<path d="M50.4227 322.479C50.3734 322.379 50.3268 322.288 50.2844 322.176" stroke="#3E3E3E" stroke-width="2" stroke-miterlimit="10"/>
<path d="M334.933 241.649C335.191 242.189 335.385 242.653 335.524 242.998C335.361 242.421 335.151 241.867 334.896 241.337" stroke="#3E3E3E" stroke-width="2" stroke-miterlimit="10"/>
<path d="M50.4227 322.479C50.4877 323.074 50.5667 323.572 50.6293 323.939C50.4626 323.352 50.3468 322.761 50.2844 322.176" stroke="#3E3E3E" stroke-width="2" stroke-miterlimit="10"/>
<path d="M290.781 132.968L228.89 150.551C226.845 151.132 225.658 153.261 226.239 155.307L243.822 217.197C244.403 219.243 246.533 220.43 248.578 219.849L310.469 202.265C312.514 201.684 313.701 199.555 313.12 197.509L295.537 135.619C294.955 133.573 292.826 132.386 290.781 132.968Z" stroke="#3E3E3E" stroke-miterlimit="10"/>
<path d="M288.036 137.906L233.841 153.303C231.795 153.884 230.608 156.013 231.189 158.058L246.587 212.254C247.168 214.299 249.297 215.486 251.342 214.905L305.537 199.508C307.583 198.927 308.77 196.798 308.189 194.752L292.791 140.557C292.21 138.512 290.081 137.325 288.036 137.906Z" fill="#3E3E3E" stroke="#3E3E3E" stroke-miterlimit="10"/>
<path d="M99.6308 222.641L42.5209 238.866C40.0984 239.554 38.6925 242.076 39.3807 244.498L44.4229 262.246C45.1112 264.669 47.633 266.075 50.0555 265.386L107.165 249.161C109.588 248.473 110.994 245.951 110.306 243.528L105.263 225.781C104.575 223.358 102.053 221.952 99.6308 222.641Z" fill="#3E3E3E" stroke="#3E3E3E" stroke-miterlimit="10"/>
<path d="M366.72 303.953C371.832 326.848 376.946 349.752 382.058 372.647C382.137 372.999 383.206 377.311 382.178 381.854C381.711 383.869 381.02 385.167 380.054 386.159C379.039 387.196 377.925 387.668 377.209 387.892L91.3522 469.106C90.6253 469.291 89.4299 469.475 88.0211 469.127C86.681 468.801 85.4074 468.05 83.9508 466.582C80.6879 463.257 79.3275 459.018 79.2126 458.687C71.5232 436.524 63.831 414.353 56.1416 392.19C54.5374 386.544 57.4004 380.74 62.4986 379.292L354.531 296.324C359.63 294.876 365.116 298.307 366.72 303.953Z" fill="#3E3E3E" stroke="#3E3E3E" stroke-miterlimit="10"/>
<path d="M59.9934 376.292L355.085 292.455C358.885 291.376 362.85 293.586 363.929 297.386L366.591 306.755L57.7246 394.506L55.0627 385.137C53.9832 381.337 56.1937 377.372 59.9934 376.292Z" fill="#D8D8D8" stroke="#3E3E3E" stroke-width="2" stroke-miterlimit="10"/>
<path d="M273.505 257.385C283.902 254.431 289.936 243.609 286.982 233.212C284.028 222.815 273.206 216.781 262.809 219.735C252.412 222.689 246.378 233.512 249.332 243.908C252.286 254.305 263.109 260.339 273.505 257.385Z" fill="#BFFFD6" stroke="#3E3E3E" stroke-miterlimit="10"/>
<path d="M272.776 254.817C281.754 252.266 286.964 242.92 284.414 233.942C281.863 224.963 272.517 219.753 263.538 222.304C254.56 224.854 249.35 234.2 251.9 243.179C254.451 252.157 263.797 257.368 272.776 254.817Z" fill="#3E3E3E" stroke="#3E3E3E" stroke-miterlimit="10"/>
<path d="M91.637 307.205C101.088 304.519 106.573 294.681 103.888 285.23C101.203 275.779 91.3644 270.294 81.9133 272.979C72.4622 275.664 66.9772 285.502 69.6624 294.954C72.3475 304.405 82.1858 309.89 91.637 307.205Z" fill="#CDB4FF" stroke="#3E3E3E" stroke-miterlimit="10"/>
<path d="M190.219 275.038C220.459 266.447 238.008 234.969 229.417 204.73C220.826 174.49 189.347 156.941 159.108 165.532C128.869 174.123 111.319 205.602 119.91 235.841C128.502 266.08 159.98 283.63 190.219 275.038Z" fill="#CDB4FF" stroke="#3E3E3E" stroke-miterlimit="10"/>
<path d="M93.0965 312.341C105.385 308.85 112.516 296.058 109.025 283.77C105.534 271.482 92.7421 264.351 80.4541 267.842C68.166 271.333 61.0347 284.125 64.5258 296.413C68.0169 308.701 80.8084 315.832 93.0965 312.341Z" stroke="#3E3E3E" stroke-miterlimit="10"/>
<path d="M202.444 398.238L201.809 398.418C201.911 398.337 201.981 398.255 202.083 398.174C202.212 398.189 202.315 398.222 202.444 398.238Z" stroke="#3E3E3E" stroke-miterlimit="10"/>
<path d="M343.299 358.22L246.933 385.598C246.804 385.583 246.701 385.549 246.572 385.534C246.47 385.615 246.4 385.697 246.298 385.778L202.444 398.238C202.315 398.222 202.212 398.189 202.083 398.174C201.981 398.255 201.911 398.337 201.809 398.418L105.443 425.796C104.185 418.294 102.936 410.79 101.678 403.288L334.648 337.1C337.532 344.14 340.406 351.183 343.28 358.225L343.299 358.22Z" fill="#BFFFD6" stroke="#3E3E3E" stroke-miterlimit="10"/>
<path d="M246.933 385.598L246.298 385.778C246.4 385.697 246.47 385.615 246.572 385.534C246.701 385.55 246.804 385.583 246.933 385.598Z" stroke="#3E3E3E" stroke-miterlimit="10"/>
<path d="M246.446 198.842C250.051 202.017 252.142 206.34 253.385 210.863L248.951 208.39C253.172 207.295 257.587 206.956 261.853 208.249L261.963 208.634C258.541 209.762 253.536 211.173 250.038 212.219L249.663 212.326C249.013 210.036 248.404 207.745 247.772 205.451C247.313 203.835 246.457 200.564 246.068 198.939L246.453 198.829L246.446 198.842Z" fill="#BFFFD6"/>
<path d="M246.461 168.087C244.193 178.545 249.383 189.971 258.812 194.798C263.338 197.192 268.525 197.704 273.545 197.297C278.768 196.873 283.645 194.937 288.109 192.026L288.388 192.311C285.276 197.02 279.866 200.262 274.07 201.265C262.45 203.287 250.373 195.283 246.452 184.483C244.498 179.144 244.337 173.233 246.058 167.983L246.439 168.082L246.461 168.087Z" fill="#BFFFD6"/>
<path d="M362.996 383.603L232.096 420.792C231.919 420.718 231.752 420.641 231.575 420.566C231.463 420.723 231.361 420.876 231.25 421.033L100.331 458.228C98.3765 440.59 96.4371 422.97 94.4922 405.33L340.15 335.537C347.771 351.564 355.385 367.573 362.996 383.603Z" fill="#F6F6F6" stroke="#3E3E3E" stroke-width="2" stroke-miterlimit="10"/>
<path d="M361.167 380.422L99.3582 454.803" stroke="#3E3E3E" stroke-miterlimit="10"/>
<path d="M211.054 350.019L193.941 354.881C186.858 326.693 179.772 298.496 172.689 270.309L187.234 266.177L211.054 350.019Z" fill="#BFFFD6" stroke="#3E3E3E" stroke-miterlimit="10"/>
<path d="M211.054 350.019L228.167 345.157C219.371 317.456 210.574 289.746 201.778 262.045L187.234 266.177L211.054 350.019Z" fill="#CDB4FF" stroke="#3E3E3E" stroke-miterlimit="10"/>
<path d="M340.8 358.899L244.433 386.277C244.304 386.262 244.201 386.228 244.072 386.213C243.97 386.294 243.9 386.376 243.798 386.457L199.944 398.917C199.815 398.901 199.712 398.868 199.583 398.853C199.481 398.934 199.411 399.016 199.309 399.097L102.943 426.475C101.685 418.973 100.436 411.469 99.1783 403.967L332.149 337.779C335.032 344.819 337.906 351.861 340.78 358.904L340.8 358.899Z" fill="#BFFFD6" stroke="#3E3E3E" stroke-miterlimit="10"/>
<path d="M95.0269 413.505L343.994 342.772" stroke="#3E3E3E" stroke-miterlimit="10"/>
<path d="M191.464 278.614C221.703 270.023 239.253 238.545 230.661 208.306C222.07 178.066 190.592 160.517 160.353 169.108C130.113 177.699 112.564 209.178 121.155 239.417C129.746 269.656 161.225 287.206 191.464 278.614Z" fill="#F6F6F6" stroke="#3E3E3E" stroke-width="2" stroke-miterlimit="10"/>
<path d="M190.127 273.911C217.769 266.058 233.811 237.283 225.958 209.642C218.104 182.001 189.33 165.959 161.689 173.812C134.047 181.665 118.006 210.439 125.859 238.081C133.712 265.722 162.486 281.764 190.127 273.911Z" fill="#3E3E3E" stroke="#3E3E3E" stroke-miterlimit="10"/>
<path d="M175.694 222.3C177.585 221.763 178.682 219.794 178.145 217.903C177.608 216.012 175.639 214.914 173.748 215.452C171.856 215.989 170.759 217.958 171.296 219.849C171.833 221.74 173.802 222.838 175.694 222.3Z" fill="#CDB4FF" stroke="#3E3E3E" stroke-miterlimit="10"/>
<path d="M158.243 209.69C155.6 218.611 156.893 229.783 165.835 234.51C174.726 239.313 184.738 234.961 191.198 228.063C187.185 237.904 173.895 241.181 164.891 236.275C155.761 231.508 151.754 218.062 158.243 209.69Z" fill="#BFFFD6"/>
<path d="M150.8 206.253C145.677 219.029 148.946 234.38 161.499 241.314C173.953 248.337 188.815 243.055 196.948 231.98C194.244 238.747 188.387 243.561 181.351 245.435C167.157 249.738 151.358 240.93 147.556 226.594C145.466 219.64 146.448 212.084 150.8 206.253Z" fill="#BFFFD6"/>
<path d="M157.63 210.789C154.988 219.711 156.28 230.883 165.222 235.609C174.113 240.412 184.125 236.06 190.586 229.162C186.572 239.003 173.282 242.28 164.278 237.374C155.148 232.608 151.141 219.161 157.63 210.789Z" fill="#CDB4FF"/>
<path d="M150.187 207.352C145.067 220.138 148.334 235.479 160.886 242.413C173.34 249.437 188.202 244.154 196.335 233.08C193.631 239.846 187.774 244.66 180.738 246.534C166.544 250.837 150.746 242.03 146.943 227.693C144.853 220.74 145.835 213.183 150.187 207.352Z" fill="#CDB4FF"/>
<path d="M176.603 189.68C177.951 187.8 201.996 200.388 200.407 205.112C199.56 207.619 192.152 205.95 184.15 209.731C183.636 209.97 182.066 210.739 179.87 210.947C178.97 211.036 174.303 211.478 172.904 209.225C171.39 206.786 175.338 203.814 173.899 199.701C173.125 197.488 171.384 196.631 171.827 195.663C172.501 194.193 176.844 195.651 177.819 193.961C178.647 192.52 176.137 190.343 176.603 189.68Z" fill="#BFFFD6" stroke="#3E3E3E" stroke-miterlimit="10"/>
<path d="M172.463 344.339L255.448 320.763" stroke="#3E3E3E" stroke-width="2" stroke-miterlimit="10"/>
<path d="M50.6794 329.018L338.153 247.346" stroke="#3E3E3E" stroke-miterlimit="10"/>
<path d="M174.035 190.41C175.383 188.53 199.428 201.118 197.839 205.842C196.991 208.349 189.583 206.68 181.582 210.461C181.068 210.7 179.498 211.468 177.301 211.677C176.402 211.766 171.735 212.208 170.336 209.955C168.821 207.516 172.769 204.544 171.331 200.43C170.556 198.218 168.816 197.361 169.258 196.393C169.932 194.923 174.276 196.381 175.251 194.69C176.079 193.249 173.568 191.073 174.035 190.41Z" fill="#CDB4FF" stroke="#3E3E3E" stroke-miterlimit="10"/>
<path d="M98.7707 224.735L44.3446 240.198C43.7815 240.358 43.4546 240.944 43.6146 241.508L44.0082 242.893C44.1682 243.456 44.7544 243.783 45.3175 243.623L99.7436 228.16C100.307 228 100.634 227.414 100.474 226.851L100.08 225.465C99.92 224.902 99.3338 224.575 98.7707 224.735Z" fill="#CDB4FF" stroke="#3E3E3E" stroke-miterlimit="10"/>
<path d="M82.5166 278.359C83.5966 278.135 89.0678 277.121 94.2398 280.58C98.1424 283.193 99.6521 286.86 100.131 288.179" fill="#CDB4FF"/>
<path d="M82.499 278.26C89.6029 273.882 100.285 279.756 100.224 288.142L100.035 288.206C97.5782 281.17 89.7879 276.948 82.5317 278.448L82.4866 278.253L82.499 278.26Z" fill="#3E3E3E"/>
</svg>
