<?xml version="1.0" encoding="UTF-8"?>
<svg id="Layer_2" data-name="Layer 2" xmlns="http://www.w3.org/2000/svg" viewBox="0 0 641.72 711.52">
  <defs>
    <style>
      .cls-1, .cls-2, .cls-3, .cls-4, .cls-5, .cls-6, .cls-7, .cls-8, .cls-9, .cls-10, .cls-11 {
        stroke: #3e3e3e;
        stroke-miterlimit: 10;
      }

      .cls-1, .cls-6, .cls-12 {
        fill: #bfffd6;
      }

      .cls-2, .cls-4, .cls-9, .cls-13 {
        fill: #cdb4ff;
      }

      .cls-14, .cls-8 {
        fill: #3e3e3e;
      }

      .cls-3, .cls-4 {
        stroke-width: 3px;
      }

      .cls-3, .cls-5, .cls-10 {
        fill: none;
      }

      .cls-5, .cls-6, .cls-7, .cls-9, .cls-11 {
        stroke-width: 2px;
      }

      .cls-7 {
        fill: #f6f6f6;
      }

      .cls-11 {
        fill: #d8d8d8;
      }
    </style>
  </defs>
  <g id="Layer_12" data-name="Layer 12">
    <g id="star">
      <polygon class="cls-14" points="446 318.16 461.31 416.14 506.49 327.64 490.43 425.49 561.05 355.13 515.2 443.29 604.34 397.95 533.2 467.79 632.14 451.91 542.66 496.58 641.72 511.72 542.66 526.86 632.14 571.54 533.2 555.66 604.34 625.5 515.2 580.16 561.05 668.32 490.43 597.96 506.49 695.81 461.31 607.31 446 705.28 430.7 607.31 385.52 695.81 401.58 597.96 330.96 668.32 376.81 580.16 287.66 625.5 358.81 555.66 259.86 571.54 349.35 526.86 250.29 511.72 349.35 496.58 259.86 451.91 358.81 467.79 287.66 397.95 376.81 443.29 330.96 355.13 401.58 425.49 385.52 327.64 430.7 416.14 446 318.16"/>
      <polygon class="cls-2" points="439 321.16 454.31 419.14 499.49 330.64 483.43 428.49 554.05 358.13 508.2 446.29 597.34 400.95 526.2 470.79 625.14 454.91 535.66 499.58 634.72 514.72 535.66 529.86 625.14 574.54 526.2 558.66 597.34 628.5 508.2 583.16 554.05 671.32 483.43 600.96 499.49 698.81 454.31 610.31 439 708.28 423.7 610.31 378.52 698.81 394.58 600.96 323.96 671.32 369.81 583.16 280.66 628.5 351.81 558.66 252.86 574.54 342.35 529.86 243.29 514.72 342.35 499.58 252.86 454.91 351.81 470.79 280.66 400.95 369.81 446.29 323.96 358.13 394.58 428.49 378.52 330.64 423.7 419.14 439 321.16"/>
    </g>
    <g>
      <path class="cls-6" d="M292.05,12.8l72.84,315.54c1.89,8.19-3.21,16.36-11.4,18.25l-256.34,59.18c-4.2,.97-8.4,.09-11.73-2.1-3.18-2.07-5.59-5.32-6.51-9.31L6.06,78.82c-1.89-8.19,3.21-16.36,11.4-18.25L273.8,1.39c8.19-1.89,16.36,3.21,18.25,11.4Z"/>
      <path class="cls-4" d="M287.88,19.47l72.84,315.54c1.89,8.19-3.21,16.36-11.4,18.25l-256.34,59.18c-4.2,.97-8.4,.09-11.73-2.1-3.18-2.07-5.59-5.32-6.51-9.31L1.89,85.49C0,77.3,5.11,69.13,13.3,67.24L269.63,8.06c8.19-1.89,16.36,3.21,18.25,11.4Z"/>
      <path class="cls-8" d="M348.58,284.29l11.63,50.39c1.89,8.19-3.21,16.36-11.4,18.25l-256.34,59.18c-3.99,.92-7.97,.18-11.22-1.77-3.43-2.04-6.06-5.43-7.03-9.63l-11.63-50.39c-.28-1.2-.4-2.4-.39-3.58,.06-6.86,4.8-13.05,11.79-14.67l256.34-59.18c8.19-1.89,16.36,3.21,18.25,11.4Z"/>
      <polygon class="cls-7" points="341.43 251.44 351.83 296.47 150.43 342.96 159.81 312.25 164.26 297.71 184.54 231.37 218.66 119.78 298.24 205.12 341.43 251.44"/>
      <path class="cls-6" d="M196.54,332.32l-131.11,30.27-2.83-12.27c-.28-1.2-.4-2.4-.39-3.58l-9.55-41.36,4.76-15.58,24.56-80.32,57.27,61.43,25.01,26.82,10.37,11.12,21.91,23.49Z"/>
      <path class="cls-9" d="M136.71,346.13l-71.29,16.46-2.83-12.27c-.28-1.2-.4-2.4-.39-3.58l-4.88-21.15,1.04-3.4,13.83-45.23,32.26,34.59,10.35,11.11,21.91,23.49Z"/>
      <circle class="cls-8" cx="111.36" cy="141.21" r="43.64"/>
      <circle class="cls-7" cx="108.47" cy="140.12" r="43.64"/>
      <rect class="cls-7" x="192.64" y="339.01" width="110.39" height="6.85" transform="translate(-70.67 64.52) rotate(-13)"/>
      <rect class="cls-1" x="103.7" y="379.2" width="65.46" height="5.56" transform="translate(-82.43 40.48) rotate(-13)"/>
    </g>
    <g>
      <g>
        <path class="cls-4" d="M466.71,299.2h-64.34c-2.12,0-3.85,1.73-3.85,3.85v64.34c0,2.12,1.73,3.86,3.85,3.86h64.34c2.12,0,3.85-1.74,3.85-3.86v-64.34c0-2.12-1.73-3.85-3.85-3.85Zm-50.63,75.83c-10.8,0-19.57,8.76-19.57,19.56s8.77,19.57,19.57,19.57,19.57-8.76,19.57-19.57-8.76-19.56-19.57-19.56Zm-28.03-25.04c-.78-30.76-25.96-55.46-56.91-55.46s-56.92,25.49-56.92,56.93c0,1.76,.08,3.49,.24,5.21v.04c.64,25.19,17.65,46.32,40.79,53.13-.62,20.12-1.23,40.24-1.85,60.36-.04,1.18-.07,2.37-.11,3.55-.13,4.15-.25,8.31-.38,12.46h35.58c-.13-4.15-.25-8.31-.38-12.46-.04-1.18-.07-2.37-.11-3.55-.61-20-1.23-39.99-1.84-59.99,24.27-6.51,42.13-28.66,42.13-54.97,0-1.76-.08-3.5-.24-5.21v-.04Zm-129.74-16.77h-59.36c-2.51,0-4.56,2.06-4.56,4.57v18.44c0,2.51,2.05,4.56,4.56,4.56h59.36c2.51,0,4.57-2.05,4.57-4.56v-18.44c0-2.51-2.06-4.57-4.57-4.57Zm-30.79,38.25c-12.77,0-23.12,10.35-23.12,23.12s10.35,23.13,23.12,23.13,23.13-10.35,23.13-23.13-10.36-23.12-23.13-23.12Z"/>
        <path class="cls-4" d="M493.91,468.86c-.11-3.46-.52-5.55-1.78-9.98-.8-2.82-1.94-6.58-3.56-12.25-2.81-9.83-7.67-19.21-8.89-29.36-.05-.36-.11-.87-.21-1.45l.06-.32c.1-.58,.15-1.17,.15-1.78v-113.85c0-5.87-4.81-10.67-10.68-10.67H194.17c-5.87,0-10.68,4.8-10.68,10.67v113.85c0,.6,.06,1.19,.16,1.77l.05,.33c-.1,.58-.16,1.09-.21,1.45-1.21,10.15-6.08,19.53-8.89,29.36-1.62,5.67-2.76,9.43-3.56,12.25-1.26,4.43-1.67,6.52-1.78,9.98-.14,5.1,.49,9.49,1.22,12.8-.22,.88-.33,1.81-.33,2.77,1.35,23.42,2.68,46.84,4.02,70.26,.02,.36,.17,4.8,2.41,8.9,.99,1.8,2.01,2.87,3.21,3.55,1.27,.72,2.47,.88,3.22,.89H480.17c.74-.01,1.94-.17,3.21-.89,1.2-.68,2.22-1.75,3.22-3.55,2.23-4.1,2.38-8.54,2.4-8.9,1.34-23.42,2.68-46.84,4.02-70.26,0-.95-.11-1.87-.33-2.75,.73-3.32,1.36-7.71,1.22-12.82Zm-95.39-165.81c0-2.12,1.73-3.85,3.85-3.85h64.34c2.12,0,3.85,1.73,3.85,3.85v64.34c0,2.12-1.73,3.86-3.85,3.86h-64.34c-2.12,0-3.85-1.74-3.85-3.86v-64.34Zm17.56,71.98c10.81,0,19.57,8.76,19.57,19.56s-8.76,19.57-19.57,19.57-19.57-8.76-19.57-19.57,8.77-19.56,19.57-19.56Zm-84.94-80.5c30.95,0,56.13,24.7,56.91,55.46v.04c.16,1.71,.24,3.45,.24,5.21,0,26.31-17.86,48.46-42.13,54.97,.61,20,1.23,39.99,1.84,59.99,.04,1.18,.07,2.37,.11,3.55,.13,4.15,.25,8.31,.38,12.46h-35.58c.13-4.15,.25-8.31,.38-12.46,.04-1.18,.07-2.37,.11-3.55,.62-20.12,1.23-40.24,1.85-60.36-23.14-6.81-40.15-27.94-40.79-53.13v-.04c-.16-1.72-.24-3.45-.24-5.21,0-31.44,25.48-56.93,56.92-56.93Zm-126.74,100.06c0-12.77,10.35-23.12,23.12-23.12s23.13,10.35,23.13,23.12-10.36,23.13-23.13,23.13-23.12-10.35-23.12-23.13Zm-10.01-56.8c0-2.51,2.05-4.57,4.56-4.57h59.36c2.51,0,4.57,2.06,4.57,4.57v18.44c0,2.51-2.06,4.56-4.57,4.56h-59.36c-2.51,0-4.56-2.05-4.56-4.56v-18.44Zm137.2,222.24c-.16-.13-.3-.24-.45-.37-.15,.13-.29,.24-.44,.37H194.61c.2-1.19,.4-2.37,.6-3.56,2.3-13.64,4.59-27.27,6.89-40.91,.45-2.67,.9-5.34,1.35-8.01h4.89v-.03h242.19v.03h8.3c.45,2.67,.9,5.34,1.35,8.01,2.5,14.83,5,29.64,7.49,44.47h-136.08Z"/>
        <path class="cls-4" d="M479.68,417.27c-.05-.36-.11-.87-.21-1.45l.06-.32c.09,.58,.15,1.17,.15,1.77Z"/>
        <path class="cls-4" d="M183.7,415.82c-.1,.58-.16,1.09-.21,1.45,0-.61,.06-1.21,.16-1.78l.05,.33Z"/>
        <path class="cls-4" d="M470.56,303.05v64.34c0,2.12-1.73,3.86-3.85,3.86h-64.34c-2.12,0-3.85-1.74-3.85-3.86v-64.34c0-2.12,1.73-3.85,3.85-3.85h64.34c2.12,0,3.85,1.73,3.85,3.85Z"/>
        <rect class="cls-4" x="402.52" y="303.21" width="64.04" height="64.04" rx="3.85" ry="3.85"/>
        <path class="cls-4" d="M262.88,337.79v18.44c0,2.51-2.06,4.56-4.57,4.56h-59.36c-2.51,0-4.56-2.05-4.56-4.56v-18.44c0-2.51,2.05-4.57,4.56-4.57h59.36c2.51,0,4.57,2.06,4.57,4.57Z"/>
        <path class="cls-4" d="M312.91,486.21c.13-4.15,.25-8.31,.38-12.46h34.82c.13,4.15,.25,8.31,.38,12.46h-35.58Z"/>
        <path class="cls-4" d="M467.67,560.03h-136.08c-.16-.13-.3-.24-.45-.37-.15,.13-.29,.24-.44,.37H194.61c.2-1.19,.4-2.37,.6-3.56,2.3-13.64,4.59-27.27,6.89-40.91,.45-2.67,.9-5.34,1.35-8.01h4.89v-.03h242.19v.03h8.3c.45,2.67,.9,5.34,1.35,8.01,2.5,14.83,5,29.64,7.49,44.47Z"/>
        <path class="cls-4" d="M435.65,394.59c0,10.81-8.76,19.57-19.57,19.57s-19.57-8.76-19.57-19.57,8.77-19.56,19.57-19.56,19.57,8.76,19.57,19.56Z"/>
        <circle class="cls-4" cx="416.09" cy="394.6" r="16.9"/>
        <circle class="cls-4" cx="227.53" cy="394.6" r="17.79"/>
        <path class="cls-4" d="M388.08,351.46c0,26.27-17.81,48.39-42.02,54.94-4.75,1.29-9.75,1.98-14.91,1.98-.15,0-.29,0-.44-.01-5.32-.03-10.47-.8-15.34-2.21-22.14-6.37-38.74-25.83-40.9-49.45v-.04c-.16-1.72-.24-3.45-.24-5.21,0-31.44,25.48-56.93,56.92-56.93s56.13,24.7,56.91,55.46v.04c0,.48,.02,.95,.02,1.43Z"/>
        <path class="cls-4" d="M250.65,394.59c0,12.78-10.36,23.13-23.13,23.13s-23.12-10.35-23.12-23.13,10.35-23.12,23.12-23.12,23.13,10.35,23.13,23.12Z"/>
        <path class="cls-4" d="M309.24,530.24h-.66c.12-.05,.21-.11,.33-.16,.12,.05,.21,.11,.33,.16Z"/>
        <path class="cls-4" d="M455.66,530.23h-100.17l-.06-.03c-.1-.04-.18-.08-.27-.13-.1,.05-.18,.09-.27,.13l-.06,.03h-45.6l-.06-.03c-.09-.04-.17-.08-.26-.13-.1,.05-.18,.09-.27,.13l-.06,.03h-100.18v-.03c.55-4.88,1.09-9.76,1.64-14.64,.3-2.67,.59-5.34,.89-8.01h242.2c.3,2.67,.59,5.34,.89,8.01,.55,4.89,1.1,9.78,1.64,14.67Z"/>
        <path class="cls-4" d="M355.49,530.24h-.66c.12-.05,.21-.11,.33-.16,.12,.05,.21,.11,.33,.16Z"/>
        <g>
          <path class="cls-13" d="M405.86,350.45v13.46h12.45"/>
          <path class="cls-14" d="M406.01,350.45c2,4.18,2.57,8.9,2.54,13.46,0,0-2.69-2.69-2.69-2.69,4.26,.1,8.55,.68,12.45,2.54,0,0,0,.3,0,.3-4.25,.13-8.5,.09-12.75,.15,0,0,0-.3,0-.3l.04-6.73c0-2.24,.04-4.49,.1-6.73h.3Z"/>
        </g>
        <g>
          <path class="cls-13" d="M414.31,320.77c-5.75,9.71-4.28,22.15,3.56,30.24,7.87,8.13,20.34,9.97,30.24,4.45"/>
          <path class="cls-14" d="M414.44,320.85c-8.1,15.35,.94,33.4,18.05,36.03,5.07,.93,10.41,.37,15.55-1.55l.15,.26c-4.41,3.43-10.38,4.91-16.13,4.25-11.54-1.28-20.9-11.88-21.8-23.23-.48-5.61,.91-11.31,3.93-15.92l.26,.15h0Z"/>
        </g>
        <path class="cls-4" d="M467.67,560.03h-136.08c-.16-.13-.3-.24-.45-.37-.15,.13-.29,.24-.44,.37H194.61c.2-1.19,.4-2.37,.6-3.56,2.3-13.64,4.59-27.27,6.89-40.91,.45-2.67,.9-5.34,1.35-8.01h255.38c.45,2.67,.9,5.34,1.35,8.01,2.5,14.83,5,29.64,7.49,44.47Z"/>
        <line class="cls-3" x1="466.79" y1="556.47" x2="194.62" y2="556.47"/>
        <path class="cls-4" d="M330.7,399.04v87.17h-17.79c.13-4.15,.25-8.31,.38-12.46,.04-1.18,.07-2.37,.11-3.55,.62-20.12,1.23-40.24,1.85-60.36,.04-1.23,.07-2.45,.11-3.68,.02-.46,.03-.93,.04-1.39,.06-1.91,.12-3.82,.18-5.73h15.12Z"/>
        <path class="cls-4" d="M348.5,486.21h-17.79v-87.17h15.12c.06,2.05,.13,4.09,.19,6.14,.01,.41,.02,.81,.04,1.22,.03,1.27,.07,2.54,.11,3.81,.61,20,1.23,39.99,1.84,59.99,.04,1.18,.07,2.37,.11,3.55,.13,4.15,.25,8.31,.38,12.46Z"/>
        <path class="cls-4" d="M453.08,530.2h-100.18c-.11-.05-.21-.11-.33-.16-.11,.05-.21,.11-.33,.16h-45.59c-.11-.05-.21-.11-.33-.16-.11,.05-.21,.11-.33,.16h-100.17c.54-4.88,1.09-9.76,1.63-14.64,.3-2.67,.6-5.34,.9-8.01v-.03h242.19v.03c.3,2.67,.6,5.34,.9,8.01,.55,4.88,1.09,9.76,1.64,14.64Z"/>
        <line class="cls-3" x1="201.73" y1="515.56" x2="460.56" y2="515.56"/>
        <path class="cls-4" d="M388.29,355.24c0,26.31-17.86,48.46-42.13,54.97-4.72,1.27-9.68,1.95-14.8,1.95-.22,0-.44,0-.66-.01-5.36-.05-10.54-.86-15.45-2.31-23.14-6.81-40.15-27.94-40.79-53.13v-.04c-.01-.48-.02-.95-.02-1.43,0-31.44,25.49-56.93,56.92-56.93,29.67,0,54.04,22.7,56.69,51.68v.04c.16,1.71,.24,3.45,.24,5.21Z"/>
        <circle class="cls-4" cx="331.37" cy="355.24" r="52.03"/>
        <circle class="cls-4" cx="331.59" cy="350.12" r="3.56"/>
        <g>
          <path class="cls-13" d="M318.25,336.78c-6.66,7.27-7.12,17.98-1.78,24.9,6.31,8.16,19.59,9.63,28.46,1.78"/>
          <path class="cls-14" d="M318.25,336.78c-1.2,2.23-2.07,4.48-2.52,6.76-2.62,6.22-1.6,14.1,3.39,18.83,3.21,3.13,7.79,4.82,12.34,4.75,2.28-.02,4.54-.46,6.66-1.28,2.29-.39,4.56-1.23,6.81-2.39-6.08,9.23-20.5,8.31-27.9,1.07-5.89-5.59-7.11-14.78-4.1-22.13,1.4-2.27,3.2-4.23,5.32-5.62h0Z"/>
        </g>
        <g>
          <path class="cls-13" d="M312.02,331.45c-10.25,10.25-10.25,27.11,0,37.36,10.25,10.25,27.11,10.25,37.36,0"/>
          <path class="cls-14" d="M312.02,331.45c-1.99,2.89-3.47,5.96-4.3,9.15-3.86,9.05-1.66,20.26,5.36,27.15,6.9,7.03,18.09,9.19,27.15,5.37,3.19-.81,6.27-2.3,9.14-4.31-4.49,6.37-10.9,9.22-18.68,9.18-15.1,.26-28.13-12.76-27.86-27.86-.03-7.74,2.78-14.24,9.18-18.68h0Z"/>
        </g>
        <g>
          <path class="cls-13" d="M317.36,337.67c-6.66,7.27-7.12,17.98-1.78,24.9,6.31,8.16,19.59,9.63,28.46,1.78"/>
          <path class="cls-14" d="M317.36,337.67c-1.2,2.23-2.07,4.48-2.52,6.76-2.62,6.22-1.6,14.1,3.39,18.83,3.21,3.13,7.79,4.82,12.34,4.75,2.28-.02,4.54-.46,6.66-1.28,2.29-.39,4.56-1.23,6.81-2.39-6.08,9.23-20.5,8.31-27.9,1.07-5.89-5.59-7.11-14.78-4.1-22.13,1.4-2.27,3.2-4.23,5.32-5.62h0Z"/>
        </g>
        <g>
          <path class="cls-13" d="M311.13,332.34c-10.25,10.25-10.25,27.11,0,37.36s27.11,10.25,37.36,0"/>
          <path class="cls-14" d="M311.13,332.34c-1.99,2.89-3.47,5.96-4.3,9.15-3.86,9.05-1.66,20.26,5.36,27.15,6.9,7.03,18.09,9.19,27.15,5.37,3.19-.81,6.27-2.3,9.14-4.31-4.49,6.37-10.9,9.22-18.68,9.18-15.1,.26-28.13-12.76-27.86-27.86-.03-7.74,2.78-14.24,9.18-18.68h0Z"/>
        </g>
        <path class="cls-4" d="M341.37,322.55c1.81-1.44,21.5,17.24,18.68,21.35-1.5,2.18-8.17-1.45-16.9,0-.56,.09-2.28,.4-4.45,0-.89-.16-5.5-1.01-6.23-3.56-.79-2.76,3.82-4.54,3.56-8.89-.14-2.34-1.58-3.64-.89-4.45,1.05-1.23,4.83,1.36,6.23,0,1.19-1.16-.63-3.94,0-4.45Z"/>
        <line class="cls-3" x1="295.12" y1="470.2" x2="381.4" y2="470.2"/>
        <path class="cls-4" d="M338.71,322.55c1.81-1.44,21.5,17.24,18.68,21.35-1.5,2.18-8.17-1.45-16.9,0-.56,.09-2.28,.4-4.45,0-.89-.16-5.5-1.01-6.23-3.56-.79-2.76,3.82-4.54,3.56-8.89-.14-2.34-1.58-3.64-.89-4.45,1.05-1.23,4.83,1.36,6.23,0,1.19-1.16-.63-3.94,0-4.45Z"/>
        <rect class="cls-4" x="199.29" y="335" width="58.7" height="3.56" rx="1.06" ry="1.06"/>
        <g>
          <path class="cls-13" d="M226.64,382.14c1.1,.08,6.64,.6,10.67,5.34,3.04,3.58,3.49,7.52,3.59,8.92"/>
          <path class="cls-14" d="M226.65,381.99c8.23-3.7,18.17,6.16,14.4,14.4,0,0-.3,.02-.3,.02-.54-7.4-6.77-13.48-14.12-14.12,0,0,.02-.3,.02-.3h0Z"/>
        </g>
      </g>
      <g>
        <path class="cls-7" d="M178.31,420.83c-.1-.58-.15-1.17-.15-1.77v-113.85c0-5.87,4.8-10.67,10.67-10.67H463.67c5.87,0,10.67,4.8,10.67,10.67v113.85c0,.72-.07,1.42-.2,2.1,.1,.59,.16,1.09,.2,1.46,1.22,10.15,6.08,19.52,8.89,29.35,1.62,5.67,2.76,9.44,3.56,12.26,1.26,4.43,1.67,6.52,1.78,9.98,.19,6.4-.86,11.67-1.78,15.12v2.67H165.71v-2.67c-.92-3.45-1.97-8.73-1.78-15.12,.11-3.46,.52-5.55,1.78-9.98,.8-2.82,1.94-6.58,3.56-12.26,2.81-9.83,7.68-19.2,8.89-29.35,.04-.36,.11-.87,.2-1.46"/>
        <path class="cls-5" d="M178.37,421.15c-.02-.11-.04-.21-.05-.33"/>
        <path class="cls-5" d="M474.14,421.15c.1,.59,.16,1.09,.2,1.46,0-.6-.05-1.19-.15-1.77h0"/>
        <path class="cls-5" d="M178.37,421.15c-.1,.59-.16,1.09-.2,1.46,0-.61,.05-1.21,.15-1.79"/>
        <rect class="cls-10" x="393.18" y="304.54" width="72.04" height="72.04" rx="3.85" ry="3.85"/>
        <rect class="cls-8" x="397.19" y="308.54" width="64.04" height="64.04" rx="3.85" ry="3.85"/>
        <rect class="cls-8" x="189.06" y="338.56" width="68.49" height="27.57" rx="4.56" ry="4.56"/>
        <path class="cls-8" d="M487.69,489.77c-1.34,23.42-2.68,46.85-4.02,70.27-.02,.36-.17,4.8-2.4,8.89-1,1.81-2.02,2.87-3.22,3.56-1.26,.72-2.46,.87-3.21,.89H177.67c-.75-.02-1.95-.17-3.21-.89-1.2-.68-2.22-1.75-3.22-3.56-2.23-4.09-2.38-8.54-2.4-8.89-1.34-23.42-2.68-46.85-4.02-70.27,0-5.87,4.34-10.67,9.64-10.67H478.05c5.3,0,9.64,4.8,9.64,10.67Z"/>
        <path class="cls-11" d="M172.87,475.53H479.64c3.95,0,7.16,3.21,7.16,7.16v9.74H165.71v-9.74c0-3.95,3.21-7.16,7.16-7.16Z"/>
        <circle class="cls-1" cx="410.75" cy="399.93" r="19.57"/>
        <circle class="cls-8" cx="410.75" cy="399.93" r="16.9"/>
        <circle class="cls-2" cx="222.19" cy="399.93" r="17.79"/>
        <circle class="cls-2" cx="325.81" cy="356.8" r="56.92"/>
        <circle class="cls-10" cx="222.19" cy="399.93" r="23.13"/>
        <path class="cls-10" d="M303.9,535.57h-.66c.12-.05,.21-.11,.33-.16,.12,.05,.21,.11,.33,.16Z"/>
        <path class="cls-1" d="M450.33,535.57h-100.18c-.12-.05-.21-.11-.33-.16-.12,.05-.21,.11-.33,.16h-45.59c-.12-.05-.21-.11-.33-.16-.12,.05-.21,.11-.33,.16h-100.18c.84-7.56,1.69-15.12,2.53-22.68h242.19c.85,7.56,1.69,15.12,2.53,22.68Z"/>
        <path class="cls-10" d="M350.15,535.57h-.66c.12-.05,.21-.11,.33-.16,.12,.05,.21,.11,.33,.16Z"/>
        <path class="cls-12" d="M400.72,355.79c2.6,4.04,3.43,8.77,3.39,13.46,0,0-3.59-3.59-3.59-3.59,4.36,.1,8.7,.98,12.45,3.39,0,0,0,.4,0,.4-3.6,.15-8.8,.14-12.45,.19,0,0-.39,0-.39,0,0-2.38,.04-4.75,.06-7.13,0-1.68,.07-5.06,.14-6.73,0,0,.4,0,.4,0h0Z"/>
        <path class="cls-12" d="M409.14,326.21c-5.04,9.44-3.17,21.85,4.58,29.07,3.7,3.54,8.55,5.45,13.49,6.43,5.14,1.02,10.36,.49,15.45-1.09,0,0,.19,.35,.19,.35-4.28,3.68-10.37,5.32-16.22,4.7-11.73-1.23-21.16-12.23-21.98-23.69-.42-5.67,1.04-11.4,4.13-15.98l.34,.2h0Z"/>
        <path class="cls-7" d="M462.34,565.37h-136.08c-.15-.12-.29-.24-.44-.36-.15,.12-.29,.24-.44,.36H189.28c2.94-17.5,5.89-34.98,8.84-52.48h255.38c2.95,17.5,5.9,34.98,8.84,52.48Z"/>
        <line class="cls-10" x1="461.45" y1="561.81" x2="189.28" y2="561.81"/>
        <path class="cls-1" d="M325.36,491.54h-17.79c.89-29.05,1.78-58.11,2.67-87.16h15.12v87.16Z"/>
        <path class="cls-2" d="M325.36,491.54h17.79c-.89-29.05-1.78-58.11-2.67-87.16h-15.12v87.16Z"/>
        <path class="cls-1" d="M447.74,535.54h-100.18c-.12-.05-.21-.11-.33-.16-.12,.05-.21,.11-.33,.16h-45.59c-.12-.05-.21-.11-.33-.16-.12,.05-.21,.11-.33,.16h-100.18c.84-7.56,1.69-15.12,2.53-22.68h242.19c.85,7.56,1.69,15.12,2.53,22.68Z"/>
        <line class="cls-10" x1="196.4" y1="520.9" x2="455.22" y2="520.9"/>
        <circle class="cls-7" cx="326.03" cy="360.58" r="56.92"/>
        <circle class="cls-8" cx="326.03" cy="360.58" r="52.03"/>
        <circle class="cls-2" cx="326.25" cy="355.46" r="3.56"/>
        <path class="cls-12" d="M312.91,342.12c-4.98,7.86-6.79,18.96,.52,25.95,7.24,7.05,18.06,5.6,26.16,.73-6.55,8.37-20.23,7.89-27.55,.71-7.48-7.08-7.66-21.11,.87-27.39h0Z"/>
        <path class="cls-12" d="M306.69,336.78c-8.42,10.89-9.47,26.55,.71,36.65,10.06,10.16,25.8,9.14,36.65,.71-4.45,5.77-11.4,8.8-18.68,8.68-14.83,.26-27.62-12.53-27.36-27.36-.11-7.26,2.9-14.26,8.68-18.68h0Z"/>
        <path class="cls-13" d="M312.02,343.01c-4.98,7.86-6.79,18.96,.52,25.95,7.24,7.05,18.06,5.6,26.16,.73-6.55,8.37-20.23,7.89-27.55,.71-7.48-7.08-7.66-21.11,.87-27.39h0Z"/>
        <path class="cls-13" d="M305.8,337.67c-8.42,10.9-9.47,26.55,.71,36.65,10.06,10.16,25.8,9.14,36.65,.71-4.45,5.77-11.4,8.8-18.68,8.68-14.83,.26-27.62-12.53-27.36-27.36-.11-7.26,2.9-14.26,8.68-18.68h0Z"/>
        <path class="cls-1" d="M336.04,327.89c1.81-1.44,21.5,17.24,18.68,21.35-1.5,2.18-8.17-1.45-16.9,0-.56,.09-2.28,.4-4.45,0-.89-.16-5.5-1.01-6.23-3.56-.79-2.76,3.82-4.54,3.56-8.89-.14-2.34-1.58-3.64-.89-4.45,1.05-1.23,4.83,1.36,6.23,0,1.19-1.16-.63-3.94,0-4.45Z"/>
        <line class="cls-5" x1="289.79" y1="475.53" x2="376.06" y2="475.53"/>
        <line class="cls-10" x1="176.83" y1="427.51" x2="475.68" y2="427.51"/>
        <path class="cls-2" d="M333.37,327.89c1.81-1.44,21.5,17.24,18.68,21.35-1.5,2.18-8.17-1.45-16.9,0-.56,.09-2.28,.4-4.45,0-.89-.16-5.5-1.01-6.23-3.56-.79-2.76,3.82-4.54,3.56-8.89-.14-2.34-1.58-3.64-.89-4.45,1.05-1.23,4.83,1.36,6.23,0,1.19-1.16-.63-3.94,0-4.45Z"/>
        <rect class="cls-2" x="193.95" y="340.34" width="58.7" height="3.56" rx="1.06" ry="1.06"/>
        <g>
          <path class="cls-13" d="M221.3,387.48c1.1,.08,6.64,.6,10.67,5.34,3.04,3.58,3.49,7.52,3.59,8.92"/>
          <path class="cls-14" d="M221.31,387.38c8.03-2.27,16.7,6.3,14.35,14.35,0,0-.2,.01-.2,.01-.44-7.44-6.78-13.63-14.17-14.17,0,0,.01-.2,.01-.2h0Z"/>
        </g>
      </g>
    </g>
  </g>
</svg>