<?xml version="1.0" encoding="UTF-8"?>
<svg id="Layer_2" data-name="Layer 2" xmlns="http://www.w3.org/2000/svg" viewBox="0 0 283.23 409.02">
  <defs>
    <style>
      .cls-1 {
        fill: #fff;
      }

      .cls-2, .cls-3 {
        fill: #cdb4ff;
      }

      .cls-2, .cls-4 {
        stroke: #3e3e3e;
        stroke-miterlimit: 10;
      }

      .cls-5 {
        fill: #3e3e3e;
      }

      .cls-6 {
        fill: #bfffd6;
      }

      .cls-4 {
        fill: none;
      }
    </style>
  </defs>
  <g id="pencil">
    <rect class="cls-5" x="8.92" y="165.34" width="228.49" height="160.52" rx="41" ry="41" transform="translate(89.23 -27.05) rotate(19.54)"/>
    <rect class="cls-6" x="40.52" y="198.9" width="160.61" height="91.75" rx="41" ry="41" transform="translate(88.82 -26.31) rotate(19.54)"/>
    <g>
      <path class="cls-5" d="M280.62,367.02c-6.64,6-47.44,47.72-53.82,41.34-2.56-2.56,.25-7.86,1.29-10.64,2.66-5.99,5.77-11.63,8.69-17.35,2.77-5.54,5.95-11.37,7.41-17.29,.19-.94,.47-2.61,0-3.27-.14-.2-.32-.2-.64-.25-3.46,.24-6.65,2.47-9.85,4.32-8.07,5.07-15.74,11.12-23.73,16.49-4.34,2.75-8.38,5.84-13.66,7.1-5.03,.99-7.28-3.04-6.28-7.48,2.09-8.96,7.09-16.95,11.25-24.9,3.12-5.66,6.32-11.25,9.36-16.87,1.52-2.81,3-5.62,4.33-8.44,.98-2.22,2.16-4.51,2.41-6.8,.07,.72,1.03,1.45,1.67,1.46,.37,.01,.26-.02,.11,.05-1.74,.75-3.44,2.24-5.08,3.51-4.94,4.07-9.71,8.52-14.86,12.48-4.19,3.11-8.57,6.45-14.05,7.61-24.36,3.06-5.31-48.96-8-61.83-.03-.11-.06-.05,.11,.18,.14,.2,.68,.69,1.24,.81,.57,.15,.93,.06,1.02,.04,.11-.04,0,.01-.13,.09-2.61,1.91-4.66,4.83-6.88,7.74-5.02,6.6-8.97,13.97-14.79,20.11-2.98,3.06-7.98,2.98-9.64-1.52-.48-1.38-.4-2.9-.25-4.17,.55-3.76,1.53-6.7,2.55-10.14,1.87-6.13,4.04-12.2,5.75-18.28,.57-1.91,1.19-4.8,1.29-6.08,.11,.43,.32,.87,.67,1.29,.95,1.18,2.84,1.77,4.2,1.12-3.96,3.33-7.13,8.04-10.56,12.16-3.24,3.93-6.23,7.93-10.23,11.43-.97,.83-3.23,2.44-5.19,2.43-1.66,.2-4.06-1-4.86-2.65-.27-.41-.42-.9-.59-1.36-.66-2.49-.18-4.67,.26-6.97,1.81-8.02,4.76-15.6,7.01-23.41,1.09-4.1,2.61-8.64,2.33-12.61-.02-.21-.07-.33-.07-.38,0-.02,.04,.09,.23,.23,.18,.16,.46,.27,.59,.27,.15,0,.09-.01-.02,0-.85,.19-2.22,.82-3.1,1.44-9.8,6.65-17.54,16.25-26.99,23.62-1.27,.92-2.41,1.81-4.23,2.15-1.31,.24-2.9-.65-3.26-1.95-.47-1.64-.1-2.32,.17-3.61,1.03-3.35,2.56-6.15,4.12-9.17,4.6-8.56,9.82-16.74,15.13-24.85,0,0,.78,.46,.78,.46-5.11,9.98-10.48,19.87-14.67,30.26-.65,1.68-1.51,4.23-1.52,5.45-.02-.04-.07-.2-.18-.32-.19-.28-.64-.54-.95-.56-.12-.02-.17-.02-.23,0,1.19-.59,2.57-1.96,3.68-2.96,6.95-6.77,13.01-14.13,20.43-20.72,1.97-1.71,4.03-3.43,6.42-4.73,2.29-1.33,5.94-2.13,8.32,0,5.99,4.88-.72,22.83-2.25,29.42-1.39,5.42-3.61,11.34-3.86,16.58-.07-.3-.22-.57-.41-.83-.68-1.03-2.35-1.58-3.38-1.2,.99-.72,2.41-2.28,3.58-3.63,4.07-4.81,7.79-10.09,11.87-15.08,2.21-2.56,4.2-5.32,7.35-7.13,3.33-1.87,7.42-.29,8.4,3.47,.84,3.87-.45,7.39-1.29,10.9-1.55,5.54-4.07,13.07-5.86,18.57-.88,2.92-2.04,6.27-2.34,9.13-.22-1.98-2.64-3.55-4.61-3.08-.32,.05-.65,.2-.84,.29,2.55-2.52,5.68-7.2,8.26-10.73,2.87-3.97,5.77-8.04,9.01-11.82,2.35-2.59,4.79-5.55,8.47-6.71,5.32-1.42,8.3,3.18,8.32,7.83,.92,11.71-10.14,46.31-3.72,53.91,3.37,1.57,10.3-3.74,13.31-5.85,5.12-3.81,9.86-8.08,14.93-12.11,2.18-1.66,4.2-3.35,6.98-4.43,1.89-.81,4.87-.36,5.92,1.94,2.5,4.67-4.99,16.02-7.24,20.5-6.85,12.54-15.21,24.5-20.22,37.82-.37,1.27-.87,2.84-.65,3.96-.02,0-.11-.16-.2-.17,1.29,.04,3.04-.68,4.62-1.45,2.71-1.34,5.41-3.01,8.08-4.73,8.13-5.28,15.79-11.04,24.2-16.08,3.84-2.08,7.63-4.68,12.27-4.63,4.28,.33,4.83,4.83,3.87,8.1-1.78,6.57-5.05,12.1-8.12,17.98-3.06,5.68-6.3,11.26-9,16.99-.92,2.09-1.92,4.2-2.24,6.41-.11,.66,.06,1.21,.1,1.17,.02,.01,.11,.07,.33,.09,.12,0,.25,0,.39-.01,0,0,.46-.08,.46-.08,2.15-.57,4.17-1.8,6.1-2.99,5.33-3.42,10.35-7.46,15.31-11.53,9.9-8.19,19.45-16.83,28.92-25.55,0,0,.62,.65,.62,.65h0Z"/>
      <path class="cls-3" d="M283.23,365.92c-6.64,6-47.44,47.72-53.82,41.34-2.56-2.56,.25-7.86,1.29-10.64,2.66-5.99,5.77-11.63,8.69-17.35,2.77-5.54,5.95-11.37,7.41-17.29,.19-.94,.47-2.61,0-3.27-.14-.2-.32-.2-.64-.25-3.46,.24-6.65,2.47-9.85,4.32-8.07,5.07-15.74,11.12-23.73,16.49-4.34,2.75-8.38,5.84-13.66,7.1-5.03,.99-7.28-3.03-6.28-7.48,2.09-8.96,7.09-16.95,11.25-24.9,3.12-5.66,6.32-11.25,9.36-16.87,1.52-2.81,3-5.62,4.33-8.44,.98-2.22,2.16-4.51,2.41-6.8,.07,.72,1.03,1.45,1.67,1.46,.37,.01,.26-.02,.11,.05-1.74,.75-3.44,2.24-5.08,3.51-4.94,4.07-9.71,8.52-14.86,12.48-4.19,3.11-8.57,6.45-14.05,7.61-24.36,3.06-5.31-48.96-8-61.83-.03-.11-.06-.05,.11,.18,.14,.2,.68,.69,1.24,.81,.57,.15,.93,.06,1.02,.04,.11-.04,0,.01-.13,.09-2.61,1.91-4.66,4.83-6.88,7.74-5.02,6.6-8.97,13.97-14.79,20.11-2.98,3.06-7.98,2.98-9.64-1.52-.48-1.38-.4-2.9-.25-4.17,.55-3.76,1.53-6.7,2.55-10.14,1.87-6.13,4.04-12.2,5.75-18.28,.57-1.91,1.19-4.8,1.29-6.08,.11,.43,.32,.87,.67,1.29,.95,1.18,2.84,1.77,4.2,1.12-3.96,3.33-7.13,8.04-10.56,12.16-3.24,3.93-6.23,7.93-10.23,11.43-.97,.83-3.23,2.44-5.19,2.43-1.66,.2-4.06-1-4.86-2.65-.27-.41-.42-.9-.59-1.36-.66-2.49-.18-4.67,.26-6.97,1.81-8.02,4.76-15.6,7.01-23.41,1.09-4.1,2.61-8.64,2.33-12.61-.02-.21-.07-.33-.07-.38,0-.02,.04,.09,.23,.23,.18,.16,.46,.27,.59,.27,.15,0,.09-.01-.02,0-.85,.19-2.22,.82-3.1,1.44-9.8,6.65-17.54,16.25-26.99,23.62-1.27,.92-2.41,1.81-4.23,2.15-1.31,.24-2.9-.65-3.26-1.95-.47-1.64-.1-2.32,.17-3.61,1.03-3.35,2.56-6.15,4.12-9.17,4.6-8.56,9.82-16.74,15.13-24.85,0,0,.78,.46,.78,.46-5.11,9.98-10.48,19.87-14.67,30.26-.65,1.68-1.51,4.23-1.52,5.45-.02-.04-.07-.2-.18-.32-.19-.29-.64-.54-.95-.56-.12-.02-.17-.02-.23,0,1.19-.59,2.57-1.96,3.68-2.96,6.95-6.77,13.01-14.13,20.43-20.72,1.97-1.71,4.03-3.43,6.42-4.73,2.29-1.33,5.94-2.13,8.32,0,5.99,4.88-.72,22.83-2.25,29.42-1.39,5.41-3.61,11.34-3.86,16.58,0,0-.06-.2-.06-.2-.06-.13-.11-.25-.18-.38-.63-1.18-2.41-1.86-3.55-1.44,.99-.72,2.41-2.28,3.58-3.63,4.07-4.81,7.79-10.09,11.87-15.08,2.21-2.56,4.2-5.32,7.35-7.13,3.33-1.87,7.42-.29,8.4,3.47,.84,3.87-.45,7.39-1.29,10.9-1.55,5.54-4.07,13.07-5.86,18.57-.88,2.92-2.04,6.27-2.34,9.13-.22-1.98-2.64-3.55-4.61-3.08-.32,.05-.65,.2-.84,.29,2.55-2.52,5.68-7.2,8.26-10.73,2.87-3.97,5.77-8.04,9.01-11.82,2.35-2.59,4.79-5.55,8.47-6.71,5.32-1.42,8.3,3.18,8.32,7.83,.92,11.71-10.14,46.31-3.72,53.91,3.37,1.57,10.3-3.74,13.31-5.85,5.12-3.81,9.86-8.08,14.93-12.11,2.18-1.66,4.2-3.35,6.98-4.43,1.89-.81,4.87-.36,5.92,1.94,2.5,4.67-4.99,16.02-7.24,20.5-6.85,12.54-15.21,24.5-20.22,37.82-.37,1.27-.87,2.84-.65,3.96-.02,0-.11-.16-.2-.17,1.29,.04,3.04-.68,4.62-1.45,2.71-1.34,5.41-3.01,8.08-4.73,8.13-5.28,15.79-11.04,24.2-16.08,3.84-2.08,7.63-4.68,12.27-4.63,4.28,.33,4.83,4.83,3.87,8.1-1.78,6.57-5.05,12.1-8.12,17.98-3.06,5.68-6.3,11.26-9,16.99-.92,2.09-1.92,4.2-2.24,6.41-.11,.66,.06,1.21,.1,1.17,.02,.01,.11,.07,.33,.09,.12,0,.25,0,.39-.01l.46-.08c2.15-.57,4.17-1.8,6.1-2.99,5.33-3.42,10.35-7.46,15.31-11.53,9.9-8.19,19.45-16.83,28.92-25.55,0,0,.62,.65,.62,.65h0Z"/>
    </g>
    <g>
      <g>
        <path class="cls-1" d="M232.42,126.18l-1.31,2.27-7.59,13.14-56.95,98.63-.29,.5-1.52,2.63-.95,.29s-.01-.01-.01-.02c0-.03-.03-.06-.04-.1-.98-2.55-2.91-7.03-6.31-12.1-.06-.1-.12-.2-.19-.29-1.25-1.85-2.69-3.77-4.36-5.7-.07-.08-.14-.16-.21-.24-1.19-1.38-2.5-2.76-3.92-4.09-.13-.12-.25-.24-.35-.34-.09-.09-.18-.17-.24-.23-.14-.14-.23-.22-.25-.24,0-.01-.31-.28-.72-.66-1.79-1.66-3.81-3.24-6.04-4.7-.06-.05-.12-.09-.17-.12-.07-.04-.13-.08-.17-.11-16.74-11.26-33.94-10.66-40.04-10.1l.68-1.18,.34-.59,56.46-97.8,7.57-13.12,1.81-3.13c3.3-5.71,10.68-7.69,16.39-4.39l43.99,25.39c5.72,3.3,7.69,10.68,4.39,16.4Z"/>
        <path class="cls-1" d="M163.81,243.64s-.01-.01-.01-.02c0-.03-.03-.06-.04-.1-.49-1.14-2.96-6.88-6.31-12.1-.06-.1-.12-.2-.19-.29-1.25-1.85-2.69-3.77-4.36-5.7-.07-.08-.14-.16-.21-.24-1.49-1.65-3.01-3.18-3.92-4.09-.13-.12-.25-.24-.35-.34-.09-.09-.18-.17-.24-.23-.14-.14-.23-.22-.25-.24,0-.01-.31-.28-.72-.66-1.24-1.09-2.55-2.17-3.96-3.22-.86-.64-1.62-1.17-2.08-1.48-.06-.05-.12-.09-.17-.12-.07-.04-.13-.08-.17-.11-16.74-11.26-33.94-10.66-40.04-10.1l-.62,1.06c.68,3.11,1.39,6.25,2.12,9.42,.81,3.5,1.63,6.96,2.47,10.38l7.82,33.83,33.19-10.14c6.02-1.82,12.04-3.63,18.06-5.45-.01-.01-.01-.03-.02-.06Z"/>
        <path class="cls-1" d="M157.26,231.13c-1.25-1.85-2.69-3.77-4.36-5.7,.68,.75,1.34,1.53,1.93,2.27,.85,1.07,1.67,2.23,2.43,3.43Z"/>
        <path class="cls-1" d="M130.93,253.58l-7.24,2.21-11.48,3.51-2.7-11.7-1.72-7.44c.9-.32,8.35-2.79,15.4,1.75,6.24,4.02,7.54,10.55,7.75,11.67Z"/>
        <path class="cls-1" d="M239.33,105.02c0,8.12-2.76,15.61-7.44,21.65-2.96,3.83-6.67,7.08-10.95,9.53-7.6-7.72-18.62-16.62-33.65-23.32-8.29-3.7-16.26-6.05-23.47-7.51v-.34c0-4.75,.95-9.29,2.67-13.45,5.55-13.4,19.17-22.87,35.08-22.87,20.84,0,37.75,16.27,37.75,36.32Z"/>
        <line class="cls-1" x1="172.83" y1="102.7" x2="114.2" y2="204.84"/>
        <line class="cls-1" x1="196.83" y1="115.7" x2="140.22" y2="214.32"/>
        <polyline class="cls-1" points="155.68 228.9 155.71 228.86 215.83 127.7"/>
        <path class="cls-1" d="M231.11,128.45l-7.59,13.14c-1.12-1.32-2.36-2.71-3.71-4.13-7.45-7.86-18.25-16.93-32.98-23.76-8.13-3.77-15.94-6.16-23-7.65-1.91-.4-3.77-.74-5.56-1.02l7.57-13.12c.2,.03,.4,.06,.61,.09,13.22,2.01,30.76,7.09,47.38,19.7,6.88,5.22,12.38,10.8,16.71,16.05,.19,.23,.39,.47,.57,.7Z"/>
      </g>
      <g>
        <path class="cls-4" d="M232.42,126.18l-1.31,2.27-7.59,13.14-56.95,98.63-.29,.5-1.52,2.63-.95,.29s-.01-.01-.01-.02c0-.03-.03-.06-.04-.1-.98-2.55-2.91-7.03-6.31-12.1-.06-.1-.12-.2-.19-.29-1.25-1.85-2.69-3.77-4.36-5.7-.07-.08-.14-.16-.21-.24-1.19-1.38-2.5-2.76-3.92-4.09-.13-.12-.25-.24-.35-.34-.09-.09-.18-.17-.24-.23-.14-.14-.23-.22-.25-.24,0-.01-.31-.28-.72-.66-1.79-1.66-3.81-3.24-6.04-4.7-.06-.05-.12-.09-.17-.12-.07-.04-.13-.08-.17-.11-16.74-11.26-33.94-10.66-40.04-10.1l.68-1.18,.34-.59,56.46-97.8,7.57-13.12,1.81-3.13c3.3-5.71,10.68-7.69,16.39-4.39l43.99,25.39c5.72,3.3,7.69,10.68,4.39,16.4Z"/>
        <path class="cls-4" d="M163.81,243.64s-.01-.01-.01-.02c0-.03-.03-.06-.04-.1-.49-1.14-2.96-6.88-6.31-12.1-.06-.1-.12-.2-.19-.29-1.25-1.85-2.69-3.77-4.36-5.7-.07-.08-.14-.16-.21-.24-1.49-1.65-3.01-3.18-3.92-4.09-.13-.12-.25-.24-.35-.34-.09-.09-.18-.17-.24-.23-.14-.14-.23-.22-.25-.24,0-.01-.31-.28-.72-.66-1.24-1.09-2.55-2.17-3.96-3.22-.86-.64-1.62-1.17-2.08-1.48-.06-.05-.12-.09-.17-.12-.07-.04-.13-.08-.17-.11-16.74-11.26-33.94-10.66-40.04-10.1l-.62,1.06c.68,3.11,1.39,6.25,2.12,9.42,.81,3.5,1.63,6.96,2.47,10.38l7.82,33.83,33.19-10.14c6.02-1.82,12.04-3.63,18.06-5.45-.01-.01-.01-.03-.02-.06Z"/>
        <path class="cls-4" d="M157.26,231.13c-1.25-1.85-2.69-3.77-4.36-5.7,.68,.75,1.34,1.53,1.93,2.27,.85,1.07,1.67,2.23,2.43,3.43Z"/>
        <path class="cls-5" d="M130.93,253.58l-7.24,2.21-11.48,3.51-2.7-11.7-1.72-7.44c.9-.32,8.35-2.79,15.4,1.75,6.24,4.02,7.54,10.55,7.75,11.67Z"/>
        <path class="cls-2" d="M239.33,105.02c0,8.12-2.76,15.61-7.44,21.65-2.96,3.83-6.67,7.08-10.95,9.53-7.6-7.72-18.62-16.62-33.65-23.32-8.29-3.7-16.26-6.05-23.47-7.51v-.34c0-4.75,.95-9.29,2.67-13.45,5.55-13.4,19.17-22.87,35.08-22.87,20.84,0,37.75,16.27,37.75,36.32Z"/>
        <line class="cls-4" x1="172.83" y1="102.7" x2="114.2" y2="204.84"/>
        <line class="cls-4" x1="196.83" y1="115.7" x2="140.22" y2="214.32"/>
        <polyline class="cls-4" points="155.68 228.9 155.71 228.86 215.83 127.7"/>
        <path class="cls-5" d="M231.11,128.45l-7.59,13.14c-1.12-1.32-2.36-2.71-3.71-4.13-7.45-7.86-18.25-16.93-32.98-23.76-8.13-3.77-15.94-6.16-23-7.65-1.91-.4-3.77-.74-5.56-1.02l7.57-13.12c.2,.03,.4,.06,.61,.09,13.22,2.01,30.76,7.09,47.38,19.7,6.88,5.22,12.38,10.8,16.71,16.05,.19,.23,.39,.47,.57,.7Z"/>
      </g>
    </g>
    <g>
      <g>
        <rect class="cls-5" x="6.85" y="40.26" width="127" height="37.02" rx="12" ry="12" transform="translate(-20.88 67.73) rotate(-45.49)"/>
        <rect class="cls-5" x="6.85" y="40.26" width="127" height="37.02" rx="12" ry="12" transform="translate(79.31 150) rotate(-135.49)"/>
      </g>
      <g>
        <rect class="cls-2" x=".85" y="35.26" width="127" height="37.02" rx="12" ry="12" transform="translate(-19.11 61.96) rotate(-45.49)"/>
        <rect class="cls-2" x=".85" y="35.26" width="127" height="37.02" rx="12" ry="12" transform="translate(72.54 137.23) rotate(-135.49)"/>
      </g>
    </g>
  </g>
</svg>