<svg width="273" height="273" viewBox="0 0 273 273" fill="none" xmlns="http://www.w3.org/2000/svg">
<path d="M139.586 273C213.269 273 273 213.269 273 139.586C273 65.9038 213.269 6.17242 139.586 6.17242C65.9038 6.17242 6.17241 65.9038 6.17241 139.586C6.17241 213.269 65.9038 273 139.586 273Z" fill="#3E3E3E"/>
<path d="M238.569 139.603C221.155 177.431 183.897 202.276 142.655 203.535C99.5345 204.862 59.3448 180.19 40.6034 140.828C57.431 102.741 94.2586 77.3793 135.276 75.6552C179 73.8104 220.017 99.1552 238.552 139.586L238.569 139.603Z" fill="#3E3E3E"/>
<path d="M139.586 183.845C164.03 183.845 183.845 164.03 183.845 139.586C183.845 115.143 164.03 95.3276 139.586 95.3276C115.143 95.3276 95.3276 115.143 95.3276 139.586C95.3276 164.03 115.143 183.845 139.586 183.845Z" fill="#3E3E3E"/>
<path d="M139.586 163.569C152.832 163.569 163.569 152.831 163.569 139.586C163.569 126.341 152.832 115.603 139.586 115.603C126.341 115.603 115.603 126.341 115.603 139.586C115.603 152.831 126.341 163.569 139.586 163.569Z" fill="#3E3E3E"/>
<path d="M134.414 267.828C208.096 267.828 267.828 208.096 267.828 134.414C267.828 60.7314 208.096 1 134.414 1C60.7314 1 1 60.7314 1 134.414C1 208.096 60.7314 267.828 134.414 267.828Z" fill="#BFFFD6" stroke="#3E3E3E" stroke-miterlimit="10"/>
<path d="M233.397 134.431C215.983 172.259 178.724 197.103 137.483 198.362C94.3621 199.69 54.1724 175.017 35.431 135.655C52.2586 97.569 89.0862 72.2069 130.103 70.4828C173.828 68.638 214.845 93.9828 233.379 134.414L233.397 134.431Z" fill="#F6F6F6"/>
<path d="M134.414 178.672C158.857 178.672 178.672 158.857 178.672 134.414C178.672 109.97 158.857 90.1552 134.414 90.1552C109.97 90.1552 90.1552 109.97 90.1552 134.414C90.1552 158.857 109.97 178.672 134.414 178.672Z" fill="#CDB4FF"/>
<path d="M134.414 158.396C147.659 158.396 158.397 147.659 158.397 134.414C158.397 121.168 147.659 110.431 134.414 110.431C121.168 110.431 110.431 121.168 110.431 134.414C110.431 147.659 121.168 158.396 134.414 158.396Z" fill="#3E3E3E"/>
</svg>
