<svg width="179" height="247" viewBox="0 0 179 247" fill="none" xmlns="http://www.w3.org/2000/svg">
<path d="M123.832 233.793C154.028 226.61 176.117 210.739 173.168 198.344C170.22 185.949 143.351 181.723 113.155 188.905C82.9591 196.088 60.8706 211.959 63.8191 224.354C66.7675 236.75 93.6363 240.976 123.832 233.793Z" fill="#3E3E3E"/>
<path d="M120.174 223.216C148.35 216.514 169.452 203.772 167.308 194.757C165.163 185.741 140.584 183.865 112.408 190.567C84.2325 197.269 63.1301 210.011 65.2746 219.027C67.4192 228.042 91.9986 229.918 120.174 223.216Z" fill="#F6F6F6" stroke="#3E3E3E" stroke-miterlimit="10"/>
<path d="M116.289 174.738L101.696 178.209C95.2487 179.743 91.2652 186.213 92.7989 192.66L95.2356 202.905C96.7692 209.352 103.239 213.336 109.687 211.802L124.28 208.331C130.727 206.797 134.711 200.327 133.177 193.88L130.74 183.636C129.207 177.188 122.737 173.205 116.289 174.738Z" fill="#CDB4FF" stroke="#3E3E3E" stroke-miterlimit="10"/>
<path d="M129.83 175.307C128.97 171.687 119.12 170.927 107.84 173.607C96.5599 176.287 88.1099 181.397 88.9699 185.017C89.8299 188.637 99.6799 189.397 110.96 186.717C122.24 184.037 130.69 178.927 129.83 175.307Z" fill="#F6F6F6" stroke="#3E3E3E" stroke-miterlimit="10"/>
<path d="M130.63 181.447C129.74 181.287 128.88 182.337 128.69 182.557C126.71 184.817 117.95 188.097 113.04 189.407C107.74 190.827 98.1599 192.317 94.1199 191.427C93.6599 191.327 91.5899 190.827 91.1199 191.587C90.8999 191.947 91.1199 192.447 91.1699 192.587C92.0699 194.687 105.12 195.287 119.08 190.077C125.73 187.597 132.12 183.967 131.68 182.387C131.6 182.087 131.18 181.547 130.63 181.447Z" fill="#F6F6F6" stroke="#3E3E3E" stroke-miterlimit="10"/>
<path d="M110.165 181.154C114.194 180.195 116.27 174.409 114.8 168.23C113.33 162.051 108.872 157.819 104.842 158.778C100.813 159.736 98.7374 165.522 100.207 171.701C101.677 177.88 106.135 182.112 110.165 181.154Z" fill="#3E3E3E"/>
<path d="M167 90.4672C167 105.327 163.09 119.277 156.24 131.347C141.99 156.497 114.98 173.467 84 173.467C49.6 173.467 20.09 152.537 7.5 122.727C3.31 112.807 1 101.907 1 90.4672C1 44.6272 38.16 7.46716 84 7.46716C87.76 7.46716 91.46 7.71716 95.08 8.20716C135.56 13.5972 166.81 48.1672 166.99 90.0772C167 90.2072 167 90.3372 167 90.4672Z" fill="#F6F6F6" stroke="#3E3E3E" stroke-miterlimit="10"/>
<path d="M167 90.4672C167 105.327 163.09 119.277 156.24 131.347C152.2 111.077 148.24 105.607 145 105.467C141.77 105.327 140.91 110.547 136 111.467C127.01 113.147 121.74 97.1372 111 97.4672C108.33 97.5472 104.55 100.517 97 106.467C86.16 114.997 80.75 119.267 79 124.467C76.4 132.197 80.63 135.767 77 142.467C73.8 148.377 67.72 150.787 66 151.467C52.96 156.637 38.36 148.157 32 144.467C21.28 138.247 17.67 132.697 7.5 122.727C3.31 112.807 1 101.907 1 90.4672C1 44.6272 38.16 7.46716 84 7.46716C87.76 7.46716 91.46 7.71716 95.08 8.20716C93.13 10.1872 91.1 12.2772 89 14.4672C69.12 35.1972 66.69 40.1272 67 45.4672C67.33 51.1072 72.88 56.8972 84 68.4672C96.8 81.7872 102.67 83.0972 105 83.4672C112.37 84.6472 119.32 82.0972 121 81.4672C128 78.8172 128.88 75.7672 134 74.4672C140.75 72.7472 146.87 76.1072 153 79.4672C158.68 82.5772 163.28 86.3172 166.99 90.0772C167 90.2072 167 90.3372 167 90.4672Z" fill="#3E3E3E"/>
<path d="M65.2479 21.4043C71.4873 20.2175 76.2107 17.496 75.7979 15.3258C75.3851 13.1556 69.9924 12.3584 63.753 13.5452C57.5136 14.7321 52.7902 17.4535 53.203 19.6238C53.6158 21.794 59.0085 22.5912 65.2479 21.4043Z" fill="#CDB4FF" stroke="#3E3E3E" stroke-miterlimit="10"/>
<path d="M65.0564 18.4212C68.4789 17.6071 70.3511 13.1534 69.2379 8.47356C68.1247 3.79373 64.4478 0.659941 61.0252 1.47405C57.6027 2.28816 55.7305 6.74187 56.8437 11.4217C57.9569 16.1015 61.6338 19.2353 65.0564 18.4212Z" fill="#F6F6F6" stroke="#3E3E3E" stroke-miterlimit="10"/>
</svg>
