<svg width="502" height="500" viewBox="0 0 502 500" fill="none" xmlns="http://www.w3.org/2000/svg">
<path id="star-blck" d="M255.907 103.559L307.352 9.99434L316.294 116.401L401.353 51.8438L366.239 152.683L470.196 128.307L397.107 206.143L502 226.157L403.56 267.544L491.236 328.497L384.483 326.265L439.79 417.597L343.172 372.142L356.553 478.075L286.774 397.25L255.907 499.474L225.039 397.25L155.26 478.075L168.641 372.142L72.0228 417.597L127.33 326.265L20.577 328.497L108.253 267.544L9.82593 226.157L114.706 206.143L41.6172 128.307L145.574 152.683L110.46 51.8438L195.519 116.401L204.461 9.99434L255.907 103.559Z" fill="#3E3E3E"/>
<path id="star-prpl" d="M248.093 95.746L299.539 2.1684L308.469 108.575L393.527 44.0179L358.413 144.857L462.383 120.481L389.281 198.33L494.174 218.344L395.734 259.731L483.423 320.671L376.657 318.439L431.977 409.784L335.359 364.317L348.727 470.262L278.961 389.424L248.093 491.648L217.226 389.424L147.447 470.262L160.815 364.317L64.1969 409.784L119.517 318.439L12.751 320.671L100.44 259.731L2 218.344L106.893 198.33L33.7912 120.481L137.761 144.857L102.647 44.0179L187.705 108.575L196.635 2.1684L248.093 95.746Z" fill="#CDB4FF" stroke="#3E3E3E" stroke-miterlimit="10"/>
<path d="M333.268 146.921C351.555 139.432 356.72 109.771 344.803 80.6713C332.886 51.5716 308.401 34.0526 290.113 41.5416C271.826 49.0306 266.662 78.6917 278.578 107.791C290.495 136.891 314.981 154.41 333.268 146.921Z" fill="#BFFFD6" stroke="#3E3E3E" stroke-width="0.5" stroke-miterlimit="10"/>
<path d="M390.468 123.504C408.755 116.015 413.919 86.3543 402.002 57.2545C390.085 28.1547 365.6 10.6357 347.313 18.1247C329.025 25.6137 323.861 55.2748 335.778 84.3746C347.695 113.474 372.18 130.993 390.468 123.504Z" fill="#BFFFD6" stroke="#3E3E3E" stroke-width="0.5" stroke-miterlimit="10"/>
<path d="M361.963 96.8138C371.936 92.7296 374.753 76.5553 368.255 60.6874C361.757 44.8196 348.404 35.267 338.431 39.3512C328.458 43.4354 325.641 59.6097 332.139 75.4776C338.637 91.3454 351.99 100.898 361.963 96.8138Z" fill="#BFFFD6" stroke="#3E3E3E" stroke-width="0.5" stroke-miterlimit="10"/>
<path d="M305.035 116.602C315.009 112.518 317.826 96.3434 311.327 80.4755C304.829 64.6077 291.477 55.0551 281.503 59.1393C271.53 63.2235 268.713 79.3978 275.211 95.2657C281.71 111.133 295.062 120.686 305.035 116.602Z" fill="#BFFFD6" stroke="#3E3E3E" stroke-width="0.5" stroke-miterlimit="10"/>
<path d="M323.003 144.357C341.29 136.868 346.455 107.206 334.538 78.1067C322.621 49.0069 298.135 31.4879 279.848 38.9769C261.561 46.4659 256.396 76.127 268.313 105.227C280.23 134.327 304.716 151.846 323.003 144.357Z" fill="#F6F6F6" stroke="#3E3E3E" stroke-width="2" stroke-miterlimit="10"/>
<path d="M380.202 120.94C398.49 113.451 403.654 83.7896 391.737 54.6898C379.82 25.59 355.335 8.07104 337.048 15.56C318.76 23.0491 313.596 52.7101 325.513 81.8099C337.43 110.91 361.915 128.429 380.202 120.94Z" fill="#F6F6F6" stroke="#3E3E3E" stroke-width="2" stroke-miterlimit="10"/>
<path d="M351.698 94.2491C361.671 90.1649 364.488 73.9906 357.99 58.1228C351.492 42.2549 338.139 32.7024 328.166 36.7866C318.193 40.8708 315.376 57.0451 321.874 72.9129C328.372 88.7808 341.725 98.3333 351.698 94.2491Z" fill="#3E3E3E"/>
<path d="M294.77 114.037C304.744 109.953 307.561 93.7787 301.062 77.9109C294.564 62.043 281.212 52.4905 271.238 56.5747C261.265 60.6589 258.448 76.8332 264.946 92.701C271.445 108.569 284.797 118.121 294.77 114.037Z" fill="#3E3E3E"/>
<path d="M448.155 198.715C448.463 206.464 454.146 254.253 439.098 248.352C436.147 246.992 434.043 244.49 432.067 242.296C428.616 238.293 425.588 234.073 422.24 230.237C419.584 227.299 415.35 222.372 411.309 223.488C399.917 229.056 406.947 276.576 386.933 267.878C384.098 266.403 382.109 264.414 380.223 262.438C373.09 254.677 367.869 245.491 361.313 237.575C359.953 235.971 357.939 233.662 356.194 233.123C356.258 233.123 356.476 233.072 356.476 233.021C355.334 235.432 355.681 239.268 355.501 242.36C355.373 247.877 355.36 253.381 353.384 258.833C343.365 283.171 309.392 258.782 293.42 253.727C291.585 253.175 289.815 252.521 288.044 252.752C287.903 252.791 288.006 252.816 288.16 252.649C288.403 252.521 288.519 252.213 288.519 252.213C288.519 252.765 288.583 253.304 288.75 253.984C289.584 257.55 292.945 263.875 294.549 267.467C296.178 270.957 298.513 276.743 294.408 279.771C291.79 281.862 287.98 280.784 285.389 279.347C277.344 275.062 270.609 267.916 262.591 264.093L262.231 263.978C262.09 263.914 262.411 264.157 263.463 263.631C264.066 263.336 264.874 262.336 264.861 261.797C264.977 264.016 266.042 266.813 266.812 269.122C268.325 274.536 273.175 283.966 267.107 288.405C265.054 289.816 262.424 289.701 260.166 288.957C255.727 287.34 251.955 284.415 248.299 281.811C244.771 279.489 229.247 266.428 227.182 272.458C225.103 279.45 227.117 287.084 227.22 294.371C227.246 296.783 227.451 299.413 226.258 301.773C221.524 308.817 213.582 296.5 210.863 292.805C207.86 288.495 205.166 284.03 202.562 279.527L203.306 279.027C206.436 283.171 209.618 287.276 212.954 291.176C215.417 293.986 217.919 296.924 220.921 299.028C221.383 299.336 221.857 299.605 222.242 299.733C222.614 299.874 222.909 299.836 222.678 299.823C222.627 299.81 222.576 299.823 222.55 299.862C222.524 299.874 222.499 299.862 222.486 299.874C222.486 299.913 222.486 299.81 222.512 299.785C222.524 299.772 222.55 299.708 222.563 299.605C223.718 290.317 215.532 272.33 224.705 265.505C235.38 258.808 253.225 278.077 263.13 281.054C263.194 281.041 263.219 281.054 263.271 281.054C263.258 281.054 263.232 281.041 263.219 281.041C262.655 281.079 262.078 281.439 261.757 281.926C261.628 282.003 261.552 282.298 261.513 282.337C261.449 282.619 261.487 282.324 261.462 282.003C261.398 281.285 261.154 280.194 260.833 279.117C259.807 275.678 258.165 271.881 257.01 268.237C256.112 265.132 254.855 261.54 256.535 258.115C262.129 248.852 275.048 261.104 280.719 264.914C284.067 267.301 287.441 270.239 290.982 271.791C290.546 271.765 289.994 271.829 289.571 272.073C288.519 272.497 287.711 273.6 287.608 274.678C287.608 274.716 287.608 274.767 287.608 274.806C287.505 273.933 286.8 272.317 286.287 271.072C283.233 263.708 273.65 247.928 286.299 244.477C292.868 243.618 298.038 246.863 303.606 249.224C308.379 251.508 312.959 253.881 317.577 256.036C325.981 259.68 342.608 268.135 347.124 256.408C348.791 252.072 348.933 246.966 349.125 242.168C349.484 237.909 348.868 232.61 351.986 228.838C360.363 220.987 370.717 241.437 374.899 246.735C378.427 251.508 385.663 263.721 391.449 264.016C401.546 260.437 396.966 214.559 415.055 220.165C419.135 221.679 421.97 225.066 424.626 228.145C429.668 233.919 433.324 241.09 439.354 245.619C450.49 252.483 447.372 204.449 447.206 198.74L448.104 198.676L448.155 198.715Z" fill="#3E3E3E"/>
<path d="M449.271 196.547C449.579 204.206 455.493 254.356 439.213 245.67C430.553 239.564 426.281 229.249 418.032 222.937C413.477 219.421 410.411 221.41 408.538 226.003C405.69 233.046 405.087 240.757 403.611 248.313C402.303 255.882 399.07 271.06 388.062 265.71C385.227 264.234 383.238 262.246 381.352 260.27C374.219 252.508 368.998 243.323 362.442 235.407C361.082 233.803 359.068 231.494 357.323 230.955C357.387 230.955 357.605 230.904 357.605 230.852C356.463 233.264 356.81 237.1 356.63 240.192C356.502 245.709 356.489 251.213 354.513 256.665C344.494 281.002 310.521 256.614 294.549 251.559C292.714 251.007 290.944 250.353 289.173 250.584C289.032 250.622 289.135 250.648 289.289 250.481C289.532 250.353 289.648 250.045 289.648 250.045C289.648 250.597 289.712 251.136 289.879 251.816C290.713 255.382 294.074 261.707 295.678 265.299C297.307 268.789 299.642 274.575 295.537 277.603C292.919 279.694 289.109 278.616 286.518 277.179C278.474 272.894 271.738 265.748 263.72 261.925L263.36 261.81C263.219 261.746 263.54 261.989 264.592 261.463C265.195 261.168 266.003 260.168 265.991 259.629C266.093 261.848 267.171 264.645 267.928 266.954C269.442 272.368 274.291 281.798 268.223 286.237C266.17 287.648 263.54 287.533 261.282 286.788C256.843 285.172 253.071 282.247 249.415 279.643C245.887 277.32 230.363 264.26 228.298 270.29C226.219 277.282 228.234 284.915 228.336 292.203C228.362 294.614 228.567 297.244 227.387 299.605C222.653 306.648 214.711 294.332 211.992 290.637C208.989 286.327 206.295 281.862 203.691 277.359L204.435 276.859C207.565 281.002 210.747 285.108 214.083 289.008C216.546 291.818 219.048 294.756 222.05 296.86C222.512 297.167 222.986 297.437 223.371 297.565C223.743 297.706 224.038 297.668 223.807 297.655C223.756 297.642 223.705 297.655 223.679 297.693C223.653 297.706 223.628 297.693 223.615 297.706C223.615 297.745 223.615 297.642 223.641 297.617C223.653 297.604 223.679 297.54 223.692 297.437C224.847 288.148 216.661 270.162 225.834 263.336C236.509 256.639 254.354 275.922 264.259 278.886C264.297 278.886 264.361 278.886 264.4 278.886C264.387 278.886 264.361 278.873 264.348 278.873C263.784 278.911 263.207 279.27 262.886 279.758C262.757 279.835 262.681 280.13 262.642 280.169C262.578 280.451 262.616 280.156 262.591 279.835C262.527 279.117 262.283 278.026 261.962 276.948C260.936 273.51 259.294 269.713 258.139 266.069C257.241 262.977 255.984 259.372 257.664 255.947C263.258 246.684 276.177 258.936 281.848 262.746C285.196 265.132 288.57 268.07 292.111 269.623C291.675 269.597 291.123 269.661 290.7 269.905C289.648 270.328 288.84 271.432 288.737 272.509C288.737 272.548 288.737 272.599 288.737 272.638C288.634 271.765 287.929 270.149 287.416 268.904C284.362 261.54 274.779 245.76 287.428 242.309C293.997 241.449 299.167 244.695 304.735 247.056C309.508 249.34 314.101 251.713 318.706 253.868C327.11 257.512 343.737 265.966 348.253 254.24C349.92 249.904 350.062 244.798 350.254 240C350.613 235.74 349.997 230.442 353.115 226.67C361.493 218.818 371.846 239.268 376.028 244.567C379.556 249.34 386.792 261.553 392.578 261.848C402.675 258.269 398.095 212.391 416.184 217.997C420.264 219.511 423.099 222.898 425.755 225.977C430.797 231.75 434.453 238.922 440.483 243.451C451.619 250.315 448.501 202.281 448.335 196.572L449.233 196.508L449.271 196.547Z" fill="#BFFFD6"/>
<path d="M236.917 352.702C261.744 338.142 277.023 318.074 271.045 307.88C265.066 297.685 240.093 301.224 215.266 315.784C190.439 330.343 175.16 350.411 181.139 360.606C187.118 370.801 212.091 367.262 236.917 352.702Z" fill="#3E3E3E"/>
<path d="M230.801 344.305C253.971 330.716 269.23 313.69 264.882 306.277C260.534 298.863 238.226 303.868 215.055 317.457C191.885 331.045 176.626 348.071 180.974 355.485C185.322 362.899 207.63 357.893 230.801 344.305Z" fill="#F6F6F6" stroke="#3E3E3E" stroke-miterlimit="10"/>
<path d="M210.514 304.541L205.877 307.261C198.542 311.562 196.084 320.995 200.385 328.329L201.008 329.391C205.309 336.726 214.742 339.185 222.076 334.883L226.713 332.164C234.048 327.863 236.506 318.43 232.205 311.096L231.582 310.033C227.281 302.699 217.848 300.24 210.514 304.541Z" fill="#CDB4FF" stroke="#3E3E3E" stroke-miterlimit="10"/>
<path d="M226.373 299.169C224.629 296.192 215.686 298.194 206.411 303.633C197.135 309.073 191.028 315.898 192.773 318.875C194.518 321.851 203.46 319.85 212.736 314.41C222.011 308.971 228.118 302.145 226.373 299.169Z" fill="#F6F6F6" stroke="#3E3E3E" stroke-miterlimit="10"/>
<path d="M228.747 304.403C227.913 304.506 227.438 305.673 227.323 305.917C226.181 308.457 219.304 313.743 215.302 316.245C210.991 318.939 202.896 322.865 199.072 323.173C198.636 323.211 196.673 323.327 196.455 324.135C196.353 324.507 196.686 324.905 196.776 325.007C198.149 326.624 209.875 323.622 220.844 315.206C226.065 311.203 230.748 306.251 229.94 304.968C229.786 304.724 229.26 304.352 228.747 304.416V304.403Z" fill="#F6F6F6" stroke="#3E3E3E" stroke-miterlimit="10"/>
<path d="M210.511 309.713C213.824 307.77 214.095 302.078 211.116 296.999C208.138 291.92 203.038 289.378 199.725 291.32C196.412 293.263 196.141 298.955 199.12 304.034C202.099 309.113 207.199 311.656 210.511 309.713Z" fill="#3E3E3E"/>
<path d="M236.316 213.853C240.344 227.029 240.665 240.462 237.868 253.022C232.057 279.194 212.71 301.568 185.229 309.984C154.721 319.324 122.879 308.765 103.622 285.749C97.2198 278.09 92.2035 269.045 89.0988 258.91C76.6543 218.254 99.5291 175.224 140.173 162.78C143.508 161.753 146.857 160.971 150.205 160.432C187.564 154.222 224.667 176.404 236.201 213.52C236.239 213.635 236.278 213.751 236.316 213.866V213.853Z" fill="#F6F6F6" stroke="#3E3E3E" stroke-miterlimit="10"/>
<path d="M236.316 213.853C240.344 227.029 240.665 240.462 237.868 253.022C228.785 236.138 223.782 232.366 220.882 233.123C217.983 233.88 218.637 238.742 214.532 240.885C207.014 244.811 197.995 232.045 188.565 235.253C186.217 236.048 183.677 239.705 178.597 247.03C171.297 257.537 167.666 262.798 167.525 267.878C167.32 275.434 172.041 277.462 170.642 284.389C169.411 290.496 164.677 294.281 163.33 295.359C153.169 303.48 137.915 299.926 131.282 298.373C120.082 295.769 115.373 291.83 103.66 285.749C97.2583 278.09 92.242 269.045 89.1372 258.91C76.6927 218.254 99.5675 175.224 140.211 162.78C143.547 161.753 146.895 160.971 150.244 160.432C149.051 162.715 147.819 165.127 146.549 167.629C134.54 191.402 133.732 196.444 135.451 201.088C137.273 206.002 143.765 209.633 156.774 216.868C171.746 225.207 177.301 224.771 179.469 224.476C186.32 223.527 191.798 219.37 193.119 218.357C198.61 214.11 198.559 211.159 202.754 208.619C208.271 205.258 214.609 206.579 220.959 207.901C226.835 209.119 231.941 211.185 236.239 213.507C236.278 213.622 236.316 213.738 236.355 213.853H236.316Z" fill="#3E3E3E"/>
<path d="M127.325 180.217C132.533 177.472 135.982 173.778 135.028 171.966C134.073 170.155 129.076 170.912 123.867 173.657C118.658 176.402 115.21 180.096 116.164 181.907C117.119 183.719 122.116 182.962 127.325 180.217Z" fill="#CDB4FF" stroke="#3E3E3E" stroke-miterlimit="10"/>
<path d="M126.347 177.644C129.159 175.995 129.607 171.537 127.349 167.686C125.091 163.836 120.981 162.051 118.17 163.7C115.358 165.349 114.909 169.807 117.168 173.657C119.426 177.508 123.536 179.293 126.347 177.644Z" fill="#F6F6F6" stroke="#3E3E3E" stroke-miterlimit="10"/>
<path d="M243.205 180.741C243.667 180.972 244.142 181.177 244.642 181.357L267.209 189.311L270.789 190.568L285.324 195.7C292.085 198.086 299.578 194.507 301.964 187.733C304.35 180.959 300.771 173.479 293.997 171.093L275.459 164.55L255.83 157.635L253.328 156.75C252.866 156.583 252.391 156.442 251.929 156.339C245.566 154.864 238.92 158.405 236.701 164.704C234.494 170.965 237.394 177.841 243.218 180.715L243.205 180.741Z" fill="#CDB4FF" stroke="#3E3E3E" stroke-miterlimit="10"/>
<path d="M205.923 201.665C233.245 201.665 255.393 179.517 255.393 152.195C255.393 124.874 233.245 102.725 205.923 102.725C178.602 102.725 156.453 124.874 156.453 152.195C156.453 179.517 178.602 201.665 205.923 201.665Z" fill="#CDB4FF" stroke="#3E3E3E" stroke-miterlimit="10"/>
<path d="M205.923 192.672C228.278 192.672 246.4 174.55 246.4 152.195C246.4 129.841 228.278 111.719 205.923 111.719C183.569 111.719 165.447 129.841 165.447 152.195C165.447 174.55 183.569 192.672 205.923 192.672Z" fill="#CDB4FF" stroke="#3E3E3E" stroke-miterlimit="10"/>
<path d="M223.076 172.158C223.846 173.236 225.693 173.133 226.476 173.082C232.249 172.735 235.675 165.23 236.355 163.613C237.227 161.548 239.549 156.044 236.868 152.811C236.098 151.887 234.507 150.643 232.942 150.977C230.684 151.451 230.697 154.787 228.015 160.74C224.962 167.526 221.832 170.4 223.076 172.158Z" fill="#CDB4FF"/>
<path d="M232.386 145.007L232.397 145.001C234.41 144.038 235.262 141.625 234.298 139.612L231.962 134.728C230.998 132.715 228.585 131.863 226.572 132.827L226.56 132.832C224.547 133.796 223.696 136.209 224.659 138.222L226.996 143.106C227.959 145.119 230.372 145.97 232.386 145.007Z" fill="#CDB4FF"/>
<path d="M244.476 177.148C244.937 177.379 245.412 177.585 245.912 177.764L268.479 185.719L272.059 186.976L286.594 192.108C293.356 194.494 300.848 190.914 303.234 184.141C305.62 177.379 302.041 169.887 295.267 167.501L276.729 160.958L257.1 154.043L254.598 153.158C254.136 152.991 253.661 152.85 253.2 152.747C246.836 151.272 240.191 154.813 237.971 161.112C235.764 167.372 238.664 174.249 244.488 177.123L244.476 177.148Z" fill="#F6F6F6" stroke="#3E3E3E" stroke-width="0.5" stroke-miterlimit="10"/>
<path d="M254.213 151.015C256.279 150.823 261.128 160.021 258.344 167.988C255.56 175.943 246.054 180.099 244.488 178.611C243.27 177.456 247.401 173.402 250.8 162.626C253.251 154.851 252.93 151.143 254.226 151.015H254.213Z" fill="#3E3E3E" stroke="#3E3E3E" stroke-width="0.5" stroke-miterlimit="10"/>
<path d="M207.193 198.06C234.515 198.06 256.663 175.912 256.663 148.59C256.663 121.269 234.515 99.1201 207.193 99.1201C179.872 99.1201 157.723 121.269 157.723 148.59C157.723 175.912 179.872 198.06 207.193 198.06Z" fill="#BFFFD6" stroke="#3E3E3E" stroke-width="0.5" stroke-miterlimit="10"/>
<path d="M207.193 189.067C229.548 189.067 247.67 170.945 247.67 148.59C247.67 126.236 229.548 108.114 207.193 108.114C184.839 108.114 166.717 126.236 166.717 148.59C166.717 170.945 184.839 189.067 207.193 189.067Z" fill="#F6F6F6" stroke="#3E3E3E" stroke-width="0.5" stroke-miterlimit="10"/>
<path d="M268.479 185.719L272.059 186.976C276.908 181.459 281.424 169.836 280.731 162.382L276.741 160.971C276.985 164.409 277.332 169.4 275.664 174.377C274.009 179.291 270.763 183.076 268.492 185.719H268.479Z" fill="#3E3E3E" stroke="#3E3E3E" stroke-width="0.75" stroke-miterlimit="10"/>
<path d="M224.346 168.553C225.116 169.63 226.963 169.528 227.746 169.477C233.519 169.13 236.945 161.625 237.625 160.008C238.497 157.943 240.819 152.439 238.138 149.206C237.368 148.282 235.777 147.038 234.212 147.371C231.954 147.846 231.967 151.182 229.286 157.135C226.232 163.921 223.102 166.795 224.346 168.553Z" fill="#3E3E3E" stroke="#3E3E3E" stroke-width="0.5" stroke-miterlimit="10"/>
<path d="M233.655 141.405L233.667 141.399C235.68 140.436 236.531 138.023 235.568 136.009L233.231 131.126C232.268 129.112 229.855 128.261 227.842 129.224L227.83 129.23C225.817 130.193 224.966 132.606 225.929 134.62L228.266 139.503C229.229 141.517 231.642 142.368 233.655 141.405Z" fill="#3E3E3E" stroke="#3E3E3E" stroke-width="0.5" stroke-miterlimit="10"/>
</svg>
