<svg width="295" height="414" viewBox="0 0 295 414" fill="none" xmlns="http://www.w3.org/2000/svg">
<path d="M230.38 198.955L92.327 149.959C70.9874 142.386 47.5487 153.545 39.9752 174.885L13.7131 248.883C6.13954 270.222 17.2991 293.661 38.6387 301.235L176.692 350.23C198.032 357.804 221.47 346.644 229.044 325.305L255.306 251.307C262.88 229.967 251.72 206.529 230.38 198.955Z" fill="#3E3E3E"/>
<path d="M184.555 219.188L110.472 192.896C89.1329 185.322 65.6942 196.482 58.1207 217.821L54.8596 227.01C47.2861 248.349 58.4457 271.788 79.7853 279.362L153.868 305.654C175.208 313.227 198.646 302.068 206.22 280.728L209.481 271.54C217.054 250.2 205.895 226.761 184.555 219.188Z" fill="#BFFFD6"/>
<path d="M291.972 371.515C285.332 377.515 244.532 419.235 238.152 412.855C235.592 410.295 238.402 404.995 239.442 402.215C242.102 396.225 245.212 390.585 248.132 384.865C250.902 379.325 254.082 373.495 255.542 367.575C255.732 366.635 256.012 364.965 255.542 364.305C255.402 364.105 255.222 364.105 254.902 364.055C251.442 364.295 248.252 366.525 245.052 368.375C236.982 373.445 229.312 379.495 221.322 384.865C216.982 387.615 212.942 390.705 207.662 391.965C202.632 392.955 200.382 388.925 201.382 384.485C203.472 375.525 208.472 367.535 212.632 359.585C215.752 353.925 218.952 348.335 221.992 342.715C223.512 339.905 224.992 337.095 226.322 334.275C227.302 332.055 228.482 329.765 228.732 327.475C228.802 328.195 229.762 328.925 230.402 328.935C230.772 328.945 230.662 328.915 230.512 328.985C228.772 329.735 227.072 331.225 225.432 332.495C220.492 336.565 215.722 341.015 210.572 344.975C206.382 348.085 202.002 351.425 196.522 352.585C172.162 355.645 191.212 303.625 188.522 290.755C188.492 290.645 188.462 290.705 188.632 290.935C188.772 291.135 189.312 291.625 189.872 291.745C190.442 291.895 190.802 291.805 190.892 291.785C191.002 291.745 190.892 291.795 190.762 291.875C188.152 293.785 186.102 296.705 183.882 299.615C178.862 306.215 174.912 313.585 169.092 319.725C166.112 322.785 161.112 322.705 159.452 318.205C158.972 316.825 159.052 315.305 159.202 314.035C159.752 310.275 160.732 307.335 161.752 303.895C163.622 297.765 165.792 291.695 167.502 285.615C168.072 283.705 168.692 280.815 168.792 279.535C168.902 279.965 169.112 280.405 169.462 280.825C170.412 282.005 172.302 282.595 173.662 281.945C169.702 285.275 166.532 289.985 163.102 294.105C159.862 298.035 156.872 302.035 152.872 305.535C151.902 306.365 149.642 307.975 147.682 307.965C146.022 308.165 143.622 306.965 142.822 305.315C142.552 304.905 142.402 304.415 142.232 303.955C141.572 301.465 142.052 299.285 142.492 296.985C144.302 288.965 147.252 281.385 149.502 273.575C150.592 269.475 152.112 264.935 151.832 260.965C151.812 260.755 151.762 260.635 151.762 260.585C151.762 260.565 151.802 260.675 151.992 260.815C152.172 260.975 152.452 261.085 152.582 261.085C152.732 261.085 152.672 261.075 152.562 261.085C151.712 261.275 150.342 261.905 149.462 262.525C139.662 269.175 131.922 278.775 122.472 286.145C121.202 287.065 120.062 287.955 118.242 288.295C116.932 288.535 115.342 287.645 114.982 286.345C114.512 284.705 114.882 284.025 115.152 282.735C116.182 279.385 117.712 276.585 119.272 273.565C123.872 265.005 129.092 256.825 134.402 248.715L135.182 249.175C130.072 259.155 124.702 269.045 120.512 279.435C119.862 281.115 119.002 283.665 118.992 284.885C118.972 284.845 118.922 284.685 118.812 284.565C118.622 284.285 118.172 284.025 117.862 284.005C117.742 283.985 117.692 283.985 117.632 284.005C118.822 283.415 120.202 282.045 121.312 281.045C128.262 274.275 134.322 266.915 141.742 260.325C143.712 258.615 145.772 256.895 148.162 255.595C150.452 254.265 154.102 253.465 156.482 255.595C162.472 260.475 155.762 278.425 154.232 285.015C152.842 290.435 150.622 296.355 150.372 301.595C150.302 301.295 150.152 301.025 149.962 300.765C149.282 299.735 147.612 299.185 146.582 299.565C147.572 298.845 148.992 297.285 150.162 295.935C154.232 291.125 157.952 285.845 162.032 280.855C164.242 278.295 166.232 275.535 169.382 273.725C172.712 271.855 176.802 273.435 177.782 277.195C178.622 281.065 177.332 284.585 176.492 288.095C174.942 293.635 172.422 301.165 170.632 306.665C169.752 309.585 168.592 312.935 168.292 315.795C168.072 313.815 165.652 312.245 163.682 312.715C163.362 312.765 163.032 312.915 162.842 313.005C165.392 310.485 168.522 305.805 171.102 302.275C173.972 298.305 176.872 294.235 180.112 290.455C182.462 287.865 184.902 284.905 188.582 283.745C193.902 282.325 196.882 286.925 196.902 291.575C197.822 303.285 186.762 337.885 193.182 345.485C196.552 347.055 203.482 341.745 206.492 339.635C211.612 335.825 216.352 331.555 221.422 327.525C223.602 325.865 225.622 324.175 228.402 323.095C230.292 322.285 233.272 322.735 234.322 325.035C236.822 329.705 229.332 341.055 227.082 345.535C220.232 358.075 211.872 370.035 206.862 383.355C206.492 384.625 205.992 386.195 206.212 387.315C206.192 387.315 206.102 387.155 206.012 387.145C207.302 387.185 209.052 386.465 210.632 385.695C213.342 384.355 216.042 382.685 218.712 380.965C226.842 375.685 234.502 369.925 242.912 364.885C246.752 362.805 250.542 360.205 255.182 360.255C259.462 360.585 260.012 365.085 259.052 368.355C257.272 374.925 254.002 380.455 250.932 386.335C247.872 392.015 244.632 397.595 241.932 403.325C241.012 405.415 240.012 407.525 239.692 409.735C239.582 410.395 239.752 410.945 239.792 410.905C239.812 410.915 239.902 410.975 240.122 410.995C240.242 410.995 240.372 410.995 240.512 410.985L240.972 410.905C243.122 410.335 245.142 409.105 247.072 407.915C252.402 404.495 257.422 400.455 262.382 396.385C272.282 388.195 281.832 379.555 291.302 370.835L291.922 371.485L291.972 371.515Z" fill="#3E3E3E"/>
<path d="M294.582 370.415C287.942 376.415 247.142 418.135 240.762 411.755C238.202 409.195 241.012 403.895 242.052 401.115C244.712 395.125 247.822 389.485 250.742 383.765C253.512 378.225 256.692 372.395 258.152 366.475C258.342 365.535 258.622 363.865 258.152 363.205C258.012 363.005 257.832 363.005 257.512 362.955C254.052 363.195 250.862 365.425 247.662 367.275C239.592 372.345 231.922 378.395 223.932 383.765C219.592 386.515 215.552 389.605 210.272 390.865C205.242 391.855 202.992 387.835 203.992 383.385C206.082 374.425 211.082 366.435 215.242 358.485C218.362 352.825 221.562 347.235 224.602 341.615C226.122 338.805 227.602 335.995 228.932 333.175C229.912 330.955 231.092 328.665 231.342 326.375C231.412 327.095 232.372 327.825 233.012 327.835C233.382 327.845 233.272 327.815 233.122 327.885C231.382 328.635 229.682 330.125 228.042 331.395C223.102 335.465 218.332 339.915 213.182 343.875C208.992 346.985 204.612 350.325 199.132 351.485C174.772 354.545 193.822 302.525 191.132 289.655C191.102 289.545 191.072 289.605 191.242 289.835C191.382 290.035 191.922 290.525 192.482 290.645C193.052 290.795 193.412 290.705 193.502 290.685C193.612 290.645 193.502 290.695 193.372 290.775C190.762 292.685 188.712 295.605 186.492 298.515C181.472 305.115 177.522 312.485 171.702 318.625C168.722 321.685 163.722 321.605 162.062 317.105C161.582 315.725 161.662 314.205 161.812 312.935C162.362 309.175 163.342 306.235 164.362 302.795C166.232 296.665 168.402 290.595 170.112 284.515C170.682 282.605 171.302 279.715 171.402 278.435C171.512 278.865 171.722 279.305 172.072 279.725C173.022 280.905 174.912 281.495 176.272 280.845C172.312 284.175 169.142 288.885 165.712 293.005C162.472 296.935 159.482 300.935 155.482 304.435C154.512 305.265 152.252 306.875 150.292 306.865C148.632 307.065 146.232 305.865 145.432 304.215C145.162 303.805 145.012 303.315 144.842 302.855C144.182 300.365 144.662 298.185 145.102 295.885C146.912 287.865 149.862 280.285 152.112 272.475C153.202 268.375 154.722 263.835 154.442 259.865C154.422 259.655 154.372 259.535 154.372 259.485C154.372 259.465 154.412 259.575 154.602 259.715C154.782 259.875 155.062 259.985 155.192 259.985C155.342 259.985 155.282 259.975 155.172 259.985C154.322 260.175 152.952 260.805 152.072 261.425C142.272 268.075 134.532 277.675 125.082 285.045C123.812 285.965 122.672 286.855 120.852 287.195C119.542 287.435 117.952 286.545 117.592 285.245C117.122 283.605 117.492 282.925 117.762 281.635C118.792 278.285 120.322 275.485 121.882 272.465C126.482 263.905 131.702 255.725 137.012 247.615L137.792 248.075C132.682 258.055 127.312 267.945 123.122 278.335C122.472 280.015 121.612 282.565 121.602 283.785C121.582 283.745 121.532 283.585 121.422 283.465C121.232 283.175 120.782 282.925 120.472 282.905C120.352 282.885 120.302 282.885 120.242 282.905C121.432 282.315 122.812 280.945 123.922 279.945C130.872 273.175 136.932 265.815 144.352 259.225C146.322 257.515 148.382 255.795 150.772 254.495C153.062 253.165 156.712 252.365 159.092 254.495C165.082 259.375 158.372 277.325 156.842 283.915C155.452 289.325 153.232 295.255 152.982 300.495L152.922 300.295C152.862 300.165 152.812 300.045 152.742 299.915C152.112 298.735 150.332 298.055 149.192 298.475C150.182 297.755 151.602 296.195 152.772 294.845C156.842 290.035 160.562 284.755 164.642 279.765C166.852 277.205 168.842 274.445 171.992 272.635C175.322 270.765 179.412 272.345 180.392 276.105C181.232 279.975 179.942 283.495 179.102 287.005C177.552 292.545 175.032 300.075 173.242 305.575C172.362 308.495 171.202 311.845 170.902 314.705C170.682 312.725 168.262 311.155 166.292 311.625C165.972 311.675 165.642 311.825 165.452 311.915C168.002 309.395 171.132 304.715 173.712 301.185C176.582 297.215 179.482 293.145 182.722 289.365C185.072 286.775 187.512 283.815 191.192 282.655C196.512 281.235 199.492 285.835 199.512 290.485C200.432 302.195 189.372 336.795 195.792 344.395C199.162 345.965 206.092 340.655 209.102 338.545C214.222 334.735 218.962 330.465 224.032 326.435C226.212 324.775 228.232 323.085 231.012 322.005C232.902 321.195 235.882 321.645 236.932 323.945C239.432 328.615 231.942 339.965 229.692 344.445C222.842 356.985 214.482 368.945 209.472 382.265C209.102 383.535 208.602 385.105 208.822 386.225C208.802 386.225 208.712 386.065 208.622 386.055C209.912 386.095 211.662 385.375 213.242 384.605C215.952 383.265 218.652 381.595 221.322 379.875C229.452 374.595 237.112 368.835 245.522 363.795C249.362 361.715 253.152 359.115 257.792 359.165C262.072 359.495 262.622 363.995 261.662 367.265C259.882 373.835 256.612 379.365 253.542 385.245C250.482 390.925 247.242 396.505 244.542 402.235C243.622 404.325 242.622 406.435 242.302 408.645C242.192 409.305 242.362 409.855 242.402 409.815C242.422 409.825 242.512 409.885 242.732 409.905C242.852 409.905 242.982 409.905 243.122 409.895L243.582 409.815C245.732 409.245 247.752 408.015 249.682 406.825C255.012 403.405 260.032 399.365 264.992 395.295C274.892 387.105 284.442 378.465 293.912 369.745L294.532 370.395L294.582 370.415Z" fill="#CDB4FF"/>
<path d="M243.772 130.675L242.462 132.945L234.872 146.085L177.922 244.715L177.632 245.215L176.112 247.845L175.162 248.135C175.162 248.135 175.152 248.125 175.152 248.115C175.152 248.085 175.122 248.055 175.112 248.015C174.132 245.465 172.202 240.985 168.802 235.915C168.742 235.815 168.682 235.715 168.612 235.625C167.362 233.775 165.922 231.855 164.252 229.925C164.182 229.845 164.112 229.765 164.042 229.685C162.852 228.305 161.542 226.925 160.122 225.595C159.992 225.475 159.872 225.355 159.772 225.255C159.682 225.165 159.592 225.085 159.532 225.025C159.392 224.885 159.302 224.805 159.282 224.785C159.282 224.775 158.972 224.505 158.562 224.125C156.772 222.465 154.752 220.885 152.522 219.425C152.462 219.375 152.402 219.335 152.352 219.305C152.282 219.265 152.222 219.225 152.182 219.195C135.442 207.935 118.242 208.535 112.142 209.095L112.822 207.915L113.162 207.325L169.622 109.525L177.192 96.405L179.002 93.275C182.302 87.565 189.682 85.585 195.392 88.885L239.382 114.275C245.102 117.575 247.072 124.955 243.772 130.675Z" fill="white"/>
<path d="M175.162 248.135C175.162 248.135 175.152 248.125 175.152 248.115C175.152 248.085 175.122 248.055 175.112 248.015C174.622 246.875 172.152 241.135 168.802 235.915C168.742 235.815 168.682 235.715 168.612 235.625C167.362 233.775 165.922 231.855 164.252 229.925C164.182 229.845 164.112 229.765 164.042 229.685C162.552 228.035 161.032 226.505 160.122 225.595C159.992 225.475 159.872 225.355 159.772 225.255C159.682 225.165 159.592 225.085 159.532 225.025C159.392 224.885 159.302 224.805 159.282 224.785C159.282 224.775 158.972 224.505 158.562 224.125C157.322 223.035 156.012 221.955 154.602 220.905C153.742 220.265 152.982 219.735 152.522 219.425C152.462 219.375 152.402 219.335 152.352 219.305C152.282 219.265 152.222 219.225 152.182 219.195C135.442 207.935 118.242 208.535 112.142 209.095L111.522 210.155C112.202 213.265 112.912 216.405 113.642 219.575C114.452 223.075 115.272 226.535 116.112 229.955L123.932 263.785L157.122 253.645C163.142 251.825 169.162 250.015 175.182 248.195C175.172 248.185 175.172 248.165 175.162 248.135Z" fill="white"/>
<path d="M168.612 235.625C167.362 233.775 165.922 231.855 164.252 229.925C164.932 230.675 165.592 231.455 166.182 232.195C167.032 233.265 167.852 234.425 168.612 235.625Z" fill="white"/>
<path d="M142.282 258.075L135.042 260.285L123.562 263.795L120.862 252.095L119.142 244.655C120.042 244.335 127.492 241.865 134.542 246.405C140.782 250.425 142.082 256.955 142.292 258.075H142.282Z" fill="white"/>
<path d="M250.682 109.515C250.682 117.635 247.922 125.125 243.242 131.165C240.282 134.995 236.572 138.245 232.292 140.695C224.692 132.975 213.672 124.075 198.642 117.375C190.352 113.675 182.382 111.325 175.172 109.865V109.525C175.172 104.775 176.122 100.235 177.842 96.075C183.392 82.675 197.012 73.205 212.922 73.205C233.762 73.205 250.672 89.475 250.672 109.525L250.682 109.515Z" fill="white"/>
<path d="M167.032 233.395L167.062 233.355L227.182 132.195" fill="white"/>
<path d="M242.462 132.945L234.872 146.085C233.752 144.765 232.512 143.375 231.162 141.955C223.712 134.095 212.912 125.025 198.182 118.195C190.052 114.425 182.242 112.035 175.182 110.545C173.272 110.145 171.412 109.805 169.622 109.525L177.192 96.4049C177.392 96.4349 177.592 96.4649 177.802 96.4949C191.022 98.5049 208.562 103.585 225.182 116.195C232.062 121.415 237.562 126.995 241.892 132.245C242.082 132.475 242.282 132.715 242.462 132.945Z" fill="white"/>
<path d="M243.772 130.675L242.462 132.945L234.872 146.085L177.922 244.715L177.632 245.215L176.112 247.845L175.162 248.135C175.162 248.135 175.152 248.125 175.152 248.115C175.152 248.085 175.122 248.055 175.112 248.015C174.132 245.465 172.202 240.985 168.802 235.915C168.742 235.815 168.682 235.715 168.612 235.625C167.362 233.775 165.922 231.855 164.252 229.925C164.182 229.845 164.112 229.765 164.042 229.685C162.852 228.305 161.542 226.925 160.122 225.595C159.992 225.475 159.872 225.355 159.772 225.255C159.682 225.165 159.592 225.085 159.532 225.025C159.392 224.885 159.302 224.805 159.282 224.785C159.282 224.775 158.972 224.505 158.562 224.125C156.772 222.465 154.752 220.885 152.522 219.425C152.462 219.375 152.402 219.335 152.352 219.305C152.282 219.265 152.222 219.225 152.182 219.195C135.442 207.935 118.242 208.535 112.142 209.095L112.822 207.915L113.162 207.325L169.622 109.525L177.192 96.405L179.002 93.275C182.302 87.565 189.682 85.585 195.392 88.885L239.382 114.275C245.102 117.575 247.072 124.955 243.772 130.675Z" stroke="#3E3E3E" stroke-miterlimit="10"/>
<path d="M175.162 248.135C175.162 248.135 175.152 248.125 175.152 248.115C175.152 248.085 175.122 248.055 175.112 248.015C174.622 246.875 172.152 241.135 168.802 235.915C168.742 235.815 168.682 235.715 168.612 235.625C167.362 233.775 165.922 231.855 164.252 229.925C164.182 229.845 164.112 229.765 164.042 229.685C162.552 228.035 161.032 226.505 160.122 225.595C159.992 225.475 159.872 225.355 159.772 225.255C159.682 225.165 159.592 225.085 159.532 225.025C159.392 224.885 159.302 224.805 159.282 224.785C159.282 224.775 158.972 224.505 158.562 224.125C157.322 223.035 156.012 221.955 154.602 220.905C153.742 220.265 152.982 219.735 152.522 219.425C152.462 219.375 152.402 219.335 152.352 219.305C152.282 219.265 152.222 219.225 152.182 219.195C135.442 207.935 118.242 208.535 112.142 209.095L111.522 210.155C112.202 213.265 112.912 216.405 113.642 219.575C114.452 223.075 115.272 226.535 116.112 229.955L123.932 263.785L157.122 253.645C163.142 251.825 169.162 250.015 175.182 248.195C175.172 248.185 175.172 248.165 175.162 248.135Z" stroke="#3E3E3E" stroke-miterlimit="10"/>
<path d="M168.612 235.625C167.362 233.775 165.922 231.855 164.252 229.925C164.932 230.675 165.592 231.455 166.182 232.195C167.032 233.265 167.852 234.425 168.612 235.625Z" stroke="#3E3E3E" stroke-miterlimit="10"/>
<path d="M142.282 258.075L135.042 260.285L123.562 263.795L120.862 252.095L119.142 244.655C120.042 244.335 127.492 241.865 134.542 246.405C140.782 250.425 142.082 256.955 142.292 258.075H142.282Z" fill="#3E3E3E"/>
<path d="M250.682 109.515C250.682 117.635 247.922 125.125 243.242 131.165C240.282 134.995 236.572 138.245 232.292 140.695C224.692 132.975 213.672 124.075 198.642 117.375C190.352 113.675 182.382 111.325 175.172 109.865V109.525C175.172 104.775 176.122 100.235 177.842 96.075C183.392 82.675 197.012 73.205 212.922 73.205C233.762 73.205 250.672 89.475 250.672 109.525L250.682 109.515Z" fill="#CDB4FF" stroke="#3E3E3E" stroke-miterlimit="10"/>
<path d="M184.182 107.195L125.552 209.335" stroke="#3E3E3E" stroke-miterlimit="10"/>
<path d="M208.182 120.195L151.572 218.815" stroke="#3E3E3E" stroke-miterlimit="10"/>
<path d="M167.032 233.395L167.062 233.355L227.182 132.195" stroke="#3E3E3E" stroke-miterlimit="10"/>
<path d="M242.462 132.945L234.872 146.085C233.752 144.765 232.512 143.375 231.162 141.955C223.712 134.095 212.912 125.025 198.182 118.195C190.052 114.425 182.242 112.035 175.182 110.545C173.272 110.145 171.412 109.805 169.622 109.525L177.192 96.4049C177.392 96.4349 177.592 96.4649 177.802 96.4949C191.022 98.5049 208.562 103.585 225.182 116.195C232.062 121.415 237.562 126.995 241.892 132.245C242.082 132.475 242.282 132.715 242.462 132.945Z" fill="#3E3E3E"/>

<g id="x-create">
<path d="M104.604 13.5539L32.3975 87.0061C27.7514 91.7323 27.8164 99.33 32.5426 103.976L41.8275 113.103C46.5537 117.75 54.1514 117.685 58.7975 112.958L131.004 39.5061C135.65 34.7799 135.585 27.1822 130.859 22.5362L121.574 13.4087C116.848 8.76269 109.25 8.82767 104.604 13.5539Z" fill="#3E3E3E"/>
<path d="M31.9914 40.3634L105.444 112.57C110.17 117.216 117.767 117.151 122.414 112.425L131.541 103.14C136.187 98.4136 136.122 90.8159 131.396 86.1699L57.9436 13.9634C53.2174 9.31738 45.6197 9.38235 40.9737 14.1085L31.8462 23.3935C27.2002 28.1197 27.2652 35.7174 31.9914 40.3634Z" fill="#3E3E3E"/>
<path d="M98.6021 8.55753L26.3956 82.0097C21.7496 86.7359 21.8146 94.3336 26.5408 98.9797L35.8257 108.107C40.5519 112.753 48.1496 112.688 52.7956 107.962L125.002 34.5098C129.648 29.7836 129.583 22.1859 124.857 17.5399L115.572 8.4124C110.846 3.76636 103.248 3.83133 98.6021 8.55753Z" fill="#CDB4FF" stroke="#3E3E3E" stroke-miterlimit="10"/>
<path d="M25.995 35.3654L99.4472 107.572C104.173 112.218 111.771 112.153 116.417 107.427L125.545 98.1418C130.191 93.4156 130.126 85.8179 125.399 81.1718L51.9472 8.96537C47.221 4.31933 39.6233 4.38431 34.9773 9.11051L25.8498 18.3954C21.2038 23.1216 21.2688 30.7193 25.995 35.3654Z" fill="#CDB4FF" stroke="#3E3E3E" stroke-miterlimit="10"/>
</g>
</svg>
