<svg width="172" height="175" viewBox="0 0 172 175" fill="none" xmlns="http://www.w3.org/2000/svg">
<path d="M76.873 127.31C76.4501 127.854 75.9909 128.386 75.4834 128.893L52.7541 151.622L49.1531 155.223L34.5199 169.869C27.7047 176.684 16.5515 176.684 9.73637 169.869C2.92121 163.053 2.92121 151.9 9.73637 145.085L28.4056 126.416L48.1865 106.647L50.7119 104.122C51.1832 103.65 51.6665 103.215 52.1741 102.817C59.0375 97.3427 69.1395 97.7777 75.4834 104.122C81.791 110.429 82.2623 120.447 76.873 127.31Z" fill="#CDB4FF"/>
<path d="M49.9148 101.294C47.2927 102.261 46.7489 116.217 54.7483 124.253C62.7355 132.276 76.668 131.805 77.7072 129.086C78.5168 126.972 71.1578 124.47 60.7901 113.378C53.3224 105.378 51.5461 100.69 49.9148 101.294Z" fill="#CDB4FF"/>
<path d="M105.499 137.545C142.204 137.545 171.959 107.79 171.959 71.085C171.959 34.3802 142.204 4.62512 105.499 4.62512C68.7942 4.62512 39.0391 34.3802 39.0391 71.085C39.0391 107.79 68.7942 137.545 105.499 137.545Z" fill="#CDB4FF"/>
<path d="M105.499 125.461C135.531 125.461 159.876 101.116 159.876 71.085C159.876 41.0538 135.531 16.7087 105.499 16.7087C75.4682 16.7087 51.123 41.0538 51.123 71.085C51.123 101.116 75.4682 125.461 105.499 125.461Z" fill="#CDB4FF"/>
<path d="M52.7542 151.622L49.1533 155.223C40.0785 151.357 27.8619 139.889 24.3818 130.44L28.4057 126.416C30.1095 130.73 32.5745 136.977 37.4926 142.04C42.3502 147.031 48.4766 149.737 52.7542 151.622Z" fill="#CDB4FF"/>
<path d="M96.2795 105.233C95.9774 106.985 93.6695 107.928 92.7028 108.327C85.5009 111.251 77.0062 104.146 75.2419 102.575C72.9823 100.569 66.9767 95.2522 68.3543 89.7784C68.753 88.2075 69.9614 85.7787 72.0398 85.2712C75.0607 84.5462 76.9578 88.5942 83.6642 94.2493C91.3011 100.69 96.7629 102.37 96.2795 105.233Z" fill="#CDB4FF"/>
<path d="M74.6858 65.0432C74.6858 62.0401 72.2513 59.6056 69.2482 59.6056C66.2451 59.6056 63.8105 62.0401 63.8105 65.0432V72.2934C63.8105 75.2965 66.2451 77.731 69.2482 77.731C72.2513 77.731 74.6858 75.2965 74.6858 72.2934V65.0432Z" fill="#CDB4FF"/>
<path d="M73.248 123.685C72.8251 124.229 72.3659 124.761 71.8584 125.268L49.1291 147.997L45.5281 151.598L30.8949 166.244C24.0797 173.059 12.9265 173.059 6.11137 166.244C-0.703791 159.428 -0.703791 148.275 6.11137 141.46L24.7806 122.791L44.5615 103.022L47.0869 100.497C47.5582 100.025 48.0415 99.5904 48.5491 99.1916C55.4125 93.7177 65.5145 94.1527 71.8584 100.497C78.166 106.804 78.6373 116.822 73.248 123.685Z" fill="#F6F6F6" stroke="#3E3E3E" stroke-width="0.5" stroke-miterlimit="10"/>
<path d="M46.2898 97.669C43.6677 98.6357 43.1239 112.592 51.1233 120.628C59.1105 128.651 73.043 128.18 74.0822 125.461C74.8918 123.347 67.5328 120.845 57.1651 109.753C49.6974 101.753 47.9211 97.0649 46.2898 97.669Z" fill="#3E3E3E" stroke="#3E3E3E" stroke-width="0.5" stroke-miterlimit="10"/>
<path d="M101.874 133.92C138.579 133.92 168.334 104.165 168.334 67.4599C168.334 30.7551 138.579 1 101.874 1C65.1692 1 35.4141 30.7551 35.4141 67.4599C35.4141 104.165 65.1692 133.92 101.874 133.92Z" fill="#BFFFD6" stroke="#3E3E3E" stroke-width="0.5" stroke-miterlimit="10"/>
<path d="M101.874 121.836C131.905 121.836 156.25 97.4911 156.25 67.4599C156.25 37.4287 131.905 13.0836 101.874 13.0836C71.8427 13.0836 47.4976 37.4287 47.4976 67.4599C47.4976 97.4911 71.8427 121.836 101.874 121.836Z" fill="#F6F6F6" stroke="#3E3E3E" stroke-width="0.5" stroke-miterlimit="10"/>
<path d="M49.1292 147.997L45.5283 151.598C36.4535 147.731 24.2369 136.264 20.7568 126.815L24.7807 122.791C26.4845 127.105 28.9495 133.352 33.8676 138.415C38.7252 143.406 44.8516 146.112 49.1292 147.997Z" fill="#3E3E3E" stroke="#3E3E3E" stroke-width="0.75" stroke-miterlimit="10"/>
<path d="M92.6545 101.608C92.3524 103.36 90.0445 104.303 89.0778 104.702C81.8759 107.626 73.3812 100.521 71.6169 98.9498C69.3573 96.9439 63.3517 91.6271 64.7293 86.1532C65.128 84.5824 66.3364 82.1536 68.4148 81.6461C71.4357 80.921 73.3328 84.969 80.0392 90.6242C87.6761 97.0648 93.1379 98.7444 92.6545 101.608Z" fill="#3E3E3E" stroke="#3E3E3E" stroke-width="0.5" stroke-miterlimit="10"/>
<path d="M71.0608 61.4181C71.0608 58.415 68.6263 55.9805 65.6232 55.9805C62.6201 55.9805 60.1855 58.415 60.1855 61.4181V68.6683C60.1855 71.6714 62.6201 74.1059 65.6232 74.1059C68.6263 74.1059 71.0608 71.6714 71.0608 68.6683V61.4181Z" fill="#3E3E3E" stroke="#3E3E3E" stroke-width="0.5" stroke-miterlimit="10"/>
</svg>
