<svg width="50" height="50" viewBox="0 0 211 208" fill="none" xmlns="http://www.w3.org/2000/svg">
<path d="M193.166 94C193.166 144.26 152.426 185 102.166 185C99.9355 185 97.7255 184.92 95.5455 184.75C48.3755 181.37 11.1655 142.03 11.1655 94C11.1655 86.65 12.0355 79.5 13.6855 72.66C13.9855 71.4 14.3055 70.16 14.6655 68.93C16.9655 60.88 20.3355 53.29 24.6355 46.33C37.9555 24.72 60.0455 9.1 85.9555 4.44C91.2155 3.49 96.6355 3 102.166 3C133.056 3 160.356 18.39 176.796 41.93C187.116 56.68 193.166 74.63 193.166 94Z" fill="#F6F6F6" stroke="#3E3E3E" stroke-miterlimit="10"/>
<path d="M101.166 1C95.6356 1 90.2156 1.49 84.9556 2.44C59.0456 7.1 36.9556 22.72 23.6356 44.33C19.3356 51.29 15.9656 58.88 13.6656 66.93C13.4356 67.81 13.0856 69.1 12.6856 70.66C9.67557 82.34 4.50557 102.97 2.16557 130C0.245575 152.17 1.02557 170.8 2.16557 184C14.5956 190.71 32.1456 198.42 54.1656 203C69.3856 206.17 83.0256 207.06 94.1656 207C94.2956 198.92 94.4156 190.83 94.5456 182.75C95.0656 149.58 95.5856 116.42 96.1056 83.25C134.036 79.24 164.856 61.88 175.796 39.93C159.356 16.39 132.056 1 101.166 1Z" fill="#CDB4FF" stroke="#3E3E3E" stroke-miterlimit="10"/>
<path d="M137.666 119C146.778 119 154.166 111.613 154.166 102.5C154.166 93.3873 146.778 86 137.666 86C128.553 86 121.166 93.3873 121.166 102.5C121.166 111.613 128.553 119 137.666 119Z" fill="#3E3E3E" stroke="#3E3E3E" stroke-miterlimit="10"/>
<path d="M193.666 119C202.778 119 210.166 111.613 210.166 102.5C210.166 93.3873 202.778 86 193.666 86C184.553 86 177.166 93.3873 177.166 102.5C177.166 111.613 184.553 119 193.666 119Z" fill="#3E3E3E" stroke="#3E3E3E" stroke-miterlimit="10"/>
<path d="M154.666 102.5H177.666" stroke="#3E3E3E" stroke-miterlimit="10"/>
</svg>
