<svg width="50" height="50" viewBox="0 0 213 215" fill="none" xmlns="http://www.w3.org/2000/svg">
<path d="M1 121.5C1 172.59 42.41 214 93.5 214C123.75 214 150.6 199.48 167.48 177.04C179.11 161.57 186 142.34 186 121.5C186 70.41 144.59 29 93.5 29C72.38 29 52.91 36.08 37.34 48C15.25 64.9 1 91.53 1 121.5Z" fill="#F6F6F6" stroke="#3E3E3E" stroke-miterlimit="10"/>
<path d="M37.3398 48C38.8698 59.3 43.2398 71.61 50.9998 82C58.3898 91.9 67.1198 97.75 72.9998 101H111C120.64 106.37 125.79 115.92 124 124C122.36 131.4 115.29 135.82 115 136C108.98 139.66 104.88 137.48 103 140C99.2198 145.05 108.78 163.04 123 172C136.62 180.58 153.69 180.34 167.48 177.04C179.11 161.57 186 142.34 186 121.5C186 100.78 179.18 81.64 167.67 66.21C171.07 67.37 174.71 68 178.5 68C197 68 212 53 212 34.5C212 16 197 1 178.5 1C160 1 145 16 145 34.5C145 38.56 145.72 42.45 147.04 46.06C131.93 35.31 113.45 29 93.4998 29C72.3798 29 52.9098 36.08 37.3398 48Z" fill="#BFFFD6" stroke="#3E3E3E" stroke-miterlimit="10"/>
<path d="M38.5 124C43.1944 124 47 120.194 47 115.5C47 110.806 43.1944 107 38.5 107C33.8056 107 30 110.806 30 115.5C30 120.194 33.8056 124 38.5 124Z" fill="#3E3E3E" stroke="#3E3E3E" stroke-miterlimit="10"/>
</svg>
