<svg width="50" height="50" viewBox="0 0 184 199" fill="none" xmlns="http://www.w3.org/2000/svg">
<path d="M183 107.42C183 157.68 142.26 198.42 92.0002 198.42C62.5802 198.42 36.4202 184.46 19.7902 162.8C18.9802 161.75 18.2002 160.68 17.4402 159.59C10.8502 150.21 6.00021 139.53 3.34021 128.01C2.79021 125.62 2.33021 123.18 1.97021 120.72C5.09021 121.55 8.74021 122.14 13.0002 122.42C11.5102 98.46 13.1102 92.8 15.0002 92.42C16.6902 92.08 18.1502 96.07 23.0002 100.42C28.4202 105.28 34.5302 107.39 39.0002 108.42C30.0302 85.86 30.0202 79.6 32.0002 78.42C32.0602 78.38 32.1202 78.35 32.1802 78.33C32.2202 78.31 32.2502 78.3 32.2902 78.29C34.6902 77.49 39.3202 83.06 48.1302 87.95C48.4202 88.11 48.7102 88.26 49.0002 88.42C59.3302 93.92 69.5502 95.25 77.0002 95.42C76.3102 90.31 74.9902 75.45 84.0002 61.42C88.2302 54.83 93.7302 49.99 98.0002 47.42C120.13 34.1 153.52 55.16 170.7 61.7C178.53 75.13 183 90.75 183 107.42Z" fill="#F6F6F6" stroke="#3E3E3E" stroke-miterlimit="10"/>
<path d="M144 111.42C148.971 111.42 153 107.391 153 102.42C153 97.4495 148.971 93.42 144 93.42C139.029 93.42 135 97.4495 135 102.42C135 107.391 139.029 111.42 144 111.42Z" fill="#3E3E3E" stroke="#3E3E3E" stroke-miterlimit="10"/>
<path d="M170.7 61.7C153.52 55.16 120.13 34.1 98 47.42C93.73 49.99 88.23 54.83 84 61.42C74.99 75.45 76.31 90.31 77 95.42C69.55 95.25 59.33 93.92 49 88.42C48.62 88.22 48.13 87.95 48.13 87.95C43.42 85.39 39.69 83.12 37 81.42C36.57 82.77 36.24 84.11 36 85.42C32.12 106.35 49.26 125.66 57 133.42C54.29 134.85 45.13 138.22 33.3 136.72C26.54 135.86 21.26 133.2 18.46 129.14C18.77 131.48 19.27 133.93 20 136.42C21.64 142.02 24.04 146.39 26 149.42C23.68 154 20.59 157.54 17.44 159.59C10.85 150.21 6 139.53 3.34 128.01C2.79 125.62 2.33 123.18 1.97 120.72C1.33 116.38 1 111.94 1 107.42C1 75.69 17.24 47.75 41.87 31.46C49.04 26.71 56.94 22.96 65.35 20.4C65.46 20.36 65.57 20.32 65.68 20.29C65.78 20.26 65.89 20.22 65.99 20.2C68.88 19.34 71.82 18.62 74.82 18.05C80.38 16.98 86.13 16.42 92 16.42C96.57 16.42 101.07 16.76 105.45 17.42C109.39 10.98 112.33 5.32 114.42 1C115.92 2.43 121.67 8.24 121.26 16.27C121.17 18.02 120.8 19.58 120.33 20.92C125.94 20.5 131.88 19.86 138.12 18.94C142.83 18.24 147.34 17.44 151.62 16.57C150.12 24.61 147.2 29.72 144.38 32.99C152.82 38.94 160.2 46.29 166.18 54.7C167.79 56.96 169.3 59.29 170.7 61.7Z" fill="#BFFFD6" stroke="#3E3E3E" stroke-miterlimit="10"/>
</svg>
