<svg width="44" height="42" viewBox="0 0 44 42" fill="none" xmlns="http://www.w3.org/2000/svg">
<path d="M9.93243 3.78931H10.0324V3.68931V2.41228C10.0324 2.10011 10.1564 1.80073 10.3772 1.58C10.5979 1.35926 10.8973 1.23525 11.2095 1.23525C11.5216 1.23525 11.821 1.35926 12.0417 1.58C12.2625 1.80073 12.3865 2.10011 12.3865 2.41228V3.68931V3.78931H12.4865H32.9189H33.0189V3.68931V2.41228C33.0189 2.10011 33.1429 1.80073 33.3637 1.58C33.5844 1.35926 33.8838 1.23525 34.1959 1.23525C34.5081 1.23525 34.8075 1.35926 35.0282 1.58C35.249 1.80073 35.373 2.10011 35.373 2.41228V3.68931V3.78931H35.473H38.027C39.3553 3.78931 40.6291 4.31695 41.5683 5.25615C42.5075 6.19535 43.0351 7.46918 43.0351 8.79742V11.2515H2.37026V8.79742C2.37026 7.46918 2.8979 6.19535 3.8371 5.25615C4.77631 4.31695 6.05014 3.78931 7.37837 3.78931H9.93243ZM26.1227 33.9007L26.1825 33.8961C27.7896 33.8769 29.0733 33.1819 29.955 31.9158C30.8461 30.6361 31.3219 28.7801 31.3219 26.4635C31.3219 23.9843 30.8215 22.255 29.9284 21.1442C29.0323 20.0295 27.7535 19.5529 26.2352 19.5527C25.6129 19.5386 24.9943 19.6512 24.4169 19.8838C23.8392 20.1165 23.3148 20.4644 22.8759 20.9062C22.4369 21.3481 22.0926 21.8747 21.8637 22.454C21.6355 23.0318 21.5269 23.6499 21.5447 24.2708C21.5051 24.8665 21.589 25.464 21.7912 26.0257C21.9938 26.589 22.311 27.1042 22.7226 27.5389C23.1343 27.9736 23.6315 28.3183 24.1829 28.5513C24.7328 28.7836 25.3247 28.8999 25.9215 28.8929C26.6647 28.9583 27.4101 28.795 28.058 28.4249C28.6289 28.0987 29.0999 27.6256 29.4235 27.0569C29.3879 28.5994 29.098 29.8611 28.5794 30.748C28.0323 31.6835 27.2322 32.2015 26.1944 32.2015V32.2012L26.1869 32.2018C25.584 32.2469 24.9858 32.0659 24.5091 31.694C24.0324 31.3221 23.7112 30.786 23.6083 30.1902L23.594 30.1072H23.5098H21.7651H21.6532L21.6657 30.2184C21.7864 31.2902 22.3186 32.2732 23.1501 32.9602C23.9816 33.6472 25.0473 33.9844 26.1227 33.9007ZM26.2851 27.2035L26.184 27.2025V27.2083C25.8298 27.2112 25.4781 27.1446 25.1489 27.012C24.7902 26.8674 24.4665 26.6478 24.1996 26.3678C23.9326 26.0879 23.7287 25.754 23.6015 25.3888C23.4742 25.0235 23.4266 24.6352 23.4618 24.25L23.4625 24.242L23.462 24.2339C23.4344 23.8438 23.4891 23.4522 23.6227 23.0847C23.7562 22.7171 23.9656 22.3817 24.2372 22.1003C24.5088 21.819 24.8365 21.5978 25.1991 21.4513C25.5617 21.3048 25.951 21.2362 26.3418 21.2499L26.3418 21.2502L26.35 21.2498C26.7453 21.2314 27.1399 21.2986 27.5069 21.4469C27.8738 21.5952 28.2043 21.821 28.4758 22.1089C28.7473 22.3969 28.9533 22.7401 29.0798 23.1151C29.2063 23.4901 29.2502 23.8879 29.2086 24.2815L29.208 24.2814L29.208 24.2926C29.2104 24.6766 29.1363 25.0571 28.9901 25.4122C28.8439 25.7672 28.6285 26.0895 28.3564 26.3605C28.0844 26.6314 27.7611 26.8455 27.4055 26.9902C27.0499 27.135 26.669 27.2075 26.2851 27.2035ZM18.8297 19.9217V19.8218L18.7298 19.8217L17.1145 19.8206L17.0895 19.8206L17.0675 19.8323C15.9053 20.4505 14.782 21.1391 13.7039 21.8944L13.6612 21.9243V21.9763V23.7494V23.9392L13.8178 23.8319C14.7243 23.2103 16.134 22.3423 16.9043 21.917V33.5434V33.6434H17.0043H18.7297H18.8297V33.5434V19.9217ZM2.37026 14.0055H43.0351V36.892C43.0351 38.2202 42.5075 39.4941 41.5683 40.4333C40.6291 41.3725 39.3553 41.9001 38.027 41.9001H7.37837C6.05014 41.9001 4.77631 41.3725 3.8371 40.4333C2.8979 39.4941 2.37026 38.2202 2.37026 36.892V14.0055Z" fill="#CDB4FF" stroke="#FFFFFF" stroke-width="0.2"/>
<rect x="9.18109" y="18.2621" width="29.3135" height="19.0973" fill="#CDB4FF" stroke="#FFFFFF" stroke-width="0.2"/>
<path fill-rule="evenodd" clip-rule="evenodd" d="M10.2162 1.27703C10.2162 0.938338 10.0817 0.613522 9.84218 0.374033C9.60269 0.134544 9.27788 0 8.93919 0C8.6005 0 8.27568 0.134544 8.03619 0.374033C7.79671 0.613522 7.66216 0.938338 7.66216 1.27703V2.55405H5.10811C3.75335 2.55405 2.45409 3.09223 1.49613 4.05018C0.538174 5.00814 0 6.30741 0 7.66216L0 10.2162H40.8649V7.66216C40.8649 6.30741 40.3267 5.00814 39.3687 4.05018C38.4108 3.09223 37.1115 2.55405 35.7568 2.55405H33.2027V1.27703C33.2027 0.938338 33.0682 0.613522 32.8287 0.374033C32.5892 0.134544 32.2644 0 31.9257 0C31.587 0 31.2622 0.134544 31.0227 0.374033C30.7832 0.613522 30.6486 0.938338 30.6486 1.27703V2.55405H10.2162V1.27703ZM0 12.7703H40.8649V35.7568C40.8649 37.1115 40.3267 38.4108 39.3687 39.3687C38.4108 40.3267 37.1115 40.8649 35.7568 40.8649H5.10811C3.75335 40.8649 2.45409 40.3267 1.49613 39.3687C0.538174 38.4108 0 37.1115 0 35.7568L0 12.7703ZM23.8447 32.6658C22.7952 32.7474 21.755 32.4183 20.9435 31.7479C20.132 31.0774 19.6126 30.118 19.4948 29.0719H21.2395C21.3467 29.6922 21.681 30.2504 22.1773 30.6376C22.6736 31.0248 23.2964 31.2133 23.9241 31.1663C26.0809 31.1663 27.2466 29.0004 27.2569 25.6393H27.1876C26.8755 26.2963 26.3697 26.842 25.7381 27.2028C25.1065 27.5637 24.3796 27.7224 23.6551 27.6576C23.0703 27.6652 22.4903 27.5516 21.9516 27.3239C21.4128 27.0963 20.9271 26.7595 20.525 26.3349C20.1228 25.9102 19.813 25.4069 19.615 24.8566C19.417 24.3063 19.3351 23.721 19.3745 23.1375C19.3565 22.5285 19.4626 21.9222 19.6865 21.3555C19.9103 20.7889 20.2472 20.2737 20.6766 19.8415C21.106 19.4092 21.6188 19.0689 22.184 18.8413C22.7492 18.6137 23.3547 18.5035 23.9638 18.5175C26.9572 18.5175 28.9516 20.3916 28.9516 25.3283C28.9516 29.9381 27.0571 32.6612 23.8435 32.6612L23.8447 32.6658ZM24.0138 26.1683C24.411 26.1723 24.805 26.0973 25.1729 25.9476C25.5408 25.7978 25.8753 25.5764 26.1567 25.2961C26.4382 25.0158 26.661 24.6823 26.8123 24.315C26.9636 23.9477 27.0402 23.554 27.0378 23.1568C27.0809 22.7489 27.0354 22.3365 26.9043 21.9479C26.7732 21.5592 26.5597 21.2035 26.2783 20.9051C25.9969 20.6067 25.6543 20.3726 25.2741 20.2189C24.8938 20.0652 24.4848 19.9956 24.0751 20.0147C23.6702 20.0005 23.2669 20.0716 22.8913 20.2233C22.5157 20.3751 22.1763 20.6042 21.895 20.8956C21.6136 21.1871 21.3968 21.5345 21.2584 21.9153C21.1201 22.296 21.0634 22.7016 21.0919 23.1057C21.0555 23.5051 21.1048 23.9077 21.2368 24.2864C21.3687 24.6652 21.5802 25.0113 21.8569 25.3016C22.1337 25.5919 22.4693 25.8196 22.8413 25.9695C23.2133 26.1194 23.6131 26.1879 24.0138 26.1705V26.1683ZM16.4595 18.7865V32.4081H14.7341V20.6299H14.7034C13.9633 21.0284 12.4479 21.9581 11.491 22.6142V20.8411C12.5657 20.0881 13.6856 19.4016 14.8442 18.7854L16.4595 18.7865Z" fill="#FFFFFF"/>
<rect x="6.81081" y="17.0269" width="29.5135" height="19.2973" fill="#FFFFFF"/>
<path d="M19.6168 32.1621H20.6968C23.2168 32.1621 24.6568 30.9021 24.6568 27.7521V26.5821C24.6568 24.2421 23.3968 22.9821 21.0568 22.9821C19.6168 22.9821 18.8968 23.3421 18.2668 24.0621L18.3568 23.2521V22.2621H24.6568V19.5621H15.6568V26.7621H18.1768C18.3568 25.8621 18.7168 25.6821 20.1568 25.6821C21.5968 25.6821 21.9568 25.8621 21.9568 26.5821V27.8421C21.9568 29.1021 21.5968 29.4621 20.1568 29.4621C18.8968 29.4621 18.3568 29.1021 18.3568 27.8421V27.6621H15.6568V28.2021C15.6568 30.9021 17.0968 32.1621 19.6168 32.1621Z" fill="#CDB4FF"/>
</svg>