<svg width="16" height="17" viewBox="0 0 16 17" fill="none" xmlns="http://www.w3.org/2000/svg">
<path d="M16 9C16 11.1217 15.1571 13.1566 13.6569 14.6569C12.1566 16.1571 10.1217 17 8 17C5.87827 17 3.84344 16.1571 2.34315 14.6569C0.842855 13.1566 0 11.1217 0 9C0 6.87827 0.842855 4.84344 2.34315 3.34315C3.84344 1.84285 5.87827 1 8 1C10.1217 1 12.1566 1.84285 13.6569 3.34315C15.1571 4.84344 16 6.87827 16 9ZM12.03 5.97C11.9586 5.89882 11.8735 5.84277 11.7799 5.80522C11.6863 5.76766 11.5861 5.74936 11.4853 5.75141C11.3845 5.75347 11.2851 5.77583 11.1932 5.81717C11.1012 5.85851 11.0185 5.91797 10.95 5.992L7.477 10.417L5.384 8.323C5.24182 8.19052 5.05378 8.1184 4.85948 8.12183C4.66518 8.12525 4.47979 8.20397 4.34238 8.34138C4.20497 8.47879 4.12625 8.66418 4.12283 8.85848C4.1194 9.05278 4.19152 9.24083 4.324 9.383L6.97 12.03C7.04128 12.1012 7.12616 12.1572 7.21958 12.1949C7.313 12.2325 7.41305 12.2509 7.51375 12.2491C7.61444 12.2472 7.71374 12.2251 7.8057 12.184C7.89766 12.1429 7.9804 12.0837 8.049 12.01L12.041 7.02C12.1771 6.8785 12.2523 6.68928 12.2504 6.49296C12.2485 6.29664 12.1698 6.10888 12.031 5.97H12.03Z" fill="#3E3E3E"/>
<path d="M10.7533 4.83765L7.45445 9.0408L5.56082 7.14627L5.56093 7.14615L5.55443 7.1401C5.36486 6.96346 5.11414 6.86729 4.85507 6.87186C4.596 6.87644 4.34882 6.98138 4.1656 7.1646C3.98238 7.34782 3.87743 7.595 3.87286 7.85407C3.86829 8.11314 3.96446 8.36386 4.1411 8.55343L4.14098 8.55354L4.14719 8.55974L6.79319 11.2067L6.79338 11.2069C6.88843 11.3018 7.0016 11.3766 7.12616 11.4267C7.25072 11.4769 7.38411 11.5015 7.51838 11.499C7.65264 11.4965 7.78503 11.467 7.90765 11.4123C8.03026 11.3575 8.14059 11.2786 8.23205 11.1803L8.2384 11.1734L8.24422 11.1662L12.2296 6.18444C12.4057 5.99677 12.5028 5.74826 12.5004 5.49058C12.4979 5.22882 12.3929 4.97848 12.2079 4.7933L12.1346 4.72H12.1248C12.0487 4.65916 11.9639 4.60965 11.873 4.5732C11.7483 4.52312 11.6147 4.49873 11.4802 4.50146C11.3458 4.5042 11.2133 4.53402 11.0907 4.58914C10.968 4.64426 10.8578 4.72354 10.7665 4.82225L10.7596 4.82968L10.7533 4.83765ZM15.75 8C15.75 10.0554 14.9335 12.0267 13.4801 13.4801C12.0267 14.9335 10.0554 15.75 8 15.75C5.94457 15.75 3.97333 14.9335 2.51992 13.4801C1.06652 12.0267 0.25 10.0554 0.25 8C0.25 5.94457 1.06652 3.97333 2.51992 2.51992C3.97333 1.06652 5.94457 0.25 8 0.25C10.0554 0.25 12.0267 1.06652 13.4801 2.51992C14.9335 3.97333 15.75 5.94457 15.75 8Z" fill="#BFFFD6" stroke="#3E3E3E" stroke-width="0.5"/>
</svg>
