<svg width="47" height="47" viewBox="0 0 47 47" fill="none" xmlns="http://www.w3.org/2000/svg">
<circle cx="24.5" cy="24.5" r="22.4" fill="#CDB4FF" stroke="#FFFFFF" stroke-width="0.2"/>
<path d="M43.8966 22.9483C43.8966 18.8051 42.668 14.755 40.3661 11.31C38.0643 7.86512 34.7926 5.18013 30.9648 3.5946C27.137 2.00908 22.925 1.59423 18.8615 2.40252C14.7979 3.21082 11.0653 5.20595 8.13562 8.13562C5.20595 11.0653 3.21082 14.7979 2.40252 18.8615C1.59423 22.925 2.00908 27.137 3.5946 30.9648C5.18013 34.7926 7.86512 38.0643 11.31 40.3661C14.755 42.668 18.8051 43.8966 22.9483 43.8966C28.5041 43.8966 33.8324 41.6895 37.761 37.761C41.6895 33.8324 43.8966 28.5041 43.8966 22.9483Z" stroke="#FFFFFF" stroke-width="2.25" stroke-miterlimit="10"/>
<path d="M20.526 16.6975L20.5261 16.6975L33.3136 11.5769C33.3136 11.5769 33.3136 11.5769 33.3136 11.5769C33.454 11.5212 33.6076 11.5078 33.7555 11.5384C33.9035 11.5689 34.0392 11.6421 34.146 11.749C34.2528 11.8558 34.326 11.9915 34.3566 12.1394C34.3872 12.2873 34.3738 12.4408 34.3181 12.5812C34.3181 12.5812 34.3181 12.5813 34.318 12.5814L29.1975 25.3689L29.1974 25.3689C28.8513 26.2344 28.3329 27.0206 27.6738 27.6797C27.0146 28.3388 26.2285 28.8572 25.363 29.2034L25.3629 29.2034L12.5755 34.324C12.5754 34.324 12.5753 34.3241 12.5752 34.3241C12.4349 34.3797 12.2813 34.3931 12.1335 34.3626C11.9856 34.332 11.8498 34.2588 11.743 34.152C11.6362 34.0452 11.563 33.9094 11.5324 33.7615C11.5019 33.6136 11.5153 33.46 11.5709 33.3196C11.571 33.3196 11.571 33.3196 11.571 33.3195L16.6916 20.532L16.6916 20.532C17.0378 19.6665 17.5561 18.8804 18.2153 18.2212C18.8744 17.5621 19.6606 17.0437 20.526 16.6975ZM21.4376 25.2092C21.8848 25.508 22.4106 25.6674 22.9484 25.6674C23.6696 25.6674 24.3613 25.3809 24.8712 24.871C25.3812 24.361 25.6677 23.6693 25.6677 22.9481C25.6677 22.4103 25.5082 21.8846 25.2094 21.4374C24.9106 20.9902 24.4859 20.6416 23.989 20.4358C23.4921 20.23 22.9454 20.1762 22.4179 20.2811C21.8904 20.386 21.4059 20.645 21.0256 21.0253C20.6452 21.4056 20.3863 21.8901 20.2813 22.4176C20.1764 22.9451 20.2303 23.4919 20.4361 23.9888C20.6419 24.4857 20.9904 24.9104 21.4376 25.2092Z" fill="#3E3E3E" stroke="#3E3E3E" stroke-width="0.2"/>
</svg>