<svg width="28" height="21" viewBox="0 0 28 21" fill="none" xmlns="http://www.w3.org/2000/svg">
<path d="M23.4486 2.58641C21.7527 1.80361 19.9632 1.24491 18.1247 0.924238C18.1081 0.921416 18.091 0.923853 18.0757 0.931213C18.0605 0.938573 18.0479 0.950495 18.0397 0.96534C17.8093 1.37636 17.5543 1.91398 17.3761 2.33486C15.3943 2.03237 13.3785 2.03237 11.3967 2.33486C11.198 1.866 10.9731 1.40877 10.7233 0.96534C10.7149 0.950658 10.7023 0.938873 10.6871 0.931537C10.6719 0.9242 10.6549 0.921656 10.6383 0.924238C8.79935 1.24319 7.00946 1.80218 5.31438 2.58641C5.29988 2.59198 5.28775 2.60244 5.28006 2.616C1.8899 7.71102 0.959815 12.6811 1.41587 17.5887C1.4175 17.6117 1.43221 17.6347 1.45019 17.6495C3.42434 19.1203 5.63246 20.2433 7.98041 20.9706C7.99699 20.9758 8.01481 20.9756 8.03127 20.97C8.04773 20.9644 8.06198 20.9537 8.07195 20.9393C8.57541 20.2488 9.02329 19.5205 9.40905 18.7543C9.41709 18.7386 9.41985 18.7206 9.4169 18.7031C9.41396 18.6856 9.40547 18.6696 9.39271 18.6573C9.38426 18.6493 9.37424 18.6432 9.36329 18.6393C8.65904 18.367 7.97697 18.04 7.32331 17.661C7.30505 17.6506 7.29147 17.6335 7.28538 17.6133C7.2793 17.5931 7.28117 17.5714 7.29061 17.5525C7.29618 17.5403 7.30459 17.5296 7.31513 17.5213C7.45244 17.4177 7.58975 17.3092 7.72051 17.2007C7.73207 17.1913 7.74593 17.1853 7.76061 17.1833C7.77529 17.1813 7.79025 17.1833 7.80388 17.1892C12.0849 19.1555 16.719 19.1555 20.9477 17.1892C20.9618 17.183 20.9773 17.1808 20.9926 17.1829C21.0078 17.1849 21.0223 17.1911 21.0343 17.2007C21.1651 17.3092 21.3024 17.4177 21.4397 17.5213C21.4508 17.5295 21.4598 17.5403 21.4657 17.5528C21.4717 17.5653 21.4744 17.5791 21.4738 17.5929C21.4731 17.6068 21.4691 17.6202 21.462 17.6321C21.4549 17.644 21.445 17.6539 21.4332 17.661C20.781 18.0434 20.098 18.3701 19.3915 18.6376C19.3803 18.6417 19.37 18.6483 19.3616 18.6568C19.3531 18.6653 19.3466 18.6756 19.3425 18.6869C19.3387 18.6979 19.3372 18.7096 19.3381 18.7211C19.3389 18.7327 19.3421 18.744 19.3474 18.7543C19.7397 19.5188 20.1892 20.2488 20.6829 20.9393C20.6928 20.9537 20.7071 20.9644 20.7236 20.97C20.74 20.9756 20.7578 20.9758 20.7744 20.9706C23.1263 20.2456 25.338 19.1225 27.3144 17.6495C27.3243 17.6426 27.3326 17.6336 27.3385 17.623C27.3445 17.6125 27.348 17.6008 27.3488 17.5887C27.8947 11.9149 26.435 6.98598 23.4813 2.61765C23.4783 2.61043 23.4739 2.60392 23.4683 2.59854C23.4626 2.59316 23.4559 2.58903 23.4486 2.58641ZM10.0482 14.5997C8.75848 14.5997 7.69763 13.4094 7.69763 11.9495C7.69763 10.4879 8.73887 9.29756 10.0482 9.29756C11.3673 9.29756 12.4183 10.4977 12.3987 11.9495C12.3987 13.4094 11.3575 14.5997 10.0482 14.5997ZM18.7377 14.5997C17.4496 14.5997 16.3872 13.4094 16.3872 11.9495C16.3872 10.4879 17.4284 9.29756 18.7377 9.29756C20.0568 9.29756 21.1095 10.4977 21.0883 11.9495C21.0883 13.4094 20.0568 14.5997 18.7377 14.5997Z" fill="#F6F6F6"/>
<path d="M22.1409 1.71458C20.445 0.931779 18.6555 0.37308 16.817 0.0524115C16.8004 0.0495901 16.7833 0.0520269 16.768 0.059387C16.7528 0.0667472 16.7402 0.0786692 16.732 0.0935136C16.5015 0.504535 16.2465 1.04215 16.0684 1.46304C14.0866 1.16054 12.0708 1.16054 10.089 1.46304C9.89027 0.994176 9.66543 0.536945 9.41556 0.0935136C9.40718 0.0788317 9.39457 0.0670471 9.3794 0.0597106C9.36422 0.0523741 9.3472 0.0498295 9.33056 0.0524115C7.49164 0.371364 5.70175 0.930353 4.00668 1.71458C3.99217 1.72015 3.98004 1.73061 3.97235 1.74418C0.582193 6.8392 -0.347893 11.8093 0.10816 16.7169C0.109794 16.7399 0.124506 16.7629 0.142486 16.7777C2.11663 18.2485 4.32476 19.3715 6.67271 20.0987C6.68928 20.104 6.7071 20.1038 6.72356 20.0982C6.74002 20.0926 6.75427 20.0818 6.76424 20.0675C7.2677 19.377 7.71558 18.6487 8.10135 17.8825C8.10939 17.8667 8.11214 17.8488 8.10919 17.8313C8.10625 17.8138 8.09776 17.7977 8.085 17.7855C8.07655 17.7775 8.06653 17.7713 8.05558 17.7674C7.35133 17.4952 6.66927 17.1681 6.0156 16.7892C5.99734 16.7788 5.98376 16.7617 5.97768 16.7415C5.97159 16.7213 5.97346 16.6995 5.98291 16.6807C5.98847 16.6684 5.99688 16.6577 6.00742 16.6495C6.14473 16.5459 6.28204 16.4374 6.41281 16.3289C6.42436 16.3195 6.43822 16.3135 6.4529 16.3115C6.46759 16.3095 6.48254 16.3115 6.49617 16.3173C10.7772 18.2837 15.4113 18.2837 19.64 16.3173C19.6541 16.3112 19.6696 16.309 19.6849 16.311C19.7001 16.3131 19.7146 16.3192 19.7266 16.3289C19.8574 16.4374 19.9947 16.5459 20.132 16.6495C20.1431 16.6576 20.1521 16.6685 20.158 16.681C20.1639 16.6935 20.1667 16.7072 20.1661 16.7211C20.1654 16.7349 20.1614 16.7484 20.1543 16.7603C20.1472 16.7722 20.1373 16.7821 20.1255 16.7892C19.4733 17.1716 18.7903 17.4983 18.0838 17.7658C18.0726 17.7699 18.0623 17.7764 18.0539 17.785C18.0454 17.7935 18.0389 17.8038 18.0348 17.8151C18.031 17.8261 18.0295 17.8377 18.0303 17.8493C18.0312 17.8609 18.0344 17.8722 18.0397 17.8825C18.432 18.647 18.8815 19.377 19.3752 20.0675C19.3851 20.0818 19.3994 20.0926 19.4159 20.0982C19.4323 20.1038 19.4501 20.104 19.4667 20.0987C21.8186 19.3737 24.0303 18.2506 26.0067 16.7777C26.0166 16.7708 26.0249 16.7617 26.0308 16.7512C26.0367 16.7407 26.0403 16.7289 26.0411 16.7169C26.587 11.0431 25.1273 6.11415 22.1736 1.74582C22.1706 1.7386 22.1662 1.7321 22.1605 1.72672C22.1549 1.72134 22.1482 1.7172 22.1409 1.71458ZM8.74047 13.7279C7.45078 13.7279 6.38992 12.5376 6.38992 11.0776C6.38992 9.61606 7.43116 8.42574 8.74047 8.42574C10.0596 8.42574 11.1106 9.62592 11.091 11.0776C11.091 12.5376 10.0498 13.7279 8.74047 13.7279ZM17.43 13.7279C16.1419 13.7279 15.0794 12.5376 15.0794 11.0776C15.0794 9.61606 16.1207 8.42574 17.43 8.42574C18.7491 8.42574 19.8018 9.62592 19.7806 11.0776C19.7806 12.5376 18.7491 13.7279 17.43 13.7279Z" fill="#3E3E3E"/>
</svg>
