<svg width="20" height="20" viewBox="0 0 63 48" fill="none" xmlns="http://www.w3.org/2000/svg">
<path d="M53.4963 6.22931C49.7391 4.504 45.7806 3.26253 41.7147 2.53415C41.2258 3.42913 40.6991 4.54558 40.3232 5.43368L40.1716 5.7917L39.7873 5.73303C35.2909 5.0467 30.7173 5.0467 26.2208 5.73303L25.8367 5.79167L25.685 5.4339C25.2649 4.44282 24.7932 3.47478 24.2718 2.53378C20.2018 3.25896 16.2395 4.50237 12.4814 6.23287C4.84186 17.7476 2.72878 28.9659 3.7336 40.0517C8.12965 43.3083 13.0329 45.8074 18.2429 47.4471C19.2639 46.0291 20.1812 44.5418 20.9843 42.9854C19.4565 42.3771 17.9749 41.6574 16.551 40.8321M53.4963 6.22931L16.8005 40.3988M53.4963 6.22931C60.1612 16.1121 63.4586 27.2422 62.2563 40.0513C57.8554 43.3125 52.9446 45.8119 47.7262 47.4467C46.7231 46.0274 45.803 44.5364 44.9875 42.9821C46.5195 42.3825 48.0026 41.663 49.4231 40.8301L49.427 40.8278C49.5253 40.7689 49.6072 40.6866 49.6657 40.5886C49.7242 40.4906 49.7575 40.3797 49.7628 40.2659L49.7628 40.2659C49.7681 40.1521 49.7453 40.0387 49.6963 39.9356C49.6482 39.8345 49.5762 39.7463 49.4863 39.679C49.1772 39.4459 48.8683 39.2017 48.5744 38.9579L48.5745 38.9578L48.5672 38.952C48.4687 38.8733 48.3505 38.8228 48.2253 38.8062C48.0999 38.7895 47.9726 38.8075 47.8568 38.8579L47.8568 38.8577L47.8456 38.8629C38.2789 43.3114 27.8012 43.3124 18.1117 38.8619L18.1117 38.8618L18.1006 38.857C17.9857 38.8076 17.8594 38.7904 17.7353 38.8075M53.4963 6.22931L17.7353 38.8075M16.551 40.8321C16.5506 40.8319 16.5502 40.8316 16.5497 40.8314L16.8005 40.3988M16.551 40.8321C16.5516 40.8325 16.5523 40.8328 16.5529 40.8332L16.8005 40.3988M16.551 40.8321C16.3982 40.7444 16.2853 40.6015 16.2347 40.4336C16.1849 40.2682 16.199 40.09 16.2742 39.9344M16.8005 40.3988C16.7586 40.3749 16.7275 40.3357 16.7135 40.2894C16.6995 40.2431 16.7038 40.1931 16.7255 40.1498M16.2742 39.9344C16.2729 39.9373 16.2716 39.9401 16.2703 39.943L16.7255 40.1498M16.2742 39.9344C16.3201 39.8372 16.388 39.7516 16.4729 39.6849L16.4806 39.6789L16.4806 39.679C16.7897 39.4459 17.0986 39.2017 17.3924 38.9579L17.3973 38.9539L17.3973 38.9539C17.4945 38.8754 17.6113 38.8247 17.7353 38.8075M16.2742 39.9344C16.2756 39.9316 16.277 39.9287 16.2785 39.9259L16.7255 40.1498M16.7255 40.1498L17.7353 38.8075M21.5479 42.6844C21.5772 42.7125 21.5967 42.7493 21.6034 42.7894C21.6102 42.8295 21.6039 42.8708 21.5854 42.907C20.7004 44.6646 19.673 46.3355 18.518 47.9196L21.4804 42.643C21.5056 42.6519 21.5286 42.666 21.5479 42.6844ZM21.5479 42.6844L21.4172 42.8208M21.5479 42.6844L21.4186 42.8206L21.4172 42.8208M21.4172 42.8208L21.4171 42.8208L21.4172 42.8208ZM21.4172 42.8208L21.417 42.821L21.4169 42.8211L21.4163 42.8218L21.408 42.8305L21.2019 43.0454C21.1534 42.9988 21.1214 42.9381 21.1104 42.8725C21.0995 42.8077 21.1094 42.7411 21.1389 42.6821L21.1399 42.68L21.4172 42.8208ZM18.4592 47.5147L18.4559 47.5136C18.457 47.514 18.4581 47.5143 18.4592 47.5147ZM17.1592 27.2958C17.1592 30.8639 19.7628 33.8758 23.0517 33.8758C26.3871 33.8758 28.9425 30.8629 28.9441 27.2992C28.9905 23.7453 26.4066 20.712 23.0517 20.712C19.715 20.712 17.1592 23.727 17.1592 27.2958ZM37.094 27.2958C37.094 30.8641 39.7015 33.8758 42.9865 33.8758C46.3455 33.8758 48.8772 30.8617 48.8789 27.2995C48.9291 23.7447 46.3409 20.712 42.9865 20.712C39.6498 20.712 37.094 23.727 37.094 27.2958Z" fill="#F6F6F6" stroke="#F6F6F6"/>
<path d="M50.4963 4.22931C46.7391 2.504 42.7806 1.26253 38.7147 0.534149C38.2258 1.42913 37.6991 2.54558 37.3232 3.43368L37.1716 3.7917L36.7873 3.73303C32.2909 3.0467 27.7173 3.0467 23.2208 3.73303L22.8367 3.79167L22.685 3.4339C22.2649 2.44282 21.7932 1.47478 21.2718 0.533784C17.2018 1.25896 13.2395 2.50237 9.48137 4.23287C1.84186 15.7476 -0.271216 26.9659 0.733604 38.0517C5.12965 41.3083 10.0329 43.8074 15.2429 45.4471C16.2639 44.0291 17.1812 42.5418 17.9843 40.9854C16.4565 40.3771 14.9749 39.6574 13.551 38.8321M50.4963 4.22931L13.8005 38.3988M50.4963 4.22931C57.1612 14.1121 60.4586 25.2422 59.2563 38.0513C54.8554 41.3125 49.9446 43.8119 44.7262 45.4467C43.7231 44.0274 42.803 42.5364 41.9875 40.9821C43.5195 40.3825 45.0026 39.663 46.4231 38.8301L46.427 38.8278C46.5253 38.7689 46.6072 38.6866 46.6657 38.5886C46.7242 38.4906 46.7575 38.3797 46.7628 38.2659L46.7628 38.2659C46.7681 38.1521 46.7453 38.0387 46.6963 37.9356C46.6482 37.8345 46.5762 37.7463 46.4863 37.679C46.1772 37.4459 45.8683 37.2017 45.5744 36.9579L45.5745 36.9578L45.5672 36.952C45.4687 36.8733 45.3505 36.8228 45.2253 36.8062C45.0999 36.7895 44.9726 36.8075 44.8568 36.8579L44.8568 36.8577L44.8456 36.8629C35.2789 41.3114 24.8012 41.3124 15.1117 36.8619L15.1117 36.8618L15.1006 36.857C14.9857 36.8076 14.8594 36.7904 14.7353 36.8075M50.4963 4.22931L14.7353 36.8075M13.551 38.8321C13.5506 38.8319 13.5502 38.8316 13.5497 38.8314L13.8005 38.3988M13.551 38.8321C13.5516 38.8325 13.5523 38.8328 13.5529 38.8332L13.8005 38.3988M13.551 38.8321C13.3982 38.7444 13.2853 38.6015 13.2347 38.4336C13.1849 38.2682 13.199 38.09 13.2742 37.9344M13.8005 38.3988C13.7586 38.3749 13.7275 38.3357 13.7135 38.2894C13.6995 38.2431 13.7038 38.1931 13.7255 38.1498M13.2742 37.9344C13.2729 37.9373 13.2716 37.9401 13.2703 37.943L13.7255 38.1498M13.2742 37.9344C13.3201 37.8372 13.388 37.7516 13.4729 37.6849L13.4806 37.6789L13.4806 37.679C13.7897 37.4459 14.0986 37.2017 14.3924 36.9579L14.3973 36.9539L14.3973 36.9539C14.4945 36.8754 14.6113 36.8247 14.7353 36.8075M13.2742 37.9344C13.2756 37.9316 13.277 37.9287 13.2785 37.9259L13.7255 38.1498M13.7255 38.1498L14.7353 36.8075M18.5479 40.6844C18.5772 40.7125 18.5967 40.7493 18.6034 40.7894C18.6102 40.8295 18.6039 40.8708 18.5854 40.907C17.7004 42.6646 16.673 44.3355 15.518 45.9196L18.4804 40.643C18.5056 40.6519 18.5286 40.666 18.5479 40.6844ZM18.5479 40.6844L18.4172 40.8208M18.5479 40.6844L18.4186 40.8206L18.4172 40.8208M18.4172 40.8208L18.4171 40.8208L18.4172 40.8208ZM18.4172 40.8208L18.417 40.821L18.4169 40.8211L18.4163 40.8218L18.408 40.8305L18.2019 41.0454C18.1534 40.9988 18.1214 40.9381 18.1104 40.8725C18.0995 40.8077 18.1094 40.7411 18.1389 40.6821L18.1399 40.68L18.4172 40.8208ZM15.4592 45.5147L15.4559 45.5136C15.457 45.514 15.4581 45.5143 15.4592 45.5147ZM14.1592 25.2958C14.1592 28.8639 16.7628 31.8758 20.0517 31.8758C23.3871 31.8758 25.9425 28.8629 25.9441 25.2992C25.9905 21.7453 23.4066 18.712 20.0517 18.712C16.715 18.712 14.1592 21.727 14.1592 25.2958ZM34.094 25.2958C34.094 28.8641 36.7015 31.8758 39.9865 31.8758C43.3455 31.8758 45.8772 28.8617 45.8789 25.2995C45.9291 21.7447 43.3409 18.712 39.9865 18.712C36.6498 18.712 34.094 21.727 34.094 25.2958Z" fill="#CDB4FF" stroke="#F6F6F6"/>
</svg>
