<svg width="20" height="20" viewBox="0 0 63 48" fill="none" xmlns="http://www.w3.org/2000/svg">
<path d="M53.7938 5.81583C49.9033 4.01999 45.798 2.73827 41.5802 2.00262C41.542 1.99615 41.5028 2.00174 41.4678 2.01862C41.4329 2.03551 41.4041 2.06286 41.3852 2.09691C40.8565 3.03984 40.2715 4.2732 39.8627 5.23876C35.3163 4.54479 30.6918 4.54479 26.1454 5.23876C25.6894 4.16314 25.1736 3.1142 24.6004 2.09691C24.5812 2.06323 24.5522 2.0362 24.5174 2.01936C24.4826 2.00253 24.4436 1.9967 24.4054 2.00262C20.1867 2.73433 16.0805 4.01672 12.1918 5.81583C12.1585 5.82861 12.1307 5.8526 12.113 5.88372C4.33562 17.5723 2.20189 28.9742 3.24813 40.2328C3.25188 40.2856 3.28563 40.3384 3.32688 40.3724C7.8558 43.7466 12.9215 46.3229 18.308 47.9913C18.346 48.0033 18.3869 48.0029 18.4246 47.99C18.4624 47.9771 18.4951 47.9524 18.518 47.9196C19.673 46.3355 20.7004 44.6646 21.5854 42.907C21.6039 42.8708 21.6102 42.8295 21.6034 42.7894C21.5967 42.7493 21.5772 42.7125 21.5479 42.6844C21.5286 42.666 21.5056 42.6519 21.4804 42.643C19.8648 42.0184 18.3001 41.2681 16.8005 40.3988C16.7586 40.3749 16.7275 40.3357 16.7135 40.2894C16.6995 40.2431 16.7038 40.1931 16.7255 40.1498C16.7382 40.1218 16.7575 40.0972 16.7817 40.0782C17.0967 39.8406 17.4117 39.5916 17.7117 39.3427C17.7382 39.3213 17.77 39.3075 17.8037 39.3028C17.8374 39.2982 17.8717 39.3028 17.903 39.3163C27.7241 43.8273 38.3553 43.8273 48.0564 39.3163C48.0888 39.3022 48.1244 39.2972 48.1594 39.3018C48.1944 39.3065 48.2275 39.3206 48.2552 39.3427C48.5552 39.5916 48.8702 39.8406 49.1852 40.0782C49.2107 40.0969 49.2312 40.1218 49.2448 40.1505C49.2585 40.1791 49.2648 40.2108 49.2634 40.2425C49.2619 40.2743 49.2526 40.3052 49.2363 40.3325C49.22 40.3597 49.1973 40.3825 49.1702 40.3988C47.674 41.2761 46.1072 42.0255 44.4864 42.6392C44.4606 42.6486 44.4371 42.6636 44.4177 42.6832C44.3982 42.7027 44.3833 42.7263 44.3739 42.7523C44.3653 42.7775 44.3618 42.8042 44.3637 42.8308C44.3657 42.8574 44.373 42.8833 44.3852 42.907C45.2852 44.6608 46.3164 46.3355 47.4489 47.9196C47.4718 47.9524 47.5045 47.9771 47.5423 47.99C47.58 48.0029 47.6209 48.0033 47.6589 47.9913C53.0544 46.328 58.1283 43.7515 62.6625 40.3724C62.6852 40.3566 62.7041 40.3358 62.7177 40.3116C62.7314 40.2875 62.7394 40.2605 62.7413 40.2328C63.9937 27.2166 60.645 15.909 53.8688 5.8875C53.862 5.87094 53.8518 5.85601 53.8389 5.84367C53.826 5.83133 53.8106 5.82185 53.7938 5.81583ZM23.0517 33.3758C20.093 33.3758 17.6592 30.6451 17.6592 27.2958C17.6592 23.9427 20.048 21.212 23.0517 21.212C26.0779 21.212 28.4891 23.9654 28.4441 27.2958C28.4441 30.6451 26.0554 33.3758 23.0517 33.3758ZM42.9865 33.3758C40.0315 33.3758 37.594 30.6451 37.594 27.2958C37.594 23.9427 39.9827 21.212 42.9865 21.212C46.0127 21.212 48.4277 23.9654 48.3789 27.2958C48.3789 30.6451 46.0127 33.3758 42.9865 33.3758Z" fill="#CDB4FF"/>
<path d="M50.7938 3.81583C46.9033 2.01999 42.798 0.738271 38.5802 0.00261991C38.542 -0.00385291 38.5028 0.00173744 38.4678 0.0186225C38.4329 0.0355076 38.4041 0.062858 38.3852 0.0969129C37.8565 1.03984 37.2715 2.2732 36.8627 3.23876C32.3163 2.54479 27.6918 2.54479 23.1454 3.23876C22.6894 2.16314 22.1736 1.1142 21.6004 0.0969129C21.5812 0.0632309 21.5522 0.0361956 21.5174 0.0193648C21.4826 0.00253403 21.4436 -0.0033035 21.4054 0.00261991C17.1867 0.734335 13.0805 2.01672 9.19179 3.81583C9.15851 3.82861 9.13068 3.8526 9.11304 3.88372C1.33562 15.5723 -0.798108 26.9742 0.248131 38.2328C0.251881 38.2856 0.28563 38.3384 0.32688 38.3724C4.8558 41.7466 9.9215 44.3229 15.308 45.9913C15.346 46.0033 15.3869 46.0029 15.4246 45.99C15.4624 45.9771 15.4951 45.9524 15.518 45.9196C16.673 44.3355 17.7004 42.6646 18.5854 40.907C18.6039 40.8708 18.6102 40.8295 18.6034 40.7894C18.5967 40.7493 18.5772 40.7125 18.5479 40.6844C18.5286 40.666 18.5056 40.6519 18.4804 40.643C16.8648 40.0184 15.3001 39.2681 13.8005 38.3988C13.7586 38.3749 13.7275 38.3357 13.7135 38.2894C13.6995 38.2431 13.7038 38.1931 13.7255 38.1498C13.7382 38.1218 13.7575 38.0972 13.7817 38.0782C14.0967 37.8406 14.4117 37.5916 14.7117 37.3427C14.7382 37.3213 14.77 37.3075 14.8037 37.3028C14.8374 37.2982 14.8717 37.3028 14.903 37.3163C24.7241 41.8273 35.3553 41.8273 45.0564 37.3163C45.0888 37.3022 45.1244 37.2972 45.1594 37.3018C45.1944 37.3065 45.2275 37.3206 45.2552 37.3427C45.5552 37.5916 45.8702 37.8406 46.1852 38.0782C46.2107 38.0969 46.2312 38.1218 46.2448 38.1505C46.2585 38.1791 46.2648 38.2108 46.2634 38.2425C46.2619 38.2743 46.2526 38.3052 46.2363 38.3325C46.22 38.3597 46.1973 38.3825 46.1702 38.3988C44.674 39.2761 43.1072 40.0255 41.4864 40.6392C41.4606 40.6486 41.4371 40.6636 41.4177 40.6832C41.3982 40.7027 41.3833 40.7263 41.3739 40.7523C41.3653 40.7775 41.3618 40.8042 41.3637 40.8308C41.3657 40.8574 41.373 40.8833 41.3852 40.907C42.2852 42.6608 43.3164 44.3355 44.4489 45.9196C44.4718 45.9524 44.5045 45.9771 44.5423 45.99C44.58 46.0029 44.6209 46.0033 44.6589 45.9913C50.0544 44.328 55.1283 41.7515 59.6625 38.3724C59.6852 38.3566 59.7041 38.3358 59.7177 38.3116C59.7314 38.2875 59.7394 38.2605 59.7413 38.2328C60.9937 25.2166 57.645 13.909 50.8688 3.8875C50.862 3.87094 50.8518 3.85601 50.8389 3.84367C50.826 3.83133 50.8106 3.82185 50.7938 3.81583ZM20.0517 31.3758C17.093 31.3758 14.6592 28.6451 14.6592 25.2958C14.6592 21.9427 17.048 19.212 20.0517 19.212C23.0779 19.212 25.4891 21.9654 25.4441 25.2958C25.4441 28.6451 23.0554 31.3758 20.0517 31.3758ZM39.9865 31.3758C37.0315 31.3758 34.594 28.6451 34.594 25.2958C34.594 21.9427 36.9827 19.212 39.9865 19.212C43.0127 19.212 45.4277 21.9654 45.3789 25.2958C45.3789 28.6451 43.0127 31.3758 39.9865 31.3758Z" fill="#FFFFFF"/>
</svg>
