<svg width="28" height="28" viewBox="0 0 28 28" fill="none" xmlns="http://www.w3.org/2000/svg">
<path d="M13.9487 0.871826C10.4 0.871826 9.95372 0.888172 8.55939 0.950288C7.16507 1.01567 6.21535 1.23471 5.38333 1.55836C4.5106 1.88663 3.7201 2.40154 3.06708 3.06711C2.40192 3.72046 1.88707 4.51087 1.55833 5.38336C1.23468 6.21375 1.01401 7.1651 0.950257 8.55452C0.888142 9.95211 0.871796 10.3967 0.871796 13.9504C0.871796 17.5008 0.888142 17.9454 0.950257 19.3397C1.01564 20.7324 1.23468 21.6821 1.55833 22.5141C1.89343 23.3739 2.33968 24.103 3.06708 24.8304C3.79285 25.5578 4.52189 26.0057 5.3817 26.3391C6.21535 26.6628 7.16343 26.8835 8.55612 26.9472C9.95208 27.0093 10.3967 27.0257 13.9487 27.0257C17.5007 27.0257 17.9437 27.0093 19.3397 26.9472C20.7307 26.8818 21.6837 26.6628 22.5157 26.3391C23.3879 26.0107 24.1778 25.4958 24.8304 24.8304C25.5578 24.103 26.004 23.3739 26.3391 22.5141C26.6611 21.6821 26.8818 20.7324 26.9472 19.3397C27.0093 17.9454 27.0256 17.5008 27.0256 13.9487C27.0256 10.3967 27.0093 9.95212 26.9472 8.55615C26.8818 7.1651 26.6611 6.21375 26.3391 5.38336C26.0104 4.51085 25.4956 3.72043 24.8304 3.06711C24.1775 2.4013 23.387 1.88634 22.5141 1.55836C21.6805 1.23471 20.7291 1.01404 19.338 0.950288C17.9421 0.888172 17.4991 0.871826 13.9454 0.871826H13.9504H13.9487ZM12.7767 3.22894H13.9504C17.4419 3.22894 17.8554 3.24038 19.2334 3.30413C20.5084 3.36135 21.2015 3.57548 21.6625 3.75365C22.2722 3.99067 22.7086 4.2751 23.1663 4.73279C23.624 5.19048 23.9068 5.62529 24.1438 6.23663C24.3236 6.69596 24.5361 7.38904 24.5933 8.66404C24.6571 10.042 24.6702 10.4556 24.6702 13.9455C24.6702 17.4354 24.6571 17.8506 24.5933 19.2286C24.5361 20.5036 24.322 21.195 24.1438 21.656C23.9342 22.2238 23.5995 22.7372 23.1647 23.1582C22.707 23.6159 22.2722 23.8987 21.6608 24.1357C21.2031 24.3155 20.5101 24.528 19.2334 24.5868C17.8554 24.6489 17.4419 24.6637 13.9504 24.6637C10.4588 24.6637 10.0436 24.6489 8.66564 24.5868C7.39064 24.528 6.6992 24.3155 6.23824 24.1357C5.67021 23.9263 5.15633 23.5923 4.73439 23.1582C4.29918 22.7365 3.96404 22.2226 3.75362 21.6543C3.57545 21.195 3.36132 20.5019 3.3041 19.2269C3.24199 17.8489 3.22891 17.4354 3.22891 13.9422C3.22891 10.4507 3.24199 10.0387 3.3041 8.66077C3.36295 7.38577 3.57545 6.69269 3.75526 6.23173C3.99228 5.62202 4.2767 5.18558 4.73439 4.72788C5.19208 4.27019 5.62689 3.9874 6.23824 3.75038C6.6992 3.57058 7.39064 3.35808 8.66564 3.29923C9.87199 3.24365 10.3395 3.22731 12.7767 3.22567V3.22894ZM20.9302 5.39971C20.7241 5.39971 20.52 5.4403 20.3296 5.51916C20.1393 5.59802 19.9663 5.71361 19.8205 5.85933C19.6748 6.00504 19.5592 6.17804 19.4804 6.36842C19.4015 6.55881 19.3609 6.76287 19.3609 6.96894C19.3609 7.17502 19.4015 7.37907 19.4804 7.56946C19.5592 7.75985 19.6748 7.93284 19.8205 8.07856C19.9663 8.22427 20.1393 8.33986 20.3296 8.41872C20.52 8.49758 20.7241 8.53817 20.9302 8.53817C21.3463 8.53817 21.7455 8.37284 22.0398 8.07856C22.3341 7.78427 22.4994 7.38513 22.4994 6.96894C22.4994 6.55276 22.3341 6.15362 22.0398 5.85933C21.7455 5.56504 21.3463 5.39971 20.9302 5.39971ZM13.9504 7.23375C13.0596 7.21985 12.175 7.38329 11.348 7.71456C10.521 8.04582 9.76821 8.53829 9.13339 9.16329C8.49856 9.78829 7.99441 10.5333 7.65029 11.355C7.30616 12.1768 7.12894 13.0587 7.12894 13.9496C7.12894 14.8404 7.30616 15.7224 7.65029 16.5441C7.99441 17.3658 8.49856 18.1108 9.13339 18.7358C9.76821 19.3608 10.521 19.8533 11.348 20.1846C12.175 20.5158 13.0596 20.6793 13.9504 20.6654C15.7134 20.6379 17.3948 19.9182 18.6319 18.6618C19.8689 17.4053 20.5622 15.7128 20.5622 13.9496C20.5622 12.1864 19.8689 10.4938 18.6319 9.23738C17.3948 7.98091 15.7134 7.26126 13.9504 7.23375ZM13.9504 9.58923C15.1066 9.58923 16.2154 10.0485 17.033 10.8661C17.8506 11.6837 18.3099 12.7925 18.3099 13.9487C18.3099 15.105 17.8506 16.2138 17.033 17.0314C16.2154 17.849 15.1066 18.3083 13.9504 18.3083C12.7941 18.3083 11.6853 17.849 10.8677 17.0314C10.0501 16.2138 9.59083 15.105 9.59083 13.9487C9.59083 12.7925 10.0501 11.6837 10.8677 10.8661C11.6853 10.0485 12.7941 9.58923 13.9504 9.58923Z" fill="#F6F6F6"/>
<path d="M13.0769 0C9.52817 0 9.08192 0.0163462 7.6876 0.0784615C6.29327 0.143846 5.34356 0.362885 4.51154 0.686538C3.63881 1.0148 2.8483 1.52972 2.19529 2.19529C1.53012 2.84864 1.01527 3.63905 0.686538 4.51154C0.362885 5.34192 0.142212 6.29327 0.0784615 7.68269C0.0163462 9.08029 0 9.5249 0 13.0786C0 16.6289 0.0163462 17.0736 0.0784615 18.4679C0.143846 19.8606 0.362885 20.8103 0.686538 21.6423C1.02163 22.5021 1.46788 23.2312 2.19529 23.9586C2.92106 24.686 3.6501 25.1338 4.5099 25.4673C5.34356 25.791 6.29164 26.0116 7.68433 26.0754C9.08029 26.1375 9.5249 26.1538 13.0769 26.1538C16.6289 26.1538 17.0719 26.1375 18.4679 26.0754C19.8589 26.01 20.8119 25.791 21.6439 25.4673C22.5161 25.1389 23.306 24.624 23.9586 23.9586C24.686 23.2312 25.1322 22.5021 25.4673 21.6423C25.7893 20.8103 26.01 19.8606 26.0754 18.4679C26.1375 17.0736 26.1538 16.6289 26.1538 13.0769C26.1538 9.5249 26.1375 9.08029 26.0754 7.68433C26.01 6.29327 25.7893 5.34192 25.4673 4.51154C25.1386 3.63902 24.6238 2.8486 23.9586 2.19529C23.3057 1.52947 22.5152 1.01452 21.6423 0.686538C20.8087 0.362885 19.8573 0.142212 18.4662 0.0784615C17.0703 0.0163462 16.6273 0 13.0737 0H13.0786H13.0769ZM11.9049 2.35712H13.0786C16.5701 2.35712 16.9837 2.36856 18.3616 2.43231C19.6366 2.48952 20.3297 2.70365 20.7907 2.88183C21.4004 3.11885 21.8368 3.40327 22.2945 3.86096C22.7522 4.31865 23.035 4.75346 23.272 5.36481C23.4518 5.82413 23.6643 6.51721 23.7215 7.79221C23.7853 9.17019 23.7984 9.58375 23.7984 13.0737C23.7984 16.5636 23.7853 16.9788 23.7215 18.3567C23.6643 19.6317 23.4502 20.3232 23.272 20.7841C23.0624 21.3519 22.7277 21.8653 22.2929 22.2863C21.8352 22.744 21.4004 23.0268 20.789 23.2638C20.3313 23.4437 19.6383 23.6562 18.3616 23.715C16.9837 23.7771 16.5701 23.7918 13.0786 23.7918C9.58702 23.7918 9.17183 23.7771 7.79385 23.715C6.51885 23.6562 5.8274 23.4437 5.36644 23.2638C4.79841 23.0545 4.28453 22.7205 3.8626 22.2863C3.42738 21.8647 3.09224 21.3508 2.88183 20.7825C2.70365 20.3232 2.48952 19.6301 2.43231 18.3551C2.37019 16.9771 2.35712 16.5636 2.35712 13.0704C2.35712 9.57885 2.37019 9.16692 2.43231 7.78894C2.49115 6.51394 2.70365 5.82087 2.88346 5.3599C3.12048 4.75019 3.4049 4.31375 3.8626 3.85606C4.32029 3.39837 4.7551 3.11558 5.36644 2.87856C5.8274 2.69875 6.51885 2.48625 7.79385 2.4274C9.00019 2.37183 9.46769 2.35548 11.9049 2.35385V2.35712ZM20.0584 4.52788C19.8523 4.52788 19.6482 4.56847 19.4578 4.64734C19.2675 4.7262 19.0945 4.84179 18.9488 4.9875C18.803 5.13322 18.6874 5.30621 18.6086 5.4966C18.5297 5.68699 18.4891 5.89104 18.4891 6.09712C18.4891 6.30319 18.5297 6.50725 18.6086 6.69763C18.6874 6.88802 18.803 7.06101 18.9488 7.20673C19.0945 7.35245 19.2675 7.46803 19.4578 7.5469C19.6482 7.62576 19.8523 7.66635 20.0584 7.66635C20.4746 7.66635 20.8737 7.50102 21.168 7.20673C21.4623 6.91244 21.6276 6.5133 21.6276 6.09712C21.6276 5.68093 21.4623 5.28179 21.168 4.9875C20.8737 4.69321 20.4746 4.52788 20.0584 4.52788ZM13.0786 6.36192C12.1878 6.34803 11.3032 6.51147 10.4762 6.84273C9.64924 7.17399 8.89642 7.66646 8.26159 8.29146C7.62677 8.91646 7.12261 9.6615 6.77849 10.4832C6.43437 11.3049 6.25714 12.1869 6.25714 13.0777C6.25714 13.9686 6.43437 14.8506 6.77849 15.6723C7.12261 16.494 7.62677 17.239 8.26159 17.864C8.89642 18.489 9.64924 18.9815 10.4762 19.3127C11.3032 19.644 12.1878 19.8075 13.0786 19.7936C14.8416 19.7661 16.523 19.0464 17.7601 17.7899C18.9971 16.5335 19.6904 14.841 19.6904 13.0777C19.6904 11.3145 18.9971 9.62202 17.7601 8.36555C16.523 7.10908 14.8416 6.38943 13.0786 6.36192ZM13.0786 8.7174C14.2348 8.7174 15.3436 9.17671 16.1612 9.99428C16.9788 10.8118 17.4381 11.9207 17.4381 13.0769C17.4381 14.2331 16.9788 15.342 16.1612 16.1596C15.3436 16.9771 14.2348 17.4364 13.0786 17.4364C11.9223 17.4364 10.8135 16.9771 9.99591 16.1596C9.17834 15.342 8.71904 14.2331 8.71904 13.0769C8.71904 11.9207 9.17834 10.8118 9.99591 9.99428C10.8135 9.17671 11.9223 8.7174 13.0786 8.7174Z" fill="#3E3E3E"/>
</svg>
