<svg width="20" height="20" viewBox="0 0 62 62" fill="none" xmlns="http://www.w3.org/2000/svg">
<path d="M32 2C23.8587 2 22.835 2.0375 19.6362 2.18C16.4375 2.33 14.2587 2.8325 12.35 3.575C10.3479 4.32807 8.53434 5.50935 7.03625 7.03625C5.51029 8.53511 4.32915 10.3484 3.575 12.35C2.8325 14.255 2.32625 16.4375 2.18 19.625C2.0375 22.8312 2 23.8513 2 32.0038C2 40.1488 2.0375 41.1688 2.18 44.3675C2.33 47.5625 2.8325 49.7412 3.575 51.65C4.34375 53.6225 5.3675 55.295 7.03625 56.9637C8.70125 58.6325 10.3737 59.66 12.3463 60.425C14.2587 61.1675 16.4338 61.6737 19.6287 61.82C22.8313 61.9625 23.8512 62 32 62C40.1488 62 41.165 61.9625 44.3675 61.82C47.5588 61.67 49.745 61.1675 51.6538 60.425C53.6546 59.6716 55.4668 58.4903 56.9637 56.9637C58.6325 55.295 59.6562 53.6225 60.425 51.65C61.1637 49.7412 61.67 47.5625 61.82 44.3675C61.9625 41.1688 62 40.1488 62 32C62 23.8512 61.9625 22.8313 61.82 19.6287C61.67 16.4375 61.1637 14.255 60.425 12.35C59.671 10.3483 58.4898 8.53503 56.9637 7.03625C55.4661 5.50878 53.6525 4.32742 51.65 3.575C49.7375 2.8325 47.555 2.32625 44.3638 2.18C41.1613 2.0375 40.145 2 31.9925 2H32.0038H32ZM29.3113 7.4075H32.0038C40.0138 7.4075 40.9625 7.43375 44.1237 7.58C47.0487 7.71125 48.6387 8.2025 49.6963 8.61125C51.095 9.155 52.0962 9.8075 53.1462 10.8575C54.1963 11.9075 54.845 12.905 55.3888 14.3075C55.8013 15.3612 56.2887 16.9513 56.42 19.8763C56.5662 23.0375 56.5962 23.9862 56.5962 31.9925C56.5962 39.9987 56.5662 40.9512 56.42 44.1125C56.2887 47.0375 55.7975 48.6237 55.3888 49.6813C54.9078 50.9838 54.1401 52.1616 53.1425 53.1275C52.0925 54.1775 51.095 54.8263 49.6925 55.37C48.6425 55.7825 47.0525 56.27 44.1237 56.405C40.9625 56.5475 40.0138 56.5813 32.0038 56.5813C23.9938 56.5813 23.0413 56.5475 19.88 56.405C16.955 56.27 15.3687 55.7825 14.3112 55.37C13.0081 54.8897 11.8292 54.1234 10.8612 53.1275C9.86282 52.1601 9.09396 50.9812 8.61125 49.6775C8.2025 48.6237 7.71125 47.0337 7.58 44.1087C7.4375 40.9475 7.4075 39.9987 7.4075 31.985C7.4075 23.975 7.4375 23.03 7.58 19.8687C7.715 16.9437 8.2025 15.3538 8.615 14.2963C9.15875 12.8975 9.81125 11.8962 10.8612 10.8462C11.9113 9.79625 12.9087 9.1475 14.3112 8.60375C15.3687 8.19125 16.955 7.70375 19.88 7.56875C22.6475 7.44125 23.72 7.40375 29.3113 7.4V7.4075ZM48.0163 12.3875C47.5435 12.3875 47.0754 12.4806 46.6386 12.6615C46.2018 12.8425 45.805 13.1076 45.4707 13.4419C45.1364 13.7762 44.8712 14.1731 44.6903 14.6098C44.5094 15.0466 44.4162 15.5147 44.4162 15.9875C44.4162 16.4603 44.5094 16.9284 44.6903 17.3652C44.8712 17.8019 45.1364 18.1988 45.4707 18.5331C45.805 18.8674 46.2018 19.1325 46.6386 19.3135C47.0754 19.4944 47.5435 19.5875 48.0163 19.5875C48.971 19.5875 49.8867 19.2082 50.5618 18.5331C51.237 17.858 51.6162 16.9423 51.6162 15.9875C51.6162 15.0327 51.237 14.117 50.5618 13.4419C49.8867 12.7668 48.971 12.3875 48.0163 12.3875ZM32.0038 16.595C29.9603 16.5631 27.9309 16.9381 26.0337 17.698C24.1365 18.458 22.4094 19.5878 20.9531 21.0216C19.4967 22.4554 18.3401 24.1646 17.5507 26.0497C16.7612 27.9348 16.3546 29.9581 16.3546 32.0019C16.3546 34.0456 16.7612 36.0689 17.5507 37.954C18.3401 39.8391 19.4967 41.5483 20.9531 42.9822C22.4094 44.416 24.1365 45.5458 26.0337 46.3057C27.9309 47.0657 29.9603 47.4406 32.0038 47.4088C36.0483 47.3456 39.9058 45.6947 42.7437 42.8122C45.5815 39.9297 47.1721 36.0469 47.1721 32.0019C47.1721 27.9569 45.5815 24.074 42.7437 21.1916C39.9058 18.3091 36.0483 16.6581 32.0038 16.595ZM32.0038 21.9988C34.6562 21.9988 37.2001 23.0525 39.0757 24.928C40.9513 26.8036 42.005 29.3475 42.005 32C42.005 34.6525 40.9513 37.1964 39.0757 39.072C37.2001 40.9475 34.6562 42.0013 32.0038 42.0013C29.3513 42.0013 26.8074 40.9475 24.9318 39.072C23.0562 37.1964 22.0025 34.6525 22.0025 32C22.0025 29.3475 23.0562 26.8036 24.9318 24.928C26.8074 23.0525 29.3513 21.9988 32.0038 21.9988Z" fill="#F6F6F6"/>
<path d="M47.8765 6.14488L47.8774 6.14522C49.3403 6.71389 50.4004 7.4045 51.4998 8.50395C52.5993 9.60344 53.2861 10.6598 53.8546 12.1258C54.287 13.2305 54.7857 14.8743 54.9195 17.8531C54.9195 17.8534 54.9195 17.8536 54.9195 17.8538L54.42 17.8763C54.5662 21.0375 54.5962 21.9862 54.5962 29.9925L47.8765 6.14488ZM47.8765 6.14488C46.7702 5.71727 45.1271 5.2143 42.1465 5.08052C38.9735 4.93372 38.015 4.9075 30.0038 4.9075H27.8113V4.89966L27.3109 4.9C21.7148 4.90375 20.6343 4.94133 17.857 5.06928L17.8569 5.06928C14.8775 5.20679 13.2378 5.70569 12.13 6.13777L47.8765 6.14488ZM17.6591 0.679479C20.8455 0.537528 21.8615 0.500023 29.9925 0.5L2.04094 49.4686C1.32074 47.6171 0.827328 45.4929 0.679476 42.3446C0.537484 39.1572 0.5 38.1453 0.5 30.0038C0.5 21.8545 0.537486 20.8427 0.67949 17.6476C0.823597 14.5074 1.32062 12.3795 2.04086 10.5316L2.04089 10.5316L2.04289 10.5263C2.77144 8.59265 3.91247 6.84093 5.38662 5.39296L5.38668 5.39302L5.39315 5.38642C6.84025 3.91149 8.59203 2.77043 10.526 2.04299L10.526 2.04302L10.5313 2.04099C12.3827 1.32078 14.507 0.82734 17.6591 0.679479ZM30 0.5C30.0013 0.5 30.0025 0.5 30.0038 0.5C38.1427 0.500035 39.1512 0.537551 42.3411 0.679485C45.4849 0.823582 47.6132 1.32059 49.469 2.04111L49.469 2.04113L49.4741 2.04305C51.4083 2.76982 53.1602 3.91091 54.6067 5.3863L54.6067 5.38636L54.6134 5.39298C56.0876 6.84086 57.2287 8.59259 57.9571 10.5263L57.9588 10.5308C58.6756 12.3792 59.1727 14.5075 59.3205 17.6516C59.4625 20.8427 59.5 21.8546 59.5 30C59.5 38.1449 59.4625 39.1571 59.3205 42.3441C59.1728 45.4917 58.6758 47.6165 57.959 49.4689C57.2134 51.3817 56.2262 52.9942 54.6102 54.6102L54.6068 54.6137C53.1608 56.0882 51.4103 57.2293 49.4776 57.9571L49.4775 57.957L49.4725 57.959C47.6211 58.6792 45.4894 59.1727 42.3446 59.3205C39.1535 59.4625 38.1453 59.5 30 59.5C21.8547 59.5 20.8428 59.4625 17.6516 59.3205C14.5041 59.1764 12.3833 58.6795 10.5272 57.9589L10.527 57.9588C8.61505 57.2173 7.00272 56.2267 5.3902 54.6106L5.3898 54.6102C3.77376 52.9942 2.78655 51.3817 2.04099 49.4687L30 0.5ZM44.8299 11.1235C45.206 10.9677 45.6092 10.8875 46.0163 10.8875C46.8384 10.8875 47.6269 11.2141 48.2083 11.7955C48.7896 12.3768 49.1162 13.1653 49.1162 13.9875C49.1162 14.8097 48.7896 15.5982 48.2083 16.1795C47.6269 16.7609 46.8384 17.0875 46.0163 17.0875C45.6092 17.0875 45.206 17.0073 44.8299 16.8515C44.4538 16.6957 44.1121 16.4674 43.8242 16.1795C43.5364 15.8917 43.308 15.5499 43.1522 15.1738C42.9964 14.7977 42.9162 14.3946 42.9162 13.9875C42.9162 13.5804 42.9964 13.1773 43.1522 12.8012C43.308 12.4251 43.5364 12.0833 43.8242 11.7955C44.1121 11.5076 44.4538 11.2793 44.8299 11.1235ZM24.2196 16.1622C26.0552 15.4269 28.0188 15.0641 29.996 15.0949C33.9092 15.156 37.6416 16.7534 40.3874 19.5423C43.1331 22.3313 44.6721 26.0881 44.6721 30.0019C44.6721 33.9156 43.1331 37.6725 40.3874 40.4614C37.6416 43.2504 33.9092 44.8478 29.996 44.9088C28.0188 44.9397 26.0552 44.5769 24.2196 43.8416C22.384 43.1063 20.713 42.0132 19.3038 40.6259C17.8947 39.2386 16.7757 37.5848 16.0118 35.7609C15.248 33.937 14.8546 31.9793 14.8546 30.0019C14.8546 28.0245 15.248 26.0668 16.0118 24.2429C16.7757 22.4189 17.8947 20.7652 19.3038 19.3779C20.713 17.9906 22.384 16.8975 24.2196 16.1622ZM37.4293 22.5745C35.4599 20.6051 32.7889 19.4988 30.0038 19.4988C27.2186 19.4988 24.5476 20.6051 22.5782 22.5745C20.6089 24.5439 19.5025 27.2149 19.5025 30C19.5025 32.7851 20.6089 35.4561 22.5782 37.4255C24.5476 39.3949 27.2186 40.5013 30.0038 40.5013C32.7889 40.5013 35.4599 39.3949 37.4293 37.4255C39.3986 35.4561 40.505 32.7851 40.505 30C40.505 27.2149 39.3986 24.5439 37.4293 22.5745Z" fill="#CDB4FF" stroke="#F6F6F6"/>
</svg>
