<svg width="20" height="20" viewBox="0 0 62 62" fill="none" xmlns="http://www.w3.org/2000/svg">
<path d="M32 2C23.8587 2 22.835 2.0375 19.6362 2.18C16.4375 2.33 14.2587 2.8325 12.35 3.575C10.3479 4.32807 8.53434 5.50935 7.03625 7.03625C5.51029 8.53511 4.32915 10.3484 3.575 12.35C2.8325 14.255 2.32625 16.4375 2.18 19.625C2.0375 22.8312 2 23.8513 2 32.0038C2 40.1488 2.0375 41.1688 2.18 44.3675C2.33 47.5625 2.8325 49.7412 3.575 51.65C4.34375 53.6225 5.3675 55.295 7.03625 56.9637C8.70125 58.6325 10.3737 59.66 12.3463 60.425C14.2587 61.1675 16.4338 61.6737 19.6287 61.82C22.8313 61.9625 23.8512 62 32 62C40.1488 62 41.165 61.9625 44.3675 61.82C47.5588 61.67 49.745 61.1675 51.6538 60.425C53.6546 59.6716 55.4668 58.4903 56.9637 56.9637C58.6325 55.295 59.6562 53.6225 60.425 51.65C61.1637 49.7412 61.67 47.5625 61.82 44.3675C61.9625 41.1688 62 40.1488 62 32C62 23.8512 61.9625 22.8313 61.82 19.6287C61.67 16.4375 61.1637 14.255 60.425 12.35C59.671 10.3483 58.4898 8.53503 56.9637 7.03625C55.4661 5.50878 53.6525 4.32742 51.65 3.575C49.7375 2.8325 47.555 2.32625 44.3638 2.18C41.1613 2.0375 40.145 2 31.9925 2H32.0038H32ZM29.3113 7.4075H32.0038C40.0138 7.4075 40.9625 7.43375 44.1237 7.58C47.0487 7.71125 48.6387 8.2025 49.6963 8.61125C51.095 9.155 52.0962 9.8075 53.1462 10.8575C54.1963 11.9075 54.845 12.905 55.3888 14.3075C55.8013 15.3612 56.2887 16.9513 56.42 19.8763C56.5662 23.0375 56.5962 23.9862 56.5962 31.9925C56.5962 39.9987 56.5662 40.9512 56.42 44.1125C56.2887 47.0375 55.7975 48.6237 55.3888 49.6813C54.9078 50.9838 54.1401 52.1616 53.1425 53.1275C52.0925 54.1775 51.095 54.8263 49.6925 55.37C48.6425 55.7825 47.0525 56.27 44.1237 56.405C40.9625 56.5475 40.0138 56.5813 32.0038 56.5813C23.9938 56.5813 23.0413 56.5475 19.88 56.405C16.955 56.27 15.3687 55.7825 14.3112 55.37C13.0081 54.8897 11.8292 54.1234 10.8612 53.1275C9.86282 52.1601 9.09396 50.9812 8.61125 49.6775C8.2025 48.6237 7.71125 47.0337 7.58 44.1087C7.4375 40.9475 7.4075 39.9987 7.4075 31.985C7.4075 23.975 7.4375 23.03 7.58 19.8687C7.715 16.9437 8.2025 15.3538 8.615 14.2963C9.15875 12.8975 9.81125 11.8962 10.8612 10.8462C11.9113 9.79625 12.9087 9.1475 14.3112 8.60375C15.3687 8.19125 16.955 7.70375 19.88 7.56875C22.6475 7.44125 23.72 7.40375 29.3113 7.4V7.4075ZM48.0163 12.3875C47.5435 12.3875 47.0754 12.4806 46.6386 12.6615C46.2018 12.8425 45.805 13.1076 45.4707 13.4419C45.1364 13.7762 44.8712 14.1731 44.6903 14.6098C44.5094 15.0466 44.4162 15.5147 44.4162 15.9875C44.4162 16.4603 44.5094 16.9284 44.6903 17.3652C44.8712 17.8019 45.1364 18.1988 45.4707 18.5331C45.805 18.8674 46.2018 19.1325 46.6386 19.3135C47.0754 19.4944 47.5435 19.5875 48.0163 19.5875C48.971 19.5875 49.8867 19.2082 50.5618 18.5331C51.237 17.858 51.6162 16.9423 51.6162 15.9875C51.6162 15.0327 51.237 14.117 50.5618 13.4419C49.8867 12.7668 48.971 12.3875 48.0163 12.3875ZM32.0038 16.595C29.9603 16.5631 27.9309 16.9381 26.0337 17.698C24.1365 18.458 22.4094 19.5878 20.9531 21.0216C19.4967 22.4554 18.3401 24.1646 17.5507 26.0497C16.7612 27.9348 16.3546 29.9581 16.3546 32.0019C16.3546 34.0456 16.7612 36.0689 17.5507 37.954C18.3401 39.8391 19.4967 41.5483 20.9531 42.9822C22.4094 44.416 24.1365 45.5458 26.0337 46.3057C27.9309 47.0657 29.9603 47.4406 32.0038 47.4088C36.0483 47.3456 39.9058 45.6947 42.7437 42.8122C45.5815 39.9297 47.1721 36.0469 47.1721 32.0019C47.1721 27.9569 45.5815 24.074 42.7437 21.1916C39.9058 18.3091 36.0483 16.6581 32.0038 16.595ZM32.0038 21.9988C34.6562 21.9988 37.2001 23.0525 39.0757 24.928C40.9513 26.8036 42.005 29.3475 42.005 32C42.005 34.6525 40.9513 37.1964 39.0757 39.072C37.2001 40.9475 34.6562 42.0013 32.0038 42.0013C29.3513 42.0013 26.8074 40.9475 24.9318 39.072C23.0562 37.1964 22.0025 34.6525 22.0025 32C22.0025 29.3475 23.0562 26.8036 24.9318 24.928C26.8074 23.0525 29.3513 21.9988 32.0038 21.9988Z" fill="CDB4FF"/>
<path d="M30 0C21.8587 0 20.835 0.0375 17.6362 0.18C14.4375 0.33 12.2587 0.8325 10.35 1.575C8.34785 2.32807 6.53434 3.50935 5.03625 5.03625C3.51029 6.53511 2.32915 8.3484 1.575 10.35C0.8325 12.255 0.32625 14.4375 0.18 17.625C0.0375 20.8312 0 21.8513 0 30.0038C0 38.1488 0.0375 39.1688 0.18 42.3675C0.33 45.5625 0.8325 47.7412 1.575 49.65C2.34375 51.6225 3.3675 53.295 5.03625 54.9637C6.70125 56.6325 8.37375 57.66 10.3463 58.425C12.2587 59.1675 14.4338 59.6737 17.6287 59.82C20.8313 59.9625 21.8512 60 30 60C38.1488 60 39.165 59.9625 42.3675 59.82C45.5588 59.67 47.745 59.1675 49.6538 58.425C51.6546 57.6716 53.4668 56.4903 54.9637 54.9637C56.6325 53.295 57.6562 51.6225 58.425 49.65C59.1637 47.7412 59.67 45.5625 59.82 42.3675C59.9625 39.1688 60 38.1488 60 30C60 21.8512 59.9625 20.8313 59.82 17.6287C59.67 14.4375 59.1637 12.255 58.425 10.35C57.671 8.34834 56.4898 6.53503 54.9637 5.03625C53.4661 3.50878 51.6525 2.32742 49.65 1.575C47.7375 0.8325 45.555 0.32625 42.3638 0.18C39.1613 0.0375 38.145 0 29.9925 0H30.0038H30ZM27.3113 5.4075H30.0038C38.0138 5.4075 38.9625 5.43375 42.1237 5.58C45.0487 5.71125 46.6387 6.2025 47.6963 6.61125C49.095 7.155 50.0962 7.8075 51.1462 8.8575C52.1963 9.9075 52.845 10.905 53.3888 12.3075C53.8013 13.3612 54.2887 14.9513 54.42 17.8763C54.5662 21.0375 54.5962 21.9862 54.5962 29.9925C54.5962 37.9987 54.5662 38.9512 54.42 42.1125C54.2887 45.0375 53.7975 46.6237 53.3888 47.6813C52.9078 48.9838 52.1401 50.1616 51.1425 51.1275C50.0925 52.1775 49.095 52.8263 47.6925 53.37C46.6425 53.7825 45.0525 54.27 42.1237 54.405C38.9625 54.5475 38.0138 54.5813 30.0038 54.5813C21.9938 54.5813 21.0413 54.5475 17.88 54.405C14.955 54.27 13.3687 53.7825 12.3112 53.37C11.0081 52.8897 9.82922 52.1234 8.86125 51.1275C7.86282 50.1601 7.09396 48.9812 6.61125 47.6775C6.2025 46.6237 5.71125 45.0337 5.58 42.1087C5.4375 38.9475 5.4075 37.9987 5.4075 29.985C5.4075 21.975 5.4375 21.03 5.58 17.8687C5.715 14.9437 6.2025 13.3538 6.615 12.2963C7.15875 10.8975 7.81125 9.89625 8.86125 8.84625C9.91125 7.79625 10.9087 7.1475 12.3112 6.60375C13.3687 6.19125 14.955 5.70375 17.88 5.56875C20.6475 5.44125 21.72 5.40375 27.3113 5.4V5.4075ZM46.0163 10.3875C45.5435 10.3875 45.0754 10.4806 44.6386 10.6615C44.2018 10.8425 43.805 11.1076 43.4707 11.4419C43.1364 11.7762 42.8712 12.1731 42.6903 12.6098C42.5094 13.0466 42.4162 13.5147 42.4162 13.9875C42.4162 14.4603 42.5094 14.9284 42.6903 15.3652C42.8712 15.8019 43.1364 16.1988 43.4707 16.5331C43.805 16.8674 44.2018 17.1325 44.6386 17.3135C45.0754 17.4944 45.5435 17.5875 46.0163 17.5875C46.971 17.5875 47.8867 17.2082 48.5618 16.5331C49.237 15.858 49.6162 14.9423 49.6162 13.9875C49.6162 13.0327 49.237 12.117 48.5618 11.4419C47.8867 10.7668 46.971 10.3875 46.0163 10.3875ZM30.0038 14.595C27.9603 14.5631 25.9309 14.9381 24.0337 15.698C22.1365 16.458 20.4094 17.5878 18.9531 19.0216C17.4967 20.4554 16.3401 22.1646 15.5507 24.0497C14.7612 25.9348 14.3546 27.9581 14.3546 30.0019C14.3546 32.0456 14.7612 34.0689 15.5507 35.954C16.3401 37.8391 17.4967 39.5483 18.9531 40.9822C20.4094 42.416 22.1365 43.5458 24.0337 44.3057C25.9309 45.0657 27.9603 45.4406 30.0038 45.4088C34.0483 45.3456 37.9058 43.6947 40.7437 40.8122C43.5815 37.9297 45.1721 34.0469 45.1721 30.0019C45.1721 25.9569 43.5815 22.074 40.7437 19.1916C37.9058 16.3091 34.0483 14.6581 30.0038 14.595ZM30.0038 19.9988C32.6562 19.9988 35.2001 21.0525 37.0757 22.928C38.9513 24.8036 40.005 27.3475 40.005 30C40.005 32.6525 38.9513 35.1964 37.0757 37.072C35.2001 38.9475 32.6562 40.0013 30.0038 40.0013C27.3513 40.0013 24.8074 38.9475 22.9318 37.072C21.0562 35.1964 20.0025 32.6525 20.0025 30C20.0025 27.3475 21.0562 24.8036 22.9318 22.928C24.8074 21.0525 27.3513 19.9988 30.0038 19.9988Z" fill="#FFFFFF"/>
</svg>
