<svg width="47" height="58" viewBox="0 0 47 58" fill="none" xmlns="http://www.w3.org/2000/svg">
<path d="M43.626 19.5H27.3981L33.3886 5.30313C33.9511 3.64063 32.334 2 30.1262 2H9.8764C8.18892 2 6.75456 2.97344 6.52956 4.275L2.02961 30.525C1.76243 32.1 3.33741 33.5 5.37645 33.5H22.0684L15.5857 54.7734C15.0795 56.4359 16.7107 58 18.8622 58C20.0435 58 21.1685 57.5187 21.7872 56.6875L46.5369 23.4375C47.8447 21.6984 46.2275 19.5 43.626 19.5Z" fill="#3E3E3E"/>
<path d="M24.9374 17.3056L24.6444 18H25.3981H41.626C42.7901 18 43.6858 18.491 44.1452 19.1135C44.5915 19.7183 44.647 20.4592 44.1373 21.137L44.1358 21.139L19.3861 54.389C18.8823 55.0658 17.9234 55.5 16.8622 55.5C15.9033 55.5 15.0873 55.1509 14.5766 54.6524C14.0717 54.1595 13.8749 53.5403 14.064 52.9191L20.5467 31.6458L20.7435 31H20.0684H3.37645C2.46792 31 1.68586 30.6876 1.17038 30.2294C0.657771 29.7738 0.423388 29.1944 0.522486 28.6091C0.522514 28.609 0.522541 28.6088 0.522569 28.6086L5.02225 2.36017C5.02227 2.36006 5.02229 2.35994 5.02231 2.35983C5.19174 1.38104 6.33726 0.5 7.8764 0.5H28.1262C29.1099 0.5 29.9335 0.865817 30.4404 1.37936C30.9377 1.88321 31.122 2.51047 30.9204 3.12664L24.9374 17.3056Z" fill="#CDB4FF" stroke="#3E3E3E"/>
</svg>
