<svg width="120" height="47" viewBox="0 0 187 47" fill="none" xmlns="http://www.w3.org/2000/svg">
<path d="M19.8889 12.365H28.2924V36.8553C28.2924 43.098 24.6909 46.4594 15.0869 46.4594C4.76248 46.4594 1.40106 44.0584 1.40106 38.7761C1.40106 35.5748 3.16181 33.5739 6.28313 32.5335C3.36189 31.1329 1.88127 28.892 1.88127 25.5706V22.4492C1.88127 15.2462 5.00259 11.8848 10.5249 11.8848C15.0869 11.8848 17.2478 13.0853 18.6884 16.2066L19.8889 12.365ZM18.6884 36.8553V33.2538C17.888 34.2942 16.3274 34.9345 14.6066 34.9345C11.9655 34.9345 11.0051 35.8949 11.0051 37.3355C11.0051 38.7761 11.5654 39.2563 14.8467 39.2563C17.888 39.2563 18.6884 38.7761 18.6884 36.8553ZM15.0869 21.4888C12.4457 21.4888 11.4853 22.6893 11.4853 24.37C11.4853 26.0508 12.4457 27.2513 15.0869 27.2513C17.728 27.2513 18.6884 26.0508 18.6884 24.37C18.6884 22.6893 17.728 21.4888 15.0869 21.4888Z" fill="#F6F6F6"/>
<path d="M43.9394 36.8553C34.3353 36.8553 30.7338 33.4939 30.7338 27.2513V21.4888C30.7338 15.2462 34.3353 11.8848 43.9394 11.8848C54.0237 11.8848 57.145 14.2858 57.145 21.2487V26.531H40.3379V27.2513C40.3379 29.1321 41.0582 29.6523 43.9394 29.6523C46.8206 29.6523 47.5409 29.3321 47.5409 28.4518V27.9716H57.145V28.4518C57.145 34.7744 54.0237 36.8553 43.9394 36.8553ZM40.3379 21.969H47.5409V21.2487C47.5409 19.568 46.8206 19.0878 43.9394 19.0878C41.0582 19.0878 40.3379 19.608 40.3379 21.4888V21.969Z" fill="#F6F6F6"/>
<path d="M88.3578 2.76074H97.9619V9.96379L95.801 17.1668H89.7984V12.3648H88.3578V2.76074Z" fill="#F6F6F6"/>
<path d="M99.8832 19.568C99.8832 14.766 103.725 11.8848 113.569 11.8848C123.893 11.8848 126.775 14.2858 126.775 18.6076V20.7685H117.17V20.2883C117.17 19.568 116.69 19.568 113.569 19.568C110.208 19.568 109.487 19.568 109.487 20.5284C109.487 21.2487 109.967 21.4888 113.569 21.7289C124.374 22.4492 127.255 23.6497 127.255 29.1721C127.255 33.9741 123.413 36.8553 113.569 36.8553C103.725 36.8553 100.363 34.4543 100.363 30.1325V27.9716H109.967V28.4518C109.967 29.1721 110.448 29.1721 113.569 29.1721C116.93 29.1721 117.651 29.1721 117.651 28.2117C117.651 27.4914 117.17 27.2513 113.569 27.0112C103.965 26.2909 99.8832 25.0903 99.8832 19.568Z" fill="#F6F6F6"/>
<path d="M129.175 2.76074H138.779V10.2039H129.175V2.76074ZM129.175 12.3648H138.779V36.375H129.175V12.3648Z" fill="#F6F6F6"/>
<path d="M141.18 12.365H149.583L150.784 15.9665C151.504 13.3254 154.145 11.8848 157.987 11.8848C165.19 11.8848 167.591 15.9665 167.591 24.1299V36.3751H157.987V24.6101C157.987 22.6893 157.027 21.4888 154.386 21.4888C151.744 21.4888 150.784 22.6893 150.784 24.6101V36.3751H141.18V12.365Z" fill="#F6F6F6"/>
<path d="M187 36.3749H178.356C172.754 36.3749 169.953 33.9739 169.953 29.1719V12.845L171.394 7.56274H179.557V12.3648H187V21.0084H179.557V24.8501C179.557 26.3707 180.998 26.7709 182.438 26.7709H187V36.3749Z" fill="#F6F6F6"/>
<path d="M74.4321 2.60059H71.5108C63.9076 2.60059 59.5057 5.96201 59.5057 14.3656V24.4498C59.5057 32.8134 63.9076 36.1748 71.5108 36.1748H74.4321C76.593 36.1348 78.6338 35.5745 80.3546 34.5341C79.074 33.0535 79.074 30.8925 80.3546 29.3719C81.1549 28.4515 82.2754 27.9713 83.3958 27.9713C84.1161 27.9713 84.8765 28.1714 85.5167 28.6116C86.117 27.211 86.4371 25.6503 86.4371 24.0096V14.3656C86.4371 5.96201 82.0353 2.60059 74.4321 2.60059ZM73.3516 26.9709C68.9497 26.9709 65.3482 23.4094 65.3482 18.9675C65.3482 14.5256 68.9497 10.9641 73.3516 10.9641C77.7535 10.9641 81.355 14.5656 81.355 18.9675C81.355 23.3694 77.7935 26.9709 73.3516 26.9709Z" fill="#F6F6F6"/>
<path d="M86.9572 40.2958L82.3153 36.2141C80.7146 34.8135 80.5145 32.2924 81.8751 30.6117C83.2757 28.971 85.7167 28.7709 87.3574 30.1715L91.9994 34.2533C93.6 35.6538 93.8001 38.1749 92.4395 39.8556C91.0389 41.4963 88.5979 41.6964 86.9572 40.2958Z" fill="#F6F6F6"/>
<path d="M18.4879 9.76414H26.8914V34.2545C26.8914 40.4971 23.2899 43.8586 13.6858 43.8586C3.36148 43.8586 6.10352e-05 41.4575 6.10352e-05 36.1753C6.10352e-05 32.974 1.76081 30.9731 4.88213 29.9327C1.96089 28.5321 0.480264 26.2511 0.480264 22.9697V19.8484C0.480264 12.6454 3.60158 9.28394 9.12392 9.28394C13.6858 9.28394 15.8468 10.4844 17.2874 13.6058L18.4879 9.76414ZM17.2874 34.2545V30.653C16.487 31.6934 14.9264 32.3337 13.2056 32.3337C10.5645 32.3337 9.60412 33.2941 9.60412 34.7347C9.60412 36.1753 10.1644 36.6555 13.4457 36.6555C16.487 36.6555 17.2874 36.1753 17.2874 34.2545ZM13.6858 18.888C11.0447 18.888 10.0843 20.0885 10.0843 21.7692C10.0843 23.4499 11.0447 24.6504 13.6858 24.6504C16.327 24.6504 17.2874 23.4499 17.2874 21.7692C17.2874 20.0885 16.327 18.888 13.6858 18.888Z" fill="#3E3E3E"/>
<path d="M42.4983 34.2147C32.8942 34.2147 29.2927 30.8533 29.2927 24.6106V18.8482C29.2927 12.6056 32.8942 9.24414 42.4983 9.24414C52.5826 9.24414 55.7039 11.6452 55.7039 18.6081V23.8903H38.8968V24.6106C38.8968 26.4914 39.6171 27.0117 42.4983 27.0117C45.3795 27.0117 46.0998 26.6915 46.0998 25.8111V25.3309H55.7039V25.8111C55.7039 32.1338 52.5826 34.2147 42.4983 34.2147ZM38.8968 19.3284H46.0998V18.6081C46.0998 16.9274 45.3795 16.4472 42.4983 16.4472C39.6171 16.4472 38.8968 16.9674 38.8968 18.8482V19.3284Z" fill="#3E3E3E"/>
<path d="M86.9167 0.160156H96.5207V7.3632L94.3598 14.5662H88.3573V9.76422H86.9167V0.160156Z" fill="#3E3E3E"/>
<path d="M98.442 16.9672C98.442 12.1652 102.284 9.28394 112.128 9.28394C122.452 9.28394 125.333 11.685 125.333 16.0068V18.1677H115.729V17.6875C115.729 16.9672 115.249 16.9672 112.128 16.9672C108.766 16.9672 108.046 16.9672 108.046 17.9276C108.046 18.6479 108.526 18.888 112.128 19.1281C122.932 19.8484 125.814 21.0489 125.814 26.5712C125.814 31.3733 121.972 34.2545 112.128 34.2545C102.284 34.2545 98.9222 31.8535 98.9222 27.5317V25.3707H108.526V25.8509C108.526 26.5712 109.006 26.5712 112.128 26.5712C115.489 26.5712 116.21 26.5712 116.21 25.6108C116.21 24.8905 115.729 24.6504 112.128 24.4103C102.524 23.69 98.442 22.4895 98.442 16.9672Z" fill="#3E3E3E"/>
<path d="M127.734 0.160156H137.338V7.6033H127.734V0.160156ZM127.734 9.76422H137.338V33.7744H127.734V9.76422Z" fill="#3E3E3E"/>
<path d="M139.739 9.76414H148.142L149.343 13.3657C150.063 10.7245 152.704 9.28394 156.546 9.28394C163.749 9.28394 166.15 13.3657 166.15 21.5291V33.7743H156.546V22.0093C156.546 20.0885 155.585 18.888 152.944 18.888C150.303 18.888 149.343 20.0885 149.343 22.0093V33.7743H139.739V9.76414Z" fill="#3E3E3E"/>
<path d="M185.599 33.7341H176.955C171.353 33.7341 168.552 31.3331 168.552 26.531V10.2441L169.992 4.96191H178.156V9.76395H185.599V18.4076H178.156V22.2492C178.156 23.7699 179.596 24.17 181.037 24.17H185.599V33.7741V33.7341Z" fill="#3E3E3E"/>
<path d="M73.031 0H70.1098C62.5066 0 58.1047 3.36142 58.1047 11.765V21.8492C58.1047 30.2128 62.5066 33.5742 70.1098 33.5742H73.031C75.192 33.5342 77.2328 32.9739 78.9536 31.9335C77.673 30.4529 77.673 28.292 78.9536 26.7713C79.7539 25.8509 80.8744 25.3707 81.9948 25.3707C82.7151 25.3707 83.4755 25.5708 84.1157 26.011C84.716 24.6104 85.0361 23.0497 85.0361 21.409V11.765C85.0361 3.36142 80.6343 0 73.031 0ZM71.9506 24.3703C67.5487 24.3703 63.9472 20.8088 63.9472 16.3669C63.9472 11.925 67.5487 8.36354 71.9506 8.36354C76.3524 8.36354 79.954 11.9651 79.954 16.3669C79.954 20.7688 76.3925 24.3703 71.9506 24.3703Z" fill="#3E3E3E"/>
<path d="M85.5162 37.6955L80.8742 33.6137C79.2735 32.2131 79.0735 29.6921 80.434 28.0114C81.8346 26.3707 84.2757 26.1706 85.9163 27.5712L90.5583 31.6529C92.159 33.0535 92.3591 35.5746 90.9985 37.2553C89.5979 38.896 87.1569 39.0961 85.5162 37.6955Z" fill="#3E3E3E"/>
</svg>
