<svg viewBox="0 0 188 47" fill="none" xmlns="http://www.w3.org/2000/svg">
<path d="M19.9951 12.431H28.4436V37.0523C28.4436 43.3284 24.8228 46.7078 15.1674 46.7078C4.78784 46.7078 1.40845 44.2939 1.40845 38.9834C1.40845 35.7649 3.17861 33.7534 6.31662 32.7074C3.37976 31.2993 1.89122 29.0464 1.89122 25.7072V22.5692C1.89122 15.3276 5.02923 11.9482 10.5811 11.9482C15.1674 11.9482 17.3399 13.1552 18.7882 16.2932L19.9951 12.431ZM18.7882 37.0523V33.4316C17.9836 34.4776 16.4146 35.1212 14.6847 35.1212C12.0294 35.1212 11.0639 36.0868 11.0639 37.5351C11.0639 38.9834 11.6271 39.4662 14.926 39.4662C17.9836 39.4662 18.7882 38.9834 18.7882 37.0523ZM15.1674 21.6037C12.5122 21.6037 11.5466 22.8106 11.5466 24.5003C11.5466 26.19 12.5122 27.3969 15.1674 27.3969C17.8227 27.3969 18.7882 26.19 18.7882 24.5003C18.7882 22.8106 17.8227 21.6037 15.1674 21.6037Z" fill="#CDB4FF"/>
<path d="M44.1743 37.0523C34.5189 37.0523 30.8981 33.6729 30.8981 27.3969V21.6037C30.8981 15.3276 34.5189 11.9482 44.1743 11.9482C54.3125 11.9482 57.4505 14.3621 57.4505 21.3623V26.6728H40.5535V27.3969C40.5535 29.2878 41.2776 29.8108 44.1743 29.8108C47.0709 29.8108 47.7951 29.4889 47.7951 28.6038V28.1211H57.4505V28.6038C57.4505 34.9603 54.3125 37.0523 44.1743 37.0523ZM40.5535 22.0864H47.7951V21.3623C47.7951 19.6726 47.0709 19.1898 44.1743 19.1898C41.2776 19.1898 40.5535 19.7128 40.5535 21.6037V22.0864Z" fill="#CDB4FF"/>
<path d="M88.8302 2.77563H98.4856V10.0172L96.3132 17.2588H90.2785V12.4311H88.8302V2.77563Z" fill="#CDB4FF"/>
<path d="M100.417 19.6726C100.417 14.8449 104.28 11.9482 114.176 11.9482C124.556 11.9482 127.453 14.3621 127.453 18.707V20.8795H117.797V20.3967C117.797 19.6726 117.314 19.6726 114.176 19.6726C110.797 19.6726 110.073 19.6726 110.073 20.6381C110.073 21.3623 110.556 21.6037 114.176 21.845C125.039 22.5692 127.935 23.7761 127.935 29.328C127.935 34.1557 124.073 37.0523 114.176 37.0523C104.28 37.0523 100.9 34.6385 100.9 30.2935V28.1211H110.556V28.6038C110.556 29.328 111.038 29.328 114.176 29.328C117.556 29.328 118.28 29.328 118.28 28.3625C118.28 27.6383 117.797 27.3969 114.176 27.1555C104.521 26.4314 100.417 25.2244 100.417 19.6726Z" fill="#CDB4FF"/>
<path d="M129.865 2.77563H139.521V10.2586H129.865V2.77563ZM129.865 12.4311H139.521V36.5696H129.865V12.4311Z" fill="#CDB4FF"/>
<path d="M141.935 12.431H150.383L151.59 16.0518C152.315 13.3966 154.97 11.9482 158.832 11.9482C166.073 11.9482 168.487 16.0518 168.487 24.2589V36.5696H158.832V24.7417C158.832 22.8106 157.866 21.6037 155.211 21.6037C152.556 21.6037 151.59 22.8106 151.59 24.7417V36.5696H141.935V12.431Z" fill="#CDB4FF"/>
<path d="M188 36.5693H179.31C173.678 36.5693 170.862 34.1554 170.862 29.3277V12.9135L172.31 7.60303H180.517V12.4307H188V21.1206H180.517V24.9828C180.517 26.5116 181.965 26.9139 183.414 26.9139H188V36.5693Z" fill="#CDB4FF"/>
<path d="M74.8301 2.6145H71.8933C64.2494 2.6145 59.824 5.9939 59.824 14.4424V24.5806C59.824 32.9888 64.2494 36.3682 71.8933 36.3682H74.8301C77.0026 36.328 79.0544 35.7648 80.7843 34.7188C79.4969 33.2302 79.4969 31.0578 80.7843 29.529C81.5889 28.6037 82.7154 28.1209 83.8418 28.1209C84.566 28.1209 85.3304 28.3221 85.9741 28.7646C86.5775 27.3565 86.8994 25.7875 86.8994 24.138V14.4424C86.8994 5.9939 82.474 2.6145 74.8301 2.6145ZM73.7439 27.1151C69.3185 27.1151 65.6977 23.5346 65.6977 19.0689C65.6977 14.6033 69.3185 11.0228 73.7439 11.0228C78.1693 11.0228 81.7901 14.6435 81.7901 19.0689C81.7901 23.4943 78.2095 27.1151 73.7439 27.1151Z" fill="#CDB4FF"/>
<path d="M87.4223 40.5114L82.7555 36.4079C81.1463 34.9998 80.9451 32.4653 82.3129 30.7756C83.721 29.1261 86.1751 28.9249 87.8246 30.333L92.4914 34.4366C94.1006 35.8446 94.3018 38.3792 92.9339 40.0689C91.5258 41.7184 89.0717 41.9195 87.4223 40.5114Z" fill="#CDB4FF"/>
<path d="M18.5867 9.81651H27.0352V34.4378C27.0352 40.7139 23.4144 44.0933 13.759 44.0933C3.3794 44.0933 0 41.6794 0 36.3689C0 33.1504 1.77016 31.1389 4.90817 30.0929C1.97132 28.6848 0.482771 26.3916 0.482771 23.0927V19.9547C0.482771 12.7131 3.62078 9.33374 9.17265 9.33374C13.759 9.33374 15.9314 10.5407 17.3798 13.6787L18.5867 9.81651ZM17.3798 34.4378V30.8171C16.5751 31.8631 15.0061 32.5068 13.2762 32.5068C10.621 32.5068 9.65542 33.4723 9.65542 34.9206C9.65542 36.3689 10.2187 36.8517 13.5176 36.8517C16.5751 36.8517 17.3798 36.3689 17.3798 34.4378ZM13.759 18.9892C11.1037 18.9892 10.1382 20.1961 10.1382 21.8858C10.1382 23.5755 11.1037 24.7824 13.759 24.7824C16.4142 24.7824 17.3798 23.5755 17.3798 21.8858C17.3798 20.1961 16.4142 18.9892 13.759 18.9892Z" fill="white"/>
<path d="M42.7257 34.3976C33.0702 34.3976 29.4495 31.0182 29.4495 24.7421V18.9489C29.4495 12.6729 33.0702 9.29346 42.7257 9.29346C52.8639 9.29346 56.0019 11.7073 56.0019 18.7075V24.018H39.1049V24.7421C39.1049 26.633 39.829 27.156 42.7257 27.156C45.6223 27.156 46.3464 26.8341 46.3464 25.9491V25.4663H56.0019V25.9491C56.0019 32.3055 52.8639 34.3976 42.7257 34.3976ZM39.1049 19.4316H46.3464V18.7075C46.3464 17.0178 45.6223 16.535 42.7257 16.535C39.829 16.535 39.1049 17.058 39.1049 18.9489V19.4316Z" fill="white"/>
<path d="M87.3816 0.161133H97.037V7.4027L94.8645 14.6443H88.8299V9.81655H87.3816V0.161133Z" fill="white"/>
<path d="M98.9685 17.0581C98.9685 12.2304 102.831 9.33374 112.727 9.33374C123.107 9.33374 126.004 11.7476 126.004 16.0925V18.265H116.348V17.7822C116.348 17.0581 115.865 17.0581 112.727 17.0581C109.348 17.0581 108.624 17.0581 108.624 18.0236C108.624 18.7478 109.107 18.9892 112.727 19.2305C123.59 19.9547 126.486 21.1616 126.486 26.7135C126.486 31.5412 122.624 34.4378 112.727 34.4378C102.831 34.4378 99.4513 32.024 99.4513 27.679V25.5066H109.107V25.9893C109.107 26.7135 109.589 26.7135 112.727 26.7135C116.107 26.7135 116.831 26.7135 116.831 25.748C116.831 25.0238 116.348 24.7824 112.727 24.541C103.072 23.8169 98.9685 22.6099 98.9685 17.0581Z" fill="white"/>
<path d="M128.417 0.161133H138.072V7.64408H128.417V0.161133ZM128.417 9.81655H138.072V33.9551H128.417V9.81655Z" fill="white"/>
<path d="M140.486 9.81651H148.935L150.142 13.4373C150.866 10.7821 153.521 9.33374 157.383 9.33374C164.625 9.33374 167.038 13.4373 167.038 21.6444V33.9551H157.383V22.1272C157.383 20.1961 156.418 18.9892 153.762 18.9892C151.107 18.9892 150.142 20.1961 150.142 22.1272V33.9551H140.486V9.81651Z" fill="white"/>
<path d="M186.592 33.9146H177.902C172.269 33.9146 169.453 31.5007 169.453 26.673V10.299L170.901 4.98853H179.109V9.81624H186.592V18.5061H179.109V22.3683C179.109 23.8971 180.557 24.2994 182.005 24.2994H186.592V33.9548V33.9146Z" fill="white"/>
<path d="M73.4217 0H70.4848C62.8409 0 58.4155 3.3794 58.4155 11.8279V21.9661C58.4155 30.3743 62.8409 33.7537 70.4848 33.7537H73.4217C75.5941 33.7135 77.6459 33.1503 79.3758 32.1043C78.0884 30.6157 78.0884 28.4433 79.3758 26.9145C80.1804 25.9892 81.3069 25.5064 82.4334 25.5064C83.1575 25.5064 83.9219 25.7076 84.5656 26.1501C85.1691 24.742 85.4909 23.173 85.4909 21.5235V11.8279C85.4909 3.3794 81.0655 0 73.4217 0ZM72.3354 24.5006C67.91 24.5006 64.2892 20.9201 64.2892 16.4544C64.2892 11.9888 67.91 8.40826 72.3354 8.40826C76.7608 8.40826 80.3816 12.029 80.3816 16.4544C80.3816 20.8798 76.8011 24.5006 72.3354 24.5006Z" fill="white"/>
<path d="M85.9735 37.8972L81.3068 33.7936C79.6975 32.3855 79.4964 29.851 80.8642 28.1613C82.2723 26.5118 84.7264 26.3107 86.3758 27.7188L91.0426 31.8223C92.6519 33.2304 92.853 35.7649 91.4852 37.4546C90.0771 39.1041 87.623 39.3053 85.9735 37.8972Z" fill="white"/>
</svg>
