<svg width="24" height="20" viewBox="0 0 24 20" fill="none" xmlns="http://www.w3.org/2000/svg">
<path fill-rule="evenodd" clip-rule="evenodd" d="M8.58083 3.27419C8.58083 3.07314 8.66069 2.88033 8.80286 2.73816C8.94502 2.596 9.13784 2.51613 9.33889 2.51613H21.4679C21.669 2.51613 21.8618 2.596 22.004 2.73816C22.1461 2.88033 22.226 3.07314 22.226 3.27419V16.9194C22.226 17.1204 22.1461 17.3132 22.004 17.4554C21.8618 17.5976 21.669 17.6774 21.4679 17.6774H9.33889C9.13784 17.6774 8.94502 17.5976 8.80286 17.4554C8.66069 17.3132 8.58083 17.1204 8.58083 16.9194V13.8871C8.58083 13.686 8.50096 13.4932 8.35879 13.3511C8.21663 13.2089 8.02381 13.129 7.82276 13.129C7.62171 13.129 7.42889 13.2089 7.28673 13.3511C7.14456 13.4932 7.0647 13.686 7.0647 13.8871V16.9194C7.0647 17.5225 7.3043 18.101 7.73079 18.5275C8.15729 18.9539 8.73574 19.1935 9.33889 19.1935H21.4679C22.0711 19.1935 22.6495 18.9539 23.076 18.5275C23.5025 18.101 23.7421 17.5225 23.7421 16.9194V3.27419C23.7421 2.67104 23.5025 2.09259 23.076 1.6661C22.6495 1.2396 22.0711 1 21.4679 1H9.33889C8.73574 1 8.15729 1.2396 7.73079 1.6661C7.3043 2.09259 7.0647 2.67104 7.0647 3.27419V6.30645C7.0647 6.5075 7.14456 6.70032 7.28673 6.84248C7.42889 6.98465 7.62171 7.06452 7.82276 7.06452C8.02381 7.06452 8.21663 6.98465 8.35879 6.84248C8.50096 6.70032 8.58083 6.5075 8.58083 6.30645V3.27419Z" fill="#BFFFD6"/>
<path fill-rule="evenodd" clip-rule="evenodd" d="M17.4561 10.6332C17.5267 10.5628 17.5827 10.4791 17.6209 10.387C17.6591 10.2949 17.6788 10.1962 17.6788 10.0965C17.6788 9.99676 17.6591 9.89803 17.6209 9.80593C17.5827 9.71383 17.5267 9.63018 17.4561 9.55976L12.9077 5.01138C12.8372 4.94089 12.7535 4.88498 12.6614 4.84684C12.5693 4.8087 12.4706 4.78906 12.371 4.78906C12.2713 4.78906 12.1726 4.8087 12.0805 4.84684C11.9884 4.88498 11.9047 4.94089 11.8343 5.01138C11.7638 5.08186 11.7079 5.16553 11.6697 5.25762C11.6316 5.34971 11.6119 5.44841 11.6119 5.54808C11.6119 5.64776 11.6316 5.74646 11.6697 5.83855C11.7079 5.93064 11.7638 6.01431 11.8343 6.08479L15.0894 9.33841H1.75806C1.55701 9.33841 1.3642 9.41827 1.22203 9.56044C1.07987 9.7026 1 9.89542 1 10.0965C1 10.2975 1.07987 10.4903 1.22203 10.6325C1.3642 10.7747 1.55701 10.8545 1.75806 10.8545H15.0894L11.8343 14.1081C11.7638 14.1786 11.7079 14.2623 11.6697 14.3544C11.6316 14.4465 11.6119 14.5452 11.6119 14.6449C11.6119 14.7445 11.6316 14.8432 11.6697 14.9353C11.7079 15.0274 11.7638 15.1111 11.8343 15.1816C11.9047 15.2521 11.9884 15.308 12.0805 15.3461C12.1726 15.3842 12.2713 15.4039 12.371 15.4039C12.4706 15.4039 12.5693 15.3842 12.6614 15.3461C12.7535 15.308 12.8372 15.2521 12.9077 15.1816L17.4561 10.6332Z" fill="#BFFFD6"/>
<path fill-rule="evenodd" clip-rule="evenodd" d="M7.58083 2.27419C7.58083 2.07314 7.66069 1.88033 7.80286 1.73816C7.94502 1.596 8.13784 1.51613 8.33889 1.51613H20.4679C20.669 1.51613 20.8618 1.596 21.004 1.73816C21.1461 1.88033 21.226 2.07314 21.226 2.27419V15.9194C21.226 16.1204 21.1461 16.3132 21.004 16.4554C20.8618 16.5976 20.669 16.6774 20.4679 16.6774H8.33889C8.13784 16.6774 7.94502 16.5976 7.80286 16.4554C7.66069 16.3132 7.58083 16.1204 7.58083 15.9194V12.8871C7.58083 12.686 7.50096 12.4932 7.35879 12.3511C7.21663 12.2089 7.02381 12.129 6.82276 12.129C6.62171 12.129 6.42889 12.2089 6.28673 12.3511C6.14456 12.4932 6.0647 12.686 6.0647 12.8871V15.9194C6.0647 16.5225 6.3043 17.101 6.73079 17.5275C7.15729 17.9539 7.73574 18.1935 8.33889 18.1935H20.4679C21.0711 18.1935 21.6495 17.9539 22.076 17.5275C22.5025 17.101 22.7421 16.5225 22.7421 15.9194V2.27419C22.7421 1.67104 22.5025 1.09259 22.076 0.666096C21.6495 0.239602 21.0711 0 20.4679 0H8.33889C7.73574 0 7.15729 0.239602 6.73079 0.666096C6.3043 1.09259 6.0647 1.67104 6.0647 2.27419V5.30645C6.0647 5.5075 6.14456 5.70032 6.28673 5.84248C6.42889 5.98465 6.62171 6.06452 6.82276 6.06452C7.02381 6.06452 7.21663 5.98465 7.35879 5.84248C7.50096 5.70032 7.58083 5.5075 7.58083 5.30645V2.27419Z" fill="#3E3E3E"/>
<path fill-rule="evenodd" clip-rule="evenodd" d="M16.4561 9.63318C16.5267 9.56276 16.5827 9.47911 16.6209 9.38701C16.6591 9.29492 16.6788 9.19618 16.6788 9.09647C16.6788 8.99676 16.6591 8.89803 16.6209 8.80593C16.5827 8.71383 16.5267 8.63018 16.4561 8.55976L11.9077 4.01138C11.8372 3.94089 11.7535 3.88498 11.6614 3.84684C11.5693 3.8087 11.4706 3.78906 11.371 3.78906C11.2713 3.78906 11.1726 3.8087 11.0805 3.84684C10.9884 3.88498 10.9047 3.94089 10.8343 4.01138C10.7638 4.08186 10.7079 4.16553 10.6697 4.25762C10.6316 4.34971 10.6119 4.44841 10.6119 4.54808C10.6119 4.64776 10.6316 4.74646 10.6697 4.83855C10.7079 4.93064 10.7638 5.01431 10.8343 5.08479L14.0894 8.33841H0.758065C0.557013 8.33841 0.364197 8.41827 0.222032 8.56044C0.0798672 8.7026 0 8.89542 0 9.09647C0 9.29752 0.0798672 9.49034 0.222032 9.63251C0.364197 9.77467 0.557013 9.85454 0.758065 9.85454H14.0894L10.8343 13.1081C10.7638 13.1786 10.7079 13.2623 10.6697 13.3544C10.6316 13.4465 10.6119 13.5452 10.6119 13.6449C10.6119 13.7445 10.6316 13.8432 10.6697 13.9353C10.7079 14.0274 10.7638 14.1111 10.8343 14.1816C10.9047 14.2521 10.9884 14.308 11.0805 14.3461C11.1726 14.3842 11.2713 14.4039 11.371 14.4039C11.4706 14.4039 11.5693 14.3842 11.6614 14.3461C11.7535 14.308 11.8372 14.2521 11.9077 14.1816L16.4561 9.63318Z" fill="#3E3E3E"/>
</svg>
