<svg width="187" height="47" viewBox="0 0 187 47" fill="none" xmlns="http://www.w3.org/2000/svg">
<path d="M19.8889 12.3649H28.2924V36.8553C28.2924 43.0979 24.6909 46.4593 15.0868 46.4593C4.76248 46.4593 1.40106 44.0583 1.40106 38.7761C1.40106 35.5747 3.1618 33.5739 6.28312 32.5334C3.36189 31.1328 1.88126 28.8919 1.88126 25.5705V22.4492C1.88126 15.2461 5.00258 11.8847 10.5249 11.8847C15.0868 11.8847 17.2478 13.0852 18.6884 16.2065L19.8889 12.3649ZM18.6884 36.8553V33.2537C17.888 34.2942 16.3274 34.9345 14.6066 34.9345C11.9655 34.9345 11.0051 35.8949 11.0051 37.3355C11.0051 38.7761 11.5654 39.2563 14.8467 39.2563C17.888 39.2563 18.6884 38.7761 18.6884 36.8553ZM15.0868 21.4888C12.4457 21.4888 11.4853 22.6893 11.4853 24.37C11.4853 26.0507 12.4457 27.2512 15.0868 27.2512C17.728 27.2512 18.6884 26.0507 18.6884 24.37C18.6884 22.6893 17.728 21.4888 15.0868 21.4888Z" fill="#F6F6F6"/>
<path d="M43.9394 36.8553C34.3353 36.8553 30.7338 33.4938 30.7338 27.2512V21.4888C30.7338 15.2461 34.3353 11.8847 43.9394 11.8847C54.0237 11.8847 57.145 14.2857 57.145 21.2487V26.5309H40.3379V27.2512C40.3379 29.132 41.0582 29.6522 43.9394 29.6522C46.8206 29.6522 47.5409 29.3321 47.5409 28.4517V27.9715H57.145V28.4517C57.145 34.7744 54.0237 36.8553 43.9394 36.8553ZM40.3379 21.969H47.5409V21.2487C47.5409 19.568 46.8206 19.0878 43.9394 19.0878C41.0582 19.0878 40.3379 19.608 40.3379 21.4888V21.969Z" fill="#F6F6F6"/>
<path d="M88.3578 2.76074H97.9619V9.96379L95.801 17.1668H89.7984V12.3648H88.3578V2.76074Z" fill="#F6F6F6"/>
<path d="M99.8832 19.568C99.8832 14.7659 103.725 11.8847 113.569 11.8847C123.893 11.8847 126.775 14.2857 126.775 18.6075V20.7685H117.17V20.2883C117.17 19.568 116.69 19.568 113.569 19.568C110.208 19.568 109.487 19.568 109.487 20.5284C109.487 21.2487 109.967 21.4888 113.569 21.7289C124.374 22.4492 127.255 23.6497 127.255 29.172C127.255 33.974 123.413 36.8553 113.569 36.8553C103.725 36.8553 100.363 34.4543 100.363 30.1324V27.9715H109.967V28.4517C109.967 29.172 110.448 29.172 113.569 29.172C116.93 29.172 117.651 29.172 117.651 28.2116C117.651 27.4913 117.17 27.2512 113.569 27.0111C103.965 26.2908 99.8832 25.0903 99.8832 19.568Z" fill="#F6F6F6"/>
<path d="M129.175 2.76074H138.779V10.2039H129.175V2.76074ZM129.175 12.3648H138.779V36.375H129.175V12.3648Z" fill="#F6F6F6"/>
<path d="M141.18 12.3649H149.584L150.784 15.9664C151.504 13.3253 154.145 11.8847 157.987 11.8847C165.19 11.8847 167.591 15.9664 167.591 24.1299V36.3751H157.987V24.6101C157.987 22.6893 157.027 21.4888 154.386 21.4888C151.744 21.4888 150.784 22.6893 150.784 24.6101V36.3751H141.18V12.3649Z" fill="#F6F6F6"/>
<path d="M187 36.3749H178.356C172.754 36.3749 169.953 33.9739 169.953 29.1718V12.8449L171.394 7.56268H179.557V12.3647H187V21.0084H179.557V24.85C179.557 26.3706 180.998 26.7708 182.438 26.7708H187V36.3749Z" fill="#F6F6F6"/>
<path d="M74.432 2.60059H71.5108C63.9076 2.60059 59.5057 5.96201 59.5057 14.3656V24.4498C59.5057 32.8134 63.9076 36.1748 71.5108 36.1748H74.432C76.593 36.1348 78.6338 35.5745 80.3545 34.5341C79.074 33.0535 79.074 30.8925 80.3545 29.3719C81.1549 28.4515 82.2754 27.9713 83.3958 27.9713C84.1161 27.9713 84.8765 28.1714 85.5167 28.6116C86.117 27.211 86.4371 25.6503 86.4371 24.0096V14.3656C86.4371 5.96201 82.0353 2.60059 74.432 2.60059ZM73.3516 26.9709C68.9497 26.9709 65.3482 23.4094 65.3482 18.9675C65.3482 14.5256 68.9497 10.9641 73.3516 10.9641C77.7534 10.9641 81.355 14.5656 81.355 18.9675C81.355 23.3694 77.7935 26.9709 73.3516 26.9709Z" fill="#F6F6F6"/>
<path d="M86.9572 40.2959L82.3153 36.2142C80.7146 34.8136 80.5145 32.2925 81.8751 30.6118C83.2757 28.9711 85.7167 28.7711 87.3574 30.1717L91.9993 34.2534C93.6 35.654 93.8001 38.175 92.4395 39.8557C91.0389 41.4964 88.5979 41.6965 86.9572 40.2959Z" fill="#F6F6F6"/>
<path d="M18.4879 9.7642H26.8914V34.2546C26.8914 40.4972 23.2899 43.8586 13.6858 43.8586C3.36148 43.8586 5.72205e-05 41.4576 5.72205e-05 36.1754C5.72205e-05 32.974 1.7608 30.9732 4.88212 29.9327C1.96089 28.5321 0.48026 26.2512 0.48026 22.9698V19.8485C0.48026 12.6454 3.60158 9.284 9.12392 9.284C13.6858 9.284 15.8468 10.4845 17.2874 13.6058L18.4879 9.7642ZM17.2874 34.2546V30.653C16.487 31.6935 14.9264 32.3337 13.2056 32.3337C10.5645 32.3337 9.60412 33.2941 9.60412 34.7348C9.60412 36.1754 10.1644 36.6556 13.4457 36.6556C16.487 36.6556 17.2874 36.1754 17.2874 34.2546ZM13.6858 18.8881C11.0447 18.8881 10.0843 20.0886 10.0843 21.7693C10.0843 23.45 11.0447 24.6505 13.6858 24.6505C16.327 24.6505 17.2874 23.45 17.2874 21.7693C17.2874 20.0886 16.327 18.8881 13.6858 18.8881Z" fill="#3E3E3E"/>
<path d="M42.4983 34.2146C32.8943 34.2146 29.2927 30.8532 29.2927 24.6106V18.8481C29.2927 12.6055 32.8943 9.24408 42.4983 9.24408C52.5826 9.24408 55.7039 11.6451 55.7039 18.608V23.8903H38.8968V24.6106C38.8968 26.4914 39.6171 27.0116 42.4983 27.0116C45.3795 27.0116 46.0998 26.6915 46.0998 25.8111V25.3309H55.7039V25.8111C55.7039 32.1338 52.5826 34.2146 42.4983 34.2146ZM38.8968 19.3283H46.0998V18.608C46.0998 16.9273 45.3795 16.4471 42.4983 16.4471C39.6171 16.4471 38.8968 16.9673 38.8968 18.8481V19.3283Z" fill="#3E3E3E"/>
<path d="M86.9167 0.160034H96.5207V7.36308L94.3598 14.5661H88.3573V9.7641H86.9167V0.160034Z" fill="#3E3E3E"/>
<path d="M98.442 16.9672C98.442 12.1652 102.284 9.284 112.128 9.284C122.452 9.284 125.333 11.685 125.333 16.0068V18.1678H115.729V17.6876C115.729 16.9672 115.249 16.9672 112.128 16.9672C108.766 16.9672 108.046 16.9672 108.046 17.9277C108.046 18.648 108.526 18.8881 112.128 19.1282C122.932 19.8485 125.814 21.049 125.814 26.5713C125.814 31.3733 121.972 34.2546 112.128 34.2546C102.284 34.2546 98.9222 31.8535 98.9222 27.5317V25.3708H108.526V25.851C108.526 26.5713 109.006 26.5713 112.128 26.5713C115.489 26.5713 116.21 26.5713 116.21 25.6109C116.21 24.8906 115.729 24.6505 112.128 24.4104C102.524 23.6901 98.442 22.4896 98.442 16.9672Z" fill="#3E3E3E"/>
<path d="M127.734 0.160034H137.338V7.60318H127.734V0.160034ZM127.734 9.7641H137.338V33.7742H127.734V9.7641Z" fill="#3E3E3E"/>
<path d="M139.739 9.7642H148.142L149.343 13.3657C150.063 10.7246 152.704 9.284 156.546 9.284C163.749 9.284 166.15 13.3657 166.15 21.5292V33.7743H156.546V22.0094C156.546 20.0886 155.585 18.8881 152.944 18.8881C150.303 18.8881 149.343 20.0886 149.343 22.0094V33.7743H139.739V9.7642Z" fill="#3E3E3E"/>
<path d="M185.599 33.7342H176.955C171.353 33.7342 168.552 31.3332 168.552 26.5312V10.2443L169.992 4.96204H178.156V9.76407H185.599V18.4077H178.156V22.2493C178.156 23.77 179.596 24.1702 181.037 24.1702H185.599V33.7742V33.7342Z" fill="#3E3E3E"/>
<path d="M73.031 -6.10352e-05H70.1098C62.5066 -6.10352e-05 58.1047 3.36136 58.1047 11.7649V21.8492C58.1047 30.2127 62.5066 33.5741 70.1098 33.5741H73.031C75.192 33.5341 77.2328 32.9739 78.9535 31.9334C77.673 30.4528 77.673 28.2919 78.9535 26.7713C79.7539 25.8509 80.8744 25.3707 81.9948 25.3707C82.7151 25.3707 83.4755 25.5707 84.1157 26.0109C84.716 24.6103 85.0361 23.0497 85.0361 21.409V11.7649C85.0361 3.36136 80.6343 -6.10352e-05 73.031 -6.10352e-05ZM71.9506 24.3702C67.5487 24.3702 63.9472 20.8087 63.9472 16.3669C63.9472 11.925 67.5487 8.36347 71.9506 8.36347C76.3524 8.36347 79.954 11.965 79.954 16.3669C79.954 20.7687 76.3925 24.3702 71.9506 24.3702Z" fill="#3E3E3E"/>
<path d="M85.5162 37.6954L80.8742 33.6137C79.2735 32.2131 79.0734 29.692 80.434 28.0113C81.8346 26.3706 84.2756 26.1705 85.9163 27.5711L90.5583 31.6529C92.159 33.0534 92.3591 35.5745 90.9985 37.2552C89.5979 38.8959 87.1569 39.096 85.5162 37.6954Z" fill="#3E3E3E"/>
</svg>
