<svg width="17" height="16" viewBox="0 0 17 16" fill="none" xmlns="http://www.w3.org/2000/svg">
<path d="M17 8C17 10.1217 16.1571 12.1566 14.6569 13.6569C13.1566 15.1571 11.1217 16 9 16C6.87827 16 4.84344 15.1571 3.34315 13.6569C1.84285 12.1566 1 10.1217 1 8C1 5.87827 1.84285 3.84344 3.34315 2.34315C4.84344 0.842855 6.87827 0 9 0C11.1217 0 13.1566 0.842855 14.6569 2.34315C16.1571 3.84344 17 5.87827 17 8ZM5.5 7.5C5.36739 7.5 5.24021 7.55268 5.14645 7.64645C5.05268 7.74021 5 7.86739 5 8C5 8.13261 5.05268 8.25979 5.14645 8.35355C5.24021 8.44732 5.36739 8.5 5.5 8.5H12.5C12.6326 8.5 12.7598 8.44732 12.8536 8.35355C12.9473 8.25979 13 8.13261 13 8C13 7.86739 12.9473 7.74021 12.8536 7.64645C12.7598 7.55268 12.6326 7.5 12.5 7.5H5.5Z" fill="#3E3E3E"/>
<path d="M15.75 8C15.75 10.0554 14.9335 12.0267 13.4801 13.4801C12.0267 14.9335 10.0554 15.75 8 15.75C5.94457 15.75 3.97333 14.9335 2.51992 13.4801C1.06652 12.0267 0.25 10.0554 0.25 8C0.25 5.94457 1.06652 3.97333 2.51992 2.51992C3.97333 1.06652 5.94457 0.25 8 0.25C10.0554 0.25 12.0267 1.06652 13.4801 2.51992C14.9335 3.97333 15.75 5.94457 15.75 8ZM4.5 7.25C4.30109 7.25 4.11032 7.32902 3.96967 7.46967C3.82902 7.61032 3.75 7.80109 3.75 8C3.75 8.19891 3.82902 8.38968 3.96967 8.53033C4.11032 8.67098 4.30109 8.75 4.5 8.75H11.5C11.6989 8.75 11.8897 8.67098 12.0303 8.53033C12.171 8.38968 12.25 8.19891 12.25 8C12.25 7.80109 12.171 7.61032 12.0303 7.46967C11.8897 7.32902 11.6989 7.25 11.5 7.25H4.5Z" fill="#CDB4FF" stroke="#3E3E3E" stroke-width="0.5"/>
</svg>
