<svg width="29" height="27" viewBox="0 0 29 27" fill="none" xmlns="http://www.w3.org/2000/svg">
<path d="M9.86954 12.0621C9.86954 12.5145 9.68984 12.9483 9.36997 13.2682C9.0501 13.588 8.61626 13.7677 8.1639 13.7677C7.71153 13.7677 7.27769 13.588 6.95782 13.2682C6.63795 12.9483 6.45825 12.5145 6.45825 12.0621C6.45825 11.6097 6.63795 11.1759 6.95782 10.856C7.27769 10.5361 7.71153 10.3564 8.1639 10.3564C8.61626 10.3564 9.0501 10.5361 9.36997 10.856C9.68984 11.1759 9.86954 11.6097 9.86954 12.0621V12.0621ZM16.6921 12.0621C16.6921 12.5145 16.5124 12.9483 16.1926 13.2682C15.8727 13.588 15.4388 13.7677 14.9865 13.7677C14.5341 13.7677 14.1003 13.588 13.7804 13.2682C13.4605 12.9483 13.2808 12.5145 13.2808 12.0621C13.2808 11.6097 13.4605 11.1759 13.7804 10.856C14.1003 10.5361 14.5341 10.3564 14.9865 10.3564C15.4388 10.3564 15.8727 10.5361 16.1926 10.856C16.5124 11.1759 16.6921 11.6097 16.6921 12.0621ZM21.8091 13.7677C22.2614 13.7677 22.6953 13.588 23.0151 13.2682C23.335 12.9483 23.5147 12.5145 23.5147 12.0621C23.5147 11.6097 23.335 11.1759 23.0151 10.856C22.6953 10.5361 22.2614 10.3564 21.8091 10.3564C21.3567 10.3564 20.9229 10.5361 20.603 10.856C20.2831 11.1759 20.1034 11.6097 20.1034 12.0621C20.1034 12.5145 20.2831 12.9483 20.603 13.2682C20.9229 13.588 21.3567 13.7677 21.8091 13.7677V13.7677Z" fill="#BFFFD6"/>
<path d="M4.69272 26.2487L4.72683 26.2418C7.84817 25.6227 9.75508 24.8057 10.642 24.3571C11.9478 24.7054 13.2937 24.8809 14.6452 24.879C22.1807 24.879 28.2903 19.5335 28.2903 12.9395C28.2903 6.34549 22.1807 1 14.6452 1C7.10962 1 1 6.34549 1 12.9395C1 15.9415 2.26729 18.6875 4.36012 20.7855C4.2137 22.1331 3.91384 23.4596 3.46636 24.7392L3.46125 24.7579C3.33408 25.1244 3.19528 25.4868 3.04507 25.8444C2.91032 26.1617 3.17129 26.5165 3.51071 26.4619C3.90584 26.3972 4.2999 26.3261 4.69272 26.2487V26.2487ZM6.05724 20.9475C6.08113 20.6978 6.04965 20.4459 5.96503 20.2097C5.88042 19.9736 5.74476 19.759 5.56772 19.5813C3.75973 17.7665 2.70565 15.4434 2.70565 12.9395C2.70565 7.4951 7.8294 2.70565 14.6452 2.70565C21.4609 2.70565 26.5847 7.4951 26.5847 12.9395C26.5847 18.3856 21.4609 23.1734 14.6452 23.1734C13.4429 23.1751 12.2455 23.0192 11.0838 22.7095C10.6778 22.6007 10.2459 22.6456 9.87106 22.8357C9.21098 23.17 7.75606 23.8079 5.37839 24.3588C5.7101 23.2453 5.93736 22.1032 6.05724 20.9475V20.9475Z" fill="#BFFFD6"/>
<path d="M8.86954 11.0621C8.86954 11.5145 8.68984 11.9483 8.36997 12.2682C8.0501 12.588 7.61626 12.7677 7.1639 12.7677C6.71153 12.7677 6.27769 12.588 5.95782 12.2682C5.63795 11.9483 5.45825 11.5145 5.45825 11.0621C5.45825 10.6097 5.63795 10.1759 5.95782 9.85602C6.27769 9.53615 6.71153 9.35645 7.1639 9.35645C7.61626 9.35645 8.0501 9.53615 8.36997 9.85602C8.68984 10.1759 8.86954 10.6097 8.86954 11.0621V11.0621ZM15.6921 11.0621C15.6921 11.5145 15.5124 11.9483 15.1926 12.2682C14.8727 12.588 14.4388 12.7677 13.9865 12.7677C13.5341 12.7677 13.1003 12.588 12.7804 12.2682C12.4605 11.9483 12.2808 11.5145 12.2808 11.0621C12.2808 10.6097 12.4605 10.1759 12.7804 9.85602C13.1003 9.53615 13.5341 9.35645 13.9865 9.35645C14.4388 9.35645 14.8727 9.53615 15.1926 9.85602C15.5124 10.1759 15.6921 10.6097 15.6921 11.0621ZM20.8091 12.7677C21.2614 12.7677 21.6953 12.588 22.0151 12.2682C22.335 11.9483 22.5147 11.5145 22.5147 11.0621C22.5147 10.6097 22.335 10.1759 22.0151 9.85602C21.6953 9.53615 21.2614 9.35645 20.8091 9.35645C20.3567 9.35645 19.9229 9.53615 19.603 9.85602C19.2831 10.1759 19.1034 10.6097 19.1034 11.0621C19.1034 11.5145 19.2831 11.9483 19.603 12.2682C19.9229 12.588 20.3567 12.7677 20.8091 12.7677V12.7677Z" fill="#3E3E3E"/>
<path d="M3.69272 25.2487L3.72683 25.2418C6.84817 24.6227 8.75508 23.8057 9.64201 23.3571C10.9478 23.7054 12.2937 23.8809 13.6452 23.879C21.1807 23.879 27.2903 18.5335 27.2903 11.9395C27.2903 5.34549 21.1807 0 13.6452 0C6.10962 0 0 5.34549 0 11.9395C0 14.9415 1.26729 17.6875 3.36012 19.7855C3.2137 21.1331 2.91384 22.4596 2.46636 23.7392L2.46125 23.7579C2.33408 24.1244 2.19528 24.4868 2.04507 24.8444C1.91032 25.1617 2.17129 25.5165 2.51071 25.4619C2.90584 25.3972 3.2999 25.3261 3.69272 25.2487V25.2487ZM5.05724 19.9475C5.08113 19.6978 5.04965 19.4459 4.96503 19.2097C4.88042 18.9736 4.74476 18.759 4.56772 18.5813C2.75973 16.7665 1.70565 14.4434 1.70565 11.9395C1.70565 6.4951 6.8294 1.70565 13.6452 1.70565C20.4609 1.70565 25.5847 6.4951 25.5847 11.9395C25.5847 17.3856 20.4609 22.1734 13.6452 22.1734C12.4429 22.1751 11.2455 22.0192 10.0838 21.7095C9.67779 21.6007 9.24594 21.6456 8.87106 21.8357C8.21098 22.17 6.75606 22.8079 4.37839 23.3588C4.7101 22.2453 4.93736 21.1032 5.05724 19.9475V19.9475Z" fill="#3E3E3E"/>
</svg>
