<svg width="39" height="39" viewBox="0 0 39 39" fill="none" xmlns="http://www.w3.org/2000/svg">
<path d="M38.4838 10.7362L38.4836 10.7363L34.8519 14.366L26.6333 6.14717L30.265 2.51533C30.265 2.51532 30.265 2.51531 30.265 2.5153C30.435 2.34543 30.6654 2.25 30.9057 2.25C31.146 2.25 31.3764 2.34543 31.5463 2.5153C31.5464 2.51531 31.5464 2.51532 31.5464 2.51533L38.4835 9.45272L38.4838 9.45294C38.5682 9.53712 38.6351 9.63713 38.6808 9.74722C38.7265 9.85732 38.75 9.97536 38.75 10.0946C38.75 10.2138 38.7265 10.3318 38.6808 10.4419C38.6351 10.552 38.5682 10.652 38.4838 10.7362ZM15.6239 33.2193L15.6239 33.2198C15.6242 33.3326 15.638 33.4448 15.6649 33.554L15.3602 33.8605C15.36 33.8606 15.3599 33.8608 15.3597 33.861C15.2728 33.9471 15.1694 34.0148 15.0557 34.0599L15.055 34.0601L3.49301 38.6851L3.49295 38.6851C3.32827 38.751 3.14787 38.7672 2.9741 38.7315C2.80034 38.6959 2.64085 38.61 2.51542 38.4846C2.38999 38.3591 2.30413 38.1996 2.26849 38.0259C2.23284 37.8521 2.24898 37.6717 2.3149 37.507L2.31492 37.5069L6.93972 25.9446L6.93999 25.9439C6.98509 25.8302 7.05275 25.7267 7.13889 25.6399C7.13905 25.6397 7.1392 25.6396 7.13936 25.6394L7.4458 25.3347C7.55501 25.3616 7.66725 25.3754 7.78014 25.3756H7.78055H8.68675V26.2819C8.68675 26.6548 8.8349 27.0125 9.09861 27.2762C9.36233 27.5399 9.72 27.6881 10.0929 27.6881H10.9991V28.5943C10.9991 28.9673 11.1473 29.325 11.411 29.5887C11.6747 29.8524 12.0324 30.0006 12.4053 30.0006H13.3115V30.9068C13.3115 31.2798 13.4597 31.6374 13.7234 31.9012C13.9871 32.1649 14.3448 32.313 14.7177 32.313H15.6239V33.2193ZM24.6449 8.13565L32.8634 16.3544L18.4312 30.787C18.4031 30.4579 18.2598 30.1478 18.0245 29.9124C17.7608 29.6487 17.4031 29.5006 17.0301 29.5006H16.1239V28.5943C16.1239 28.2214 15.9758 27.8637 15.7121 27.6C15.4484 27.3362 15.0907 27.1881 14.7177 27.1881H13.8115V26.2819C13.8115 25.9089 13.6634 25.5512 13.3997 25.2875C13.136 25.0238 12.7783 24.8756 12.4053 24.8756H11.4991V23.9694C11.4991 23.5964 11.351 23.2387 11.0873 22.975C10.8519 22.7397 10.5418 22.5964 10.2127 22.5683L24.6449 8.13565Z" fill="#BFFFD6" stroke="#3E3E3E" stroke-width="0.5"/>
<path d="M29.7231 0.33853C29.5063 0.121769 29.2123 0 28.9057 0C28.5991 0 28.3051 0.121769 28.0883 0.33853L24.2797 4.14717L32.8518 12.7195L36.6603 8.91317C36.768 8.80577 36.8534 8.67818 36.9117 8.53771C36.97 8.39723 37 8.24664 37 8.09456C37 7.94247 36.97 7.79188 36.9117 7.65141C36.8534 7.51094 36.768 7.38335 36.6603 7.27594L29.7231 0.33853ZM31.2169 14.3544L22.6449 5.78209L7.61428 20.8131H8.09295C8.39959 20.8131 8.69367 20.935 8.9105 21.1518C9.12733 21.3686 9.24915 21.6627 9.24915 21.9694V23.1256H10.4053C10.712 23.1256 11.0061 23.2474 11.2229 23.4643C11.4397 23.6811 11.5615 23.9752 11.5615 24.2819V25.4381H12.7177C13.0244 25.4381 13.3185 25.5599 13.5353 25.7767C13.7521 25.9936 13.8739 26.2877 13.8739 26.5943V27.7506H15.0301C15.3368 27.7506 15.6309 27.8724 15.8477 28.0892C16.0645 28.3061 16.1863 28.6001 16.1863 28.9068V29.3855L31.2169 14.3544ZM13.9479 31.624C13.8993 31.4946 13.8742 31.3575 13.8739 31.2193V30.063H12.7177C12.4111 30.063 12.117 29.9412 11.9002 29.7244C11.6834 29.5075 11.5615 29.2135 11.5615 28.9068V27.7506H10.4053C10.0987 27.7506 9.80462 27.6287 9.58779 27.4119C9.37096 27.1951 9.24915 26.901 9.24915 26.5943V25.4381H8.09295C7.7863 25.4381 7.49222 25.3163 7.27539 25.0994C7.05856 24.8826 6.93675 24.5885 6.93675 24.2819V23.1256H5.78055C5.64232 23.1254 5.50525 23.1003 5.37588 23.0516L4.96196 23.4632C4.85177 23.5742 4.76524 23.7064 4.7076 23.8517L0.0827979 35.4141C-0.00130557 35.6242 -0.021894 35.8544 0.023585 36.0761C0.069064 36.2978 0.17861 36.5013 0.338643 36.6613C0.498676 36.8214 0.702158 36.9309 0.923863 36.9764C1.14557 37.0219 1.37574 37.0013 1.58586 36.9172L13.1479 32.2923C13.2932 32.2346 13.4254 32.1481 13.5363 32.0379L13.9479 31.624Z" fill="#3E3E3E"/>
</svg>
