<svg width="39" height="39" viewBox="0 0 39 39" fill="none" xmlns="http://www.w3.org/2000/svg">
<path d="M38.4838 10.7362L38.4836 10.7363L34.8519 14.366L26.6333 6.14717L30.265 2.51533C30.265 2.51532 30.265 2.51531 30.265 2.5153C30.435 2.34543 30.6654 2.25 30.9057 2.25C31.146 2.25 31.3764 2.34543 31.5463 2.5153C31.5464 2.51531 31.5464 2.51532 31.5464 2.51533L38.4835 9.45272L38.4838 9.45294C38.5682 9.53712 38.6351 9.63713 38.6808 9.74722C38.7265 9.85732 38.75 9.97536 38.75 10.0946C38.75 10.2138 38.7265 10.3318 38.6808 10.4419C38.6351 10.552 38.5682 10.652 38.4838 10.7362ZM15.6239 33.2193L15.6239 33.2198C15.6242 33.3326 15.638 33.4448 15.6649 33.554L15.3602 33.8605C15.36 33.8606 15.3599 33.8608 15.3597 33.861C15.2728 33.9471 15.1694 34.0148 15.0557 34.0599L15.055 34.0601L3.49301 38.6851L3.49295 38.6851C3.32827 38.751 3.14787 38.7672 2.9741 38.7315C2.80034 38.6959 2.64085 38.61 2.51542 38.4846C2.38999 38.3591 2.30413 38.1996 2.26849 38.0259C2.23284 37.8521 2.24898 37.6717 2.3149 37.507L2.31492 37.5069L6.93972 25.9446L6.93999 25.9439C6.98509 25.8302 7.05275 25.7267 7.13889 25.6399C7.13905 25.6397 7.1392 25.6396 7.13936 25.6394L7.4458 25.3347C7.55501 25.3616 7.66725 25.3754 7.78014 25.3756H7.78055H8.68675V26.2819C8.68675 26.6548 8.8349 27.0125 9.09861 27.2762C9.36233 27.5399 9.72 27.6881 10.0929 27.6881H10.9991V28.5943C10.9991 28.9673 11.1473 29.325 11.411 29.5887C11.6747 29.8524 12.0324 30.0006 12.4053 30.0006H13.3115V30.9068C13.3115 31.2798 13.4597 31.6374 13.7234 31.9012C13.9871 32.1649 14.3448 32.313 14.7177 32.313H15.6239V33.2193ZM24.6449 8.13565L32.8634 16.3544L18.4312 30.787C18.4031 30.4579 18.2598 30.1478 18.0245 29.9124C17.7608 29.6487 17.4031 29.5006 17.0301 29.5006H16.1239V28.5943C16.1239 28.2214 15.9758 27.8637 15.7121 27.6C15.4484 27.3362 15.0907 27.1881 14.7177 27.1881H13.8115V26.2819C13.8115 25.9089 13.6634 25.5512 13.3997 25.2875C13.136 25.0238 12.7783 24.8756 12.4053 24.8756H11.4991V23.9694C11.4991 23.5964 11.351 23.2387 11.0873 22.975C10.8519 22.7397 10.5418 22.5964 10.2127 22.5683L24.6449 8.13565Z" fill="#CDB4FF" stroke="#CDB4FF" stroke-width="0.5"/>
<path d="M32.8519 12.0125L24.9868 4.14717L28.4418 0.692131C28.4418 0.692114 28.4418 0.692096 28.4418 0.692078C28.5649 0.569088 28.7317 0.5 28.9057 0.5C29.0797 0.5 29.2465 0.569088 29.3696 0.692078C29.3696 0.692096 29.3696 0.692114 29.3696 0.692131L36.3068 7.62949L36.3072 7.62994C36.3683 7.69089 36.4168 7.76331 36.4499 7.84304C36.483 7.92277 36.5 8.00824 36.5 8.09456C36.5 8.18088 36.483 8.26635 36.4499 8.34608C36.4168 8.42581 36.3683 8.49822 36.3072 8.55918L36.3069 8.55952L32.8519 12.0125ZM13.3739 31.2193L13.3739 31.2203C13.3741 31.3048 13.3808 31.389 13.3937 31.4722L13.184 31.6831C13.1837 31.6834 13.1833 31.6838 13.183 31.6841C13.1202 31.7462 13.0456 31.7949 12.9635 31.8275L12.9622 31.828L1.40016 36.453L1.40005 36.453C1.2808 36.5007 1.15016 36.5124 1.02434 36.4866C0.898516 36.4608 0.78303 36.3986 0.692202 36.3078C0.601374 36.217 0.539199 36.1015 0.513386 35.9756C0.487574 35.8498 0.499259 35.7192 0.546994 35.5999L0.547038 35.5998L5.17184 24.0374L5.17239 24.036C5.20495 23.9539 5.25377 23.8792 5.3159 23.8164C5.31618 23.8161 5.31647 23.8158 5.31675 23.8155L5.52762 23.6059C5.61086 23.6189 5.69514 23.6255 5.77973 23.6256H5.78055H6.43675V24.2819C6.43675 24.7211 6.61124 25.1424 6.92183 25.453C7.23243 25.7636 7.65369 25.9381 8.09295 25.9381H8.74915V26.5943C8.74915 27.0336 8.92363 27.4549 9.23423 27.7655C9.54483 28.0761 9.96609 28.2506 10.4053 28.2506H11.0615V28.9068C11.0615 29.3461 11.236 29.7673 11.5466 30.0779C11.8572 30.3885 12.2785 30.563 12.7177 30.563H13.3739L13.3739 31.2193ZM22.6449 6.4892L30.5098 14.3544L16.5693 28.2953C16.4868 28.0876 16.3624 27.8968 16.2013 27.7357C15.8907 27.4251 15.4694 27.2506 15.0301 27.2506H14.3739V26.5943C14.3739 26.1551 14.1995 25.7338 13.8889 25.4232C13.5783 25.1126 13.157 24.9381 12.7177 24.9381H12.0615V24.2819C12.0615 23.8426 11.8871 23.4213 11.5765 23.1107C11.2659 22.8001 10.8446 22.6256 10.4053 22.6256H9.74915V21.9694C9.74915 21.5301 9.57466 21.1089 9.26406 20.7983C9.10296 20.6371 8.91209 20.5127 8.70437 20.4301L22.6449 6.4892Z" fill="white" stroke="#CDB4FF"/>
</svg>
