<svg width="25" height="24" viewBox="0 0 25 24" fill="none" xmlns="http://www.w3.org/2000/svg">
<path fill-rule="evenodd" clip-rule="evenodd" d="M18.25 2.53666C17.9545 2.53666 17.6619 2.59613 17.389 2.71168C17.116 2.82723 16.8679 2.99659 16.659 3.21009C16.4501 3.4236 16.2843 3.67706 16.1713 3.95602C16.0582 4.23497 16 4.53395 16 4.83589C16 5.13783 16.0582 5.43682 16.1713 5.71577C16.2843 5.99473 16.4501 6.24819 16.659 6.4617C16.8679 6.6752 17.116 6.84456 17.389 6.96011C17.6619 7.07565 17.9545 7.13513 18.25 7.13513C18.8467 7.13513 19.419 6.89289 19.841 6.4617C20.2629 6.03051 20.5 5.44569 20.5 4.83589C20.5 4.2261 20.2629 3.64128 19.841 3.21009C19.419 2.7789 18.8467 2.53666 18.25 2.53666ZM14.575 4.06948C14.7471 3.20322 15.207 2.4244 15.8768 1.865C16.5466 1.30559 17.385 1 18.25 1C19.115 1 19.9534 1.30559 20.6232 1.865C21.293 2.4244 21.7529 3.20322 21.925 4.06948H25V5.6023H21.925C21.7529 6.46857 21.293 7.24739 20.6232 7.80679C19.9534 8.3662 19.115 8.67179 18.25 8.67179C17.385 8.67179 16.5466 8.3662 15.8768 7.80679C15.207 7.24739 14.7471 6.46857 14.575 5.6023H1V4.06948H14.575ZM7.75 10.2008C7.15326 10.2008 6.58097 10.443 6.15901 10.8742C5.73705 11.3054 5.5 11.8902 5.5 12.5C5.5 13.1098 5.73705 13.6946 6.15901 14.1258C6.58097 14.557 7.15326 14.7992 7.75 14.7992C8.34674 14.7992 8.91903 14.557 9.34099 14.1258C9.76295 13.6946 10 13.1098 10 12.5C10 11.8902 9.76295 11.3054 9.34099 10.8742C8.91903 10.443 8.34674 10.2008 7.75 10.2008ZM4.075 11.7336C4.24714 10.8673 4.70705 10.0885 5.37681 9.5291C6.04657 8.9697 6.88498 8.66411 7.75 8.66411C8.61502 8.66411 9.45343 8.9697 10.1232 9.5291C10.793 10.0885 11.2529 10.8673 11.425 11.7336H25V13.2664H11.425C11.2529 14.1327 10.793 14.9115 10.1232 15.4709C9.45343 16.0303 8.61502 16.3359 7.75 16.3359C6.88498 16.3359 6.04657 16.0303 5.37681 15.4709C4.70705 14.9115 4.24714 14.1327 4.075 13.2664H1V11.7336H4.075ZM18.25 17.8649C17.6533 17.8649 17.081 18.1071 16.659 18.5383C16.2371 18.9695 16 19.5543 16 20.1641C16 20.7739 16.2371 21.3587 16.659 21.7899C17.081 22.2211 17.6533 22.4633 18.25 22.4633C18.8467 22.4633 19.419 22.2211 19.841 21.7899C20.2629 21.3587 20.5 20.7739 20.5 20.1641C20.5 19.5543 20.2629 18.9695 19.841 18.5383C19.419 18.1071 18.8467 17.8649 18.25 17.8649ZM14.575 19.3977C14.7471 18.5314 15.207 17.7526 15.8768 17.1932C16.5466 16.6338 17.385 16.3282 18.25 16.3282C19.115 16.3282 19.9534 16.6338 20.6232 17.1932C21.293 17.7526 21.7529 18.5314 21.925 19.3977H25V20.9305H21.925C21.7529 21.7968 21.293 22.5756 20.6232 23.135C19.9534 23.6944 19.115 24 18.25 24C17.385 24 16.5466 23.6944 15.8768 23.135C15.207 22.5756 14.7471 21.7968 14.575 20.9305H1V19.3977H14.575Z" fill="#BFFFD6"/>
<path fill-rule="evenodd" clip-rule="evenodd" d="M17.25 1.53666C16.9545 1.53666 16.6619 1.59613 16.389 1.71168C16.116 1.82723 15.8679 1.99659 15.659 2.21009C15.4501 2.4236 15.2843 2.67706 15.1713 2.95602C15.0582 3.23497 15 3.53395 15 3.83589C15 4.13783 15.0582 4.43682 15.1713 4.71577C15.2843 4.99473 15.4501 5.24819 15.659 5.4617C15.8679 5.6752 16.116 5.84456 16.389 5.96011C16.6619 6.07565 16.9545 6.13513 17.25 6.13513C17.8467 6.13513 18.419 5.89289 18.841 5.4617C19.2629 5.03051 19.5 4.44569 19.5 3.83589C19.5 3.2261 19.2629 2.64128 18.841 2.21009C18.419 1.7789 17.8467 1.53666 17.25 1.53666ZM13.575 3.06948C13.7471 2.20322 14.207 1.4244 14.8768 0.864998C15.5466 0.305592 16.385 0 17.25 0C18.115 0 18.9534 0.305592 19.6232 0.864998C20.293 1.4244 20.7529 2.20322 20.925 3.06948H24V4.6023H20.925C20.7529 5.46857 20.293 6.24739 19.6232 6.80679C18.9534 7.3662 18.115 7.67179 17.25 7.67179C16.385 7.67179 15.5466 7.3662 14.8768 6.80679C14.207 6.24739 13.7471 5.46857 13.575 4.6023H0V3.06948H13.575ZM6.75 9.20077C6.15326 9.20077 5.58097 9.44301 5.15901 9.8742C4.73705 10.3054 4.5 10.8902 4.5 11.5C4.5 12.1098 4.73705 12.6946 5.15901 13.1258C5.58097 13.557 6.15326 13.7992 6.75 13.7992C7.34674 13.7992 7.91903 13.557 8.34099 13.1258C8.76295 12.6946 9 12.1098 9 11.5C9 10.8902 8.76295 10.3054 8.34099 9.8742C7.91903 9.44301 7.34674 9.20077 6.75 9.20077ZM3.075 10.7336C3.24714 9.86732 3.70705 9.08851 4.37681 8.5291C5.04657 7.9697 5.88498 7.66411 6.75 7.66411C7.61502 7.66411 8.45343 7.9697 9.12319 8.5291C9.79295 9.08851 10.2529 9.86732 10.425 10.7336H24V12.2664H10.425C10.2529 13.1327 9.79295 13.9115 9.12319 14.4709C8.45343 15.0303 7.61502 15.3359 6.75 15.3359C5.88498 15.3359 5.04657 15.0303 4.37681 14.4709C3.70705 13.9115 3.24714 13.1327 3.075 12.2664H0V10.7336H3.075ZM17.25 16.8649C16.6533 16.8649 16.081 17.1071 15.659 17.5383C15.2371 17.9695 15 18.5543 15 19.1641C15 19.7739 15.2371 20.3587 15.659 20.7899C16.081 21.2211 16.6533 21.4633 17.25 21.4633C17.8467 21.4633 18.419 21.2211 18.841 20.7899C19.2629 20.3587 19.5 19.7739 19.5 19.1641C19.5 18.5543 19.2629 17.9695 18.841 17.5383C18.419 17.1071 17.8467 16.8649 17.25 16.8649ZM13.575 18.3977C13.7471 17.5314 14.207 16.7526 14.8768 16.1932C15.5466 15.6338 16.385 15.3282 17.25 15.3282C18.115 15.3282 18.9534 15.6338 19.6232 16.1932C20.293 16.7526 20.7529 17.5314 20.925 18.3977H24V19.9305H20.925C20.7529 20.7968 20.293 21.5756 19.6232 22.135C18.9534 22.6944 18.115 23 17.25 23C16.385 23 15.5466 22.6944 14.8768 22.135C14.207 21.5756 13.7471 20.7968 13.575 19.9305H0V18.3977H13.575Z" fill="#3E3E3E"/>
</svg>
