<svg width="27" height="25" viewBox="0 0 27 25" fill="none" xmlns="http://www.w3.org/2000/svg">
<path d="M13.9577 20.4907L5.89793 24.7119L7.43647 15.7717L0.915283 9.43902L9.92688 8.13478L13.9577 0L17.9848 8.13386L27 9.4381L20.4788 15.7717L22.0174 24.7119L13.9577 20.4907Z" fill="#3E3E3E"/>
<path d="M13.0888 20.4021L13.0424 20.3778L12.996 20.4021L5.11552 24.5294L6.61974 15.7886L6.62868 15.7367L6.59085 15.6999L0.215478 9.50887L9.02592 8.23375L9.07788 8.22623L9.1012 8.17918L13.0423 0.225305L16.9799 8.17823L17.0032 8.22531L17.0552 8.23283L25.8693 9.50797L19.4939 15.6999L19.4561 15.7367L19.465 15.7886L20.9692 24.5294L13.0888 20.4021Z" fill="#CDB4FF" stroke="#3E3E3E" stroke-width="0.2"/>
</svg>
