<svg width="47" height="44" viewBox="0 0 47 44" fill="none" xmlns="http://www.w3.org/2000/svg">
<path d="M24.7687 36.7372L24.7223 36.7129L24.6759 36.7372L11.157 43.8175L13.7375 28.8223L13.7465 28.7703L13.7087 28.7336L2.77114 18.1123L17.886 15.9247L17.938 15.9172L17.9613 15.8702L24.7223 2.2253L31.4772 15.8686L31.5005 15.9157L31.5525 15.9232L46.6735 18.1108L35.736 28.7336L35.6982 28.7703L35.7071 28.8223L38.2877 43.8175L24.7687 36.7372Z" fill="#CDB4FF" stroke="#FFFFFF" stroke-width="0.2"/>
<path d="M22.2131 34.7372L22.1667 34.7129L22.1203 34.7372L8.60132 41.8175L11.1819 26.8223L11.1908 26.7703L11.153 26.7336L0.215478 16.1123L15.3303 13.9247L15.3823 13.9172L15.4056 13.8702L22.1666 0.225304L28.9215 13.8686L28.9448 13.9157L28.9968 13.9232L44.1179 16.1108L33.1803 26.7336L33.1425 26.7703L33.1514 26.8223L35.732 41.8175L22.2131 34.7372Z" fill="#FFFFFF" stroke="#FFFFFF" stroke-width="0.2"/>
</svg>