<svg width="25" height="25" viewBox="0 0 25 25" fill="none" xmlns="http://www.w3.org/2000/svg">
<path d="M13 17.5C11.8065 17.5 10.6619 17.0259 9.81802 16.182C8.97411 15.3381 8.5 14.1935 8.5 13C8.5 11.8065 8.97411 10.6619 9.81802 9.81802C10.6619 8.97411 11.8065 8.5 13 8.5C14.1935 8.5 15.3381 8.97411 16.182 9.81802C17.0259 10.6619 17.5 11.8065 17.5 13C17.5 14.1935 17.0259 15.3381 16.182 16.182C15.3381 17.0259 14.1935 17.5 13 17.5ZM13 19C14.5913 19 16.1174 18.3679 17.2426 17.2426C18.3679 16.1174 19 14.5913 19 13C19 11.4087 18.3679 9.88258 17.2426 8.75736C16.1174 7.63214 14.5913 7 13 7C11.4087 7 9.88258 7.63214 8.75736 8.75736C7.63214 9.88258 7 11.4087 7 13C7 14.5913 7.63214 16.1174 8.75736 17.2426C9.88258 18.3679 11.4087 19 13 19ZM13 1C13.1989 1 13.3897 1.07902 13.5303 1.21967C13.671 1.36032 13.75 1.55109 13.75 1.75V4.75C13.75 4.94891 13.671 5.13968 13.5303 5.28033C13.3897 5.42098 13.1989 5.5 13 5.5C12.8011 5.5 12.6103 5.42098 12.4697 5.28033C12.329 5.13968 12.25 4.94891 12.25 4.75V1.75C12.25 1.55109 12.329 1.36032 12.4697 1.21967C12.6103 1.07902 12.8011 1 13 1ZM13 20.5C13.1989 20.5 13.3897 20.579 13.5303 20.7197C13.671 20.8603 13.75 21.0511 13.75 21.25V24.25C13.75 24.4489 13.671 24.6397 13.5303 24.7803C13.3897 24.921 13.1989 25 13 25C12.8011 25 12.6103 24.921 12.4697 24.7803C12.329 24.6397 12.25 24.4489 12.25 24.25V21.25C12.25 21.0511 12.329 20.8603 12.4697 20.7197C12.6103 20.579 12.8011 20.5 13 20.5ZM25 13C25 13.1989 24.921 13.3897 24.7803 13.5303C24.6397 13.671 24.4489 13.75 24.25 13.75H21.25C21.0511 13.75 20.8603 13.671 20.7197 13.5303C20.579 13.3897 20.5 13.1989 20.5 13C20.5 12.8011 20.579 12.6103 20.7197 12.4697C20.8603 12.329 21.0511 12.25 21.25 12.25H24.25C24.4489 12.25 24.6397 12.329 24.7803 12.4697C24.921 12.6103 25 12.8011 25 13ZM5.5 13C5.5 13.1989 5.42098 13.3897 5.28033 13.5303C5.13968 13.671 4.94891 13.75 4.75 13.75H1.75C1.55109 13.75 1.36032 13.671 1.21967 13.5303C1.07902 13.3897 1 13.1989 1 13C1 12.8011 1.07902 12.6103 1.21967 12.4697C1.36032 12.329 1.55109 12.25 1.75 12.25H4.75C4.94891 12.25 5.13968 12.329 5.28033 12.4697C5.42098 12.6103 5.5 12.8011 5.5 13ZM21.4855 4.5145C21.6261 4.65515 21.7051 4.84588 21.7051 5.04475C21.7051 5.24362 21.6261 5.43435 21.4855 5.575L19.3645 7.6975C19.2948 7.76713 19.212 7.82235 19.1209 7.86C19.0299 7.89765 18.9323 7.91699 18.8337 7.91692C18.6347 7.91678 18.4439 7.83758 18.3032 7.69675C18.2336 7.62702 18.1784 7.54425 18.1408 7.45318C18.1031 7.36211 18.0838 7.26452 18.0838 7.16597C18.084 6.96695 18.1632 6.77613 18.304 6.6355L20.425 4.5145C20.5656 4.3739 20.7564 4.29491 20.9553 4.29491C21.1541 4.29491 21.3449 4.3739 21.4855 4.5145ZM7.696 18.304C7.8366 18.4446 7.91559 18.6354 7.91559 18.8342C7.91559 19.0331 7.8366 19.2239 7.696 19.3645L5.575 21.4855C5.43355 21.6221 5.2441 21.6977 5.04745 21.696C4.8508 21.6943 4.66269 21.6154 4.52364 21.4764C4.38458 21.3373 4.3057 21.1492 4.30399 20.9526C4.30229 20.7559 4.37788 20.5665 4.5145 20.425L6.6355 18.304C6.77615 18.1634 6.96688 18.0844 7.16575 18.0844C7.36462 18.0844 7.55535 18.1634 7.696 18.304ZM21.4855 21.4855C21.3449 21.6261 21.1541 21.7051 20.9553 21.7051C20.7564 21.7051 20.5656 21.6261 20.425 21.4855L18.304 19.3645C18.1674 19.223 18.0918 19.0336 18.0935 18.8369C18.0952 18.6403 18.1741 18.4522 18.3131 18.3131C18.4522 18.1741 18.6403 18.0952 18.8369 18.0935C19.0336 18.0918 19.223 18.1674 19.3645 18.304L21.4855 20.425C21.6261 20.5656 21.7051 20.7564 21.7051 20.9553C21.7051 21.1541 21.6261 21.3449 21.4855 21.4855ZM7.696 7.6975C7.55535 7.8381 7.36462 7.91709 7.16575 7.91709C6.96688 7.91709 6.77615 7.8381 6.6355 7.6975L4.5145 5.575C4.44287 5.50581 4.38573 5.42306 4.34642 5.33155C4.30712 5.24005 4.28643 5.14164 4.28556 5.04205C4.2847 4.94247 4.30367 4.84371 4.34138 4.75153C4.37909 4.65936 4.43478 4.57562 4.5052 4.5052C4.57562 4.43478 4.65936 4.37909 4.75153 4.34138C4.84371 4.30367 4.94247 4.2847 5.04205 4.28556C5.14164 4.28643 5.24005 4.30712 5.33155 4.34642C5.42306 4.38573 5.50581 4.44287 5.575 4.5145L7.696 6.6355C7.76585 6.70517 7.82126 6.78793 7.85907 6.87905C7.89688 6.97017 7.91634 7.06785 7.91634 7.1665C7.91634 7.26515 7.89688 7.36283 7.85907 7.45395C7.82126 7.54507 7.76585 7.62783 7.696 7.6975Z" fill="#BFFFD6"/>
<path d="M12 16.5C10.8065 16.5 9.66193 16.0259 8.81802 15.182C7.97411 14.3381 7.5 13.1935 7.5 12C7.5 10.8065 7.97411 9.66193 8.81802 8.81802C9.66193 7.97411 10.8065 7.5 12 7.5C13.1935 7.5 14.3381 7.97411 15.182 8.81802C16.0259 9.66193 16.5 10.8065 16.5 12C16.5 13.1935 16.0259 14.3381 15.182 15.182C14.3381 16.0259 13.1935 16.5 12 16.5ZM12 18C13.5913 18 15.1174 17.3679 16.2426 16.2426C17.3679 15.1174 18 13.5913 18 12C18 10.4087 17.3679 8.88258 16.2426 7.75736C15.1174 6.63214 13.5913 6 12 6C10.4087 6 8.88258 6.63214 7.75736 7.75736C6.63214 8.88258 6 10.4087 6 12C6 13.5913 6.63214 15.1174 7.75736 16.2426C8.88258 17.3679 10.4087 18 12 18ZM12 0C12.1989 0 12.3897 0.0790176 12.5303 0.21967C12.671 0.360322 12.75 0.551088 12.75 0.75V3.75C12.75 3.94891 12.671 4.13968 12.5303 4.28033C12.3897 4.42098 12.1989 4.5 12 4.5C11.8011 4.5 11.6103 4.42098 11.4697 4.28033C11.329 4.13968 11.25 3.94891 11.25 3.75V0.75C11.25 0.551088 11.329 0.360322 11.4697 0.21967C11.6103 0.0790176 11.8011 0 12 0ZM12 19.5C12.1989 19.5 12.3897 19.579 12.5303 19.7197C12.671 19.8603 12.75 20.0511 12.75 20.25V23.25C12.75 23.4489 12.671 23.6397 12.5303 23.7803C12.3897 23.921 12.1989 24 12 24C11.8011 24 11.6103 23.921 11.4697 23.7803C11.329 23.6397 11.25 23.4489 11.25 23.25V20.25C11.25 20.0511 11.329 19.8603 11.4697 19.7197C11.6103 19.579 11.8011 19.5 12 19.5ZM24 12C24 12.1989 23.921 12.3897 23.7803 12.5303C23.6397 12.671 23.4489 12.75 23.25 12.75H20.25C20.0511 12.75 19.8603 12.671 19.7197 12.5303C19.579 12.3897 19.5 12.1989 19.5 12C19.5 11.8011 19.579 11.6103 19.7197 11.4697C19.8603 11.329 20.0511 11.25 20.25 11.25H23.25C23.4489 11.25 23.6397 11.329 23.7803 11.4697C23.921 11.6103 24 11.8011 24 12ZM4.5 12C4.5 12.1989 4.42098 12.3897 4.28033 12.5303C4.13968 12.671 3.94891 12.75 3.75 12.75H0.75C0.551088 12.75 0.360322 12.671 0.21967 12.5303C0.0790176 12.3897 0 12.1989 0 12C0 11.8011 0.0790176 11.6103 0.21967 11.4697C0.360322 11.329 0.551088 11.25 0.75 11.25H3.75C3.94891 11.25 4.13968 11.329 4.28033 11.4697C4.42098 11.6103 4.5 11.8011 4.5 12ZM20.4855 3.5145C20.6261 3.65515 20.7051 3.84588 20.7051 4.04475C20.7051 4.24362 20.6261 4.43435 20.4855 4.575L18.3645 6.6975C18.2948 6.76713 18.212 6.82235 18.1209 6.86C18.0299 6.89765 17.9323 6.91699 17.8337 6.91692C17.6347 6.91678 17.4439 6.83758 17.3032 6.69675C17.2336 6.62702 17.1784 6.54425 17.1408 6.45318C17.1031 6.36211 17.0838 6.26452 17.0838 6.16597C17.084 5.96695 17.1632 5.77613 17.304 5.6355L19.425 3.5145C19.5656 3.3739 19.7564 3.29491 19.9553 3.29491C20.1541 3.29491 20.3449 3.3739 20.4855 3.5145ZM6.696 17.304C6.8366 17.4446 6.91559 17.6354 6.91559 17.8342C6.91559 18.0331 6.8366 18.2239 6.696 18.3645L4.575 20.4855C4.43355 20.6221 4.2441 20.6977 4.04745 20.696C3.8508 20.6943 3.66269 20.6154 3.52364 20.4764C3.38458 20.3373 3.3057 20.1492 3.30399 19.9526C3.30229 19.7559 3.37788 19.5665 3.5145 19.425L5.6355 17.304C5.77615 17.1634 5.96688 17.0844 6.16575 17.0844C6.36462 17.0844 6.55535 17.1634 6.696 17.304ZM20.4855 20.4855C20.3449 20.6261 20.1541 20.7051 19.9553 20.7051C19.7564 20.7051 19.5656 20.6261 19.425 20.4855L17.304 18.3645C17.1674 18.223 17.0918 18.0336 17.0935 17.8369C17.0952 17.6403 17.1741 17.4522 17.3131 17.3131C17.4522 17.1741 17.6403 17.0952 17.8369 17.0935C18.0336 17.0918 18.223 17.1674 18.3645 17.304L20.4855 19.425C20.6261 19.5656 20.7051 19.7564 20.7051 19.9553C20.7051 20.1541 20.6261 20.3449 20.4855 20.4855ZM6.696 6.6975C6.55535 6.8381 6.36462 6.91709 6.16575 6.91709C5.96688 6.91709 5.77615 6.8381 5.6355 6.6975L3.5145 4.575C3.44287 4.50581 3.38573 4.42306 3.34642 4.33155C3.30712 4.24005 3.28643 4.14164 3.28556 4.04205C3.2847 3.94247 3.30367 3.84371 3.34138 3.75153C3.37909 3.65936 3.43478 3.57562 3.5052 3.5052C3.57562 3.43478 3.65936 3.37909 3.75153 3.34138C3.84371 3.30367 3.94247 3.2847 4.04205 3.28556C4.14164 3.28643 4.24005 3.30712 4.33155 3.34642C4.42306 3.38573 4.50581 3.44287 4.575 3.5145L6.696 5.6355C6.76585 5.70517 6.82126 5.78793 6.85907 5.87905C6.89688 5.97017 6.91634 6.06785 6.91634 6.1665C6.91634 6.26515 6.89688 6.36283 6.85907 6.45395C6.82126 6.54507 6.76585 6.62783 6.696 6.6975Z" fill="#3E3E3E"/>
</svg>
