<svg width="20" height="20" viewBox="0 0 63 51" fill="none" xmlns="http://www.w3.org/2000/svg">
<path d="M21.8473 50.5H21.8475C44.1545 50.5 56.3762 31.9308 56.3762 15.8199C56.3762 15.2904 56.3762 14.7659 56.3542 14.2506L56.3428 13.9828L56.5596 13.825C58.4652 12.4385 60.1605 10.7858 61.5954 8.91915C59.781 9.57921 57.8959 10.0305 55.9764 10.2632L55.6588 9.33821C57.7416 8.08689 59.3841 6.23033 60.3795 4.0284C58.2508 5.13971 55.9717 5.93849 53.6118 6.39811L53.34 6.45106L53.1509 6.24866C51.3704 4.34284 49.0147 3.08066 46.4489 2.65709C43.8831 2.23353 41.2498 2.6721 38.9568 3.90513C36.6638 5.13818 34.8388 7.09706 33.765 9.4788C32.6912 11.8606 32.4287 14.532 33.0184 17.079L33.1678 17.7245L32.5061 17.6912C27.541 17.4409 22.6838 16.1446 18.2495 13.8862C14.0375 11.741 10.2965 8.77349 7.24386 5.15985C6.01464 7.63161 5.67644 10.465 6.30208 13.1717C6.98265 16.1161 8.7525 18.6891 11.2514 20.3687L12.701 21.343L10.9554 21.2834C9.20951 21.2238 7.49668 20.8102 5.91878 20.071C6.05942 22.5769 6.98592 24.9801 8.57359 26.9311C10.2993 29.0517 12.7002 30.508 15.3702 31.0544L15.4034 32.0261C14.3034 32.3307 13.1671 32.4827 12.026 32.4777C12.0254 32.4777 12.0247 32.4777 12.024 32.4777L12.0262 31.9777C11.4423 31.9795 10.8592 31.9388 10.2815 31.8561L21.8473 50.5ZM21.8473 50.5C15.9664 50.5018 10.1942 48.9945 5.07225 46.1364L21.8473 50.5ZM14.4037 37.5075C12.6452 36.1953 11.2885 34.4208 10.4783 32.3865L4.12285 45.5867C4.72244 45.6301 5.32359 45.6505 5.925 45.648L5.92418 46.148C5.92467 46.148 5.92516 46.148 5.92565 46.148C11.5858 46.1569 17.084 44.2509 21.5348 40.7374L22.6336 39.87L21.2339 39.845C18.7706 39.8011 16.3823 38.9839 14.4037 37.5075Z" fill="#F6F6F6" stroke="#F6F6F6"/>
<path d="M18.8473 48.5H18.8475C41.1545 48.5 53.3762 29.9308 53.3762 13.8199C53.3762 13.2904 53.3762 12.7659 53.3542 12.2506L53.3428 11.9828L53.5596 11.825C55.4652 10.4385 57.1605 8.78582 58.5954 6.91915C56.781 7.57921 54.8959 8.03054 52.9764 8.26318L52.6588 7.33821C54.7416 6.08689 56.3841 4.23033 57.3795 2.0284C55.2508 3.13971 52.9717 3.93849 50.6118 4.39811L50.34 4.45106L50.1509 4.24866C48.3704 2.34284 46.0147 1.08066 43.4489 0.65709C40.8831 0.233526 38.2498 0.672103 35.9568 1.90513C33.6638 3.13818 31.8388 5.09706 30.765 7.4788C29.6912 9.86058 29.4287 12.532 30.0184 15.079L30.1678 15.7245L29.5061 15.6912C24.541 15.4409 19.6838 14.1446 15.2495 11.8862C11.0375 9.74104 7.29649 6.77349 4.24386 3.15985C3.01464 5.63161 2.67644 8.46499 3.30208 11.1717C3.98265 14.1161 5.7525 16.6891 8.25142 18.3687L9.70097 19.343L7.95544 19.2834C6.20951 19.2238 4.49668 18.8102 2.91878 18.071C3.05942 20.5769 3.98592 22.9801 5.57359 24.9311C7.29933 27.0517 9.70025 28.508 12.3702 29.0544L12.4034 30.0261C11.3034 30.3307 10.1671 30.4827 9.02604 30.4777C9.02536 30.4777 9.02468 30.4777 9.024 30.4777L9.02625 29.9777C8.44228 29.9795 7.85919 29.9388 7.28154 29.8561L18.8473 48.5ZM18.8473 48.5C12.9664 48.5018 7.19418 46.9945 2.07225 44.1364L18.8473 48.5ZM11.4037 35.5075C9.64521 34.1953 8.28846 32.4208 7.47829 30.3865L1.12285 43.5867C1.72244 43.6301 2.32359 43.6505 2.925 43.648L2.92418 44.148C2.92467 44.148 2.92516 44.148 2.92565 44.148C8.58583 44.1569 14.084 42.2509 18.5348 38.7374L19.6336 37.87L18.2339 37.845C15.7706 37.8011 13.3823 36.9839 11.4037 35.5075Z" fill="#CDB4FF" stroke="#F6F6F6"/>
</svg>
