<svg width="28" height="23" viewBox="0 0 28 23" fill="none" xmlns="http://www.w3.org/2000/svg">
<path d="M9.52316 22.2564C19.393 22.2564 24.7921 14.037 24.7921 6.92151C24.7921 6.6915 24.7921 6.45821 24.7823 6.2282C25.8335 5.4634 26.7407 4.51654 27.4614 3.43197C26.4795 3.86709 25.439 4.15387 24.3736 4.28299C25.4959 3.60881 26.3364 2.54803 26.7389 1.29783C25.6846 1.92562 24.5306 2.36633 23.3275 2.60065C22.5187 1.73488 21.4483 1.16133 20.2823 0.968846C19.1163 0.776363 17.9197 0.975687 16.8779 1.53595C15.836 2.0962 15.007 2.98613 14.5193 4.06787C14.0316 5.14962 13.9124 6.36281 14.1802 7.51953C12.0466 7.412 9.95931 6.85492 8.05371 5.88441C6.14812 4.9139 4.46678 3.55164 3.11874 1.88599C2.43439 3.07395 2.22554 4.47916 2.5346 5.81627C2.84366 7.15338 3.64746 8.32214 4.78278 9.08522C3.93203 9.05617 3.09998 8.82656 2.35374 8.41491V8.48885C2.35521 9.73332 2.78415 10.9391 3.56805 11.9024C4.35196 12.8657 5.44275 13.5274 6.65605 13.7757C6.19552 13.9032 5.71979 13.9668 5.24211 13.9647C4.90535 13.9657 4.56927 13.9343 4.23845 13.871C4.58137 14.9423 5.24909 15.8789 6.14809 16.5497C7.04708 17.2206 8.13233 17.592 9.25182 17.6119C7.35003 19.1132 5.00084 19.9275 2.58259 19.9235C2.15648 19.9253 1.73066 19.9006 1.30759 19.8496C3.76199 21.4223 6.6124 22.2573 9.52316 22.2564Z" fill="#F6F6F6"/>
<path d="M8.21558 21.3846C18.0854 21.3846 23.4845 13.1651 23.4845 6.04968C23.4845 5.81967 23.4845 5.58638 23.4747 5.35637C24.5259 4.59158 25.4331 3.64471 26.1538 2.56014C25.172 2.99527 24.1314 3.28205 23.0661 3.41117C24.1883 2.73698 25.0288 1.6762 25.4313 0.426001C24.377 1.0538 23.223 1.49451 22.0199 1.72883C21.2111 0.863054 20.1408 0.289504 18.9748 0.0970202C17.8088 -0.0954635 16.6121 0.103861 15.5703 0.66412C14.5284 1.22438 13.6994 2.1143 13.2117 3.19605C12.724 4.27779 12.6048 5.49098 12.8726 6.6477C10.739 6.54018 8.65172 5.98309 6.74613 5.01258C4.84054 4.04208 3.1592 2.67982 1.81115 1.01416C1.12681 2.20212 0.917957 3.60733 1.22702 4.94444C1.53608 6.28155 2.33988 7.45031 3.47519 8.2134C2.62444 8.18434 1.79239 7.95474 1.04615 7.54309V7.61702C1.04762 8.86149 1.47656 10.0673 2.26047 11.0306C3.04437 11.9939 4.13516 12.6556 5.34846 12.9039C4.88793 13.0314 4.4122 13.095 3.93452 13.0928C3.59776 13.0939 3.26168 13.0625 2.93087 12.9992C3.27379 14.0705 3.9415 15.0071 4.8405 15.6779C5.73949 16.3487 6.82474 16.7201 7.94423 16.7401C6.04245 18.2414 3.69325 19.0556 1.275 19.0517C0.84889 19.0535 0.423076 19.0288 0 18.9777C2.4544 20.5504 5.30481 21.3855 8.21558 21.3846Z" fill="#3E3E3E"/>
</svg>
