<svg width="20" height="20" viewBox="0 0 63 51" fill="none" xmlns="http://www.w3.org/2000/svg">
<path d="M21.8475 51C44.49 51 56.8762 32.1435 56.8762 15.8199C56.8762 15.2922 56.8763 14.757 56.8538 14.2293C59.2652 12.4748 61.3465 10.3026 63 7.81446C60.7474 8.81269 58.3604 9.47059 55.9163 9.76681C58.4907 8.22015 60.419 5.7866 61.3425 2.91849C58.9237 4.35872 56.2763 5.36976 53.5163 5.90733C51.6607 3.92114 49.2053 2.60535 46.5303 2.16377C43.8554 1.72219 41.1102 2.17946 38.72 3.46476C36.3298 4.75006 34.428 6.79165 33.3092 9.2733C32.1903 11.7549 31.9169 14.5382 32.5312 17.1918C27.6365 16.9451 22.8481 15.6671 18.4764 13.4406C14.1048 11.2142 10.2476 8.08901 7.155 4.2678C5.58503 6.99312 5.1059 10.2168 5.81492 13.2843C6.52394 16.3518 8.36796 19.0331 10.9725 20.7837C9.02077 20.717 7.11195 20.1903 5.4 19.2459V19.4155C5.40337 22.2705 6.3874 25.0367 8.18578 27.2467C9.98415 29.4566 12.4866 30.9747 15.27 31.5443C14.2135 31.8368 13.1221 31.9826 12.0262 31.9777C11.2537 31.9801 10.4827 31.9081 9.72375 31.7629C10.5104 34.2205 12.0423 36.3693 14.1047 37.9082C16.1671 39.4471 18.6568 40.2992 21.225 40.345C16.8621 43.7891 11.4728 45.657 5.925 45.648C4.94745 45.6521 3.97059 45.5955 3 45.4784C8.63068 49.0863 15.1699 51.0021 21.8475 51Z" fill="#CDB4FF"/>
<path d="M18.8475 49C41.49 49 53.8762 30.1435 53.8762 13.8199C53.8762 13.2922 53.8763 12.757 53.8538 12.2293C56.2652 10.4748 58.3465 8.30259 60 5.81446C57.7474 6.81269 55.3604 7.47059 52.9163 7.76681C55.4907 6.22015 57.419 3.7866 58.3425 0.918487C55.9237 2.35872 53.2763 3.36976 50.5163 3.90733C48.6607 1.92114 46.2053 0.605347 43.5303 0.163767C40.8554 -0.277814 38.1102 0.179461 35.72 1.46476C33.3298 2.75006 31.428 4.79165 30.3092 7.2733C29.1903 9.75495 28.9169 12.5382 29.5312 15.1918C24.6365 14.9451 19.8481 13.6671 15.4764 11.4406C11.1048 9.21419 7.24757 6.08901 4.155 2.2678C2.58503 4.99312 2.1059 8.21684 2.81492 11.2843C3.52394 14.3518 5.36796 17.0331 7.9725 18.7837C6.02077 18.717 4.11195 18.1903 2.4 17.2459V17.4155C2.40337 20.2705 3.3874 23.0367 5.18578 25.2467C6.98415 27.4566 9.48655 28.9747 12.27 29.5443C11.2135 29.8368 10.1221 29.9826 9.02625 29.9777C8.25369 29.9801 7.48268 29.9081 6.72375 29.7629C7.51045 32.2205 9.04227 34.3693 11.1047 35.9082C13.1671 37.4471 15.6568 38.2992 18.225 38.345C13.8621 41.7891 8.47275 43.657 2.925 43.648C1.94745 43.6521 0.970587 43.5955 0 43.4784C5.63068 47.0863 12.1699 49.0021 18.8475 49Z" fill="#FFFFFF"/>
</svg>
