<svg width="20" height="20" viewBox="0 0 25 25" fill="none" xmlns="http://www.w3.org/2000/svg">
<path d="M8.82429 0.407862C8.96785 0.582307 9.0558 0.795795 9.07678 1.02074C9.09775 1.24569 9.05078 1.47176 8.94195 1.66974C8.09167 3.23086 7.64762 4.98075 7.65066 6.75841C7.65066 12.6722 12.4717 17.4608 18.4134 17.4608C19.1884 17.4608 19.9429 17.3799 20.668 17.2255C20.8902 17.1774 21.1217 17.1958 21.3336 17.2784C21.5455 17.3611 21.7283 17.5043 21.8592 17.6902C21.9975 17.8836 22.0679 18.1171 22.0597 18.3547C22.0515 18.5922 21.9649 18.8203 21.8136 19.0036C20.6601 20.4205 19.205 21.5622 17.5542 22.3453C15.9035 23.1285 14.0987 23.5333 12.2716 23.5304C5.49165 23.5304 0 18.0682 0 11.3382C0 6.27307 3.10909 1.92858 7.53594 0.0872457C7.75646 -0.00595082 8.00126 -0.025079 8.23358 0.0327346C8.46589 0.0905481 8.67318 0.222182 8.82429 0.407862ZM7.14473 1.92711C5.44253 2.84017 4.01952 4.19737 3.02692 5.85445C2.03433 7.51154 1.50925 9.40659 1.50748 11.3382C1.50748 17.2505 6.32996 22.0391 12.2716 22.0391C13.6945 22.0416 15.1037 21.7618 16.4177 21.2161C17.7317 20.6703 18.9244 19.8693 19.9267 18.8595C19.4311 18.9212 18.9266 18.9521 18.4134 18.9521C11.6334 18.9521 6.14318 13.4899 6.14318 6.75988C6.14318 5.04356 6.49909 3.40959 7.14473 1.92711Z" fill="#3E3E3E"/>
<path d="M15.875 4.62859C15.8961 4.56489 15.9367 4.50947 15.9911 4.47019C16.0455 4.43091 16.1109 4.40976 16.178 4.40976C16.245 4.40976 16.3104 4.43091 16.3648 4.47019C16.4192 4.50947 16.4598 4.56489 16.4809 4.62859L17.0501 6.33756C17.3045 7.09939 17.9016 7.6965 18.6635 7.95093L20.3724 8.5201C20.4361 8.54119 20.4915 8.58181 20.5308 8.6362C20.5701 8.69059 20.5913 8.75597 20.5913 8.82306C20.5913 8.89016 20.5701 8.95554 20.5308 9.00993C20.4915 9.06432 20.4361 9.10494 20.3724 9.12603L18.6635 9.6952C18.2877 9.82038 17.9463 10.0314 17.6663 10.3114C17.3862 10.5914 17.1753 10.9328 17.0501 11.3086L16.4809 13.0175C16.4598 13.0812 16.4192 13.1367 16.3648 13.1759C16.3104 13.2152 16.245 13.2364 16.178 13.2364C16.1109 13.2364 16.0455 13.2152 15.9911 13.1759C15.9367 13.1367 15.8961 13.0812 15.875 13.0175L15.3058 11.3086C15.1806 10.9328 14.9697 10.5914 14.6896 10.3114C14.4096 10.0314 14.0682 9.82038 13.6924 9.6952L11.9835 9.12603C11.9198 9.10494 11.8644 9.06432 11.8251 9.00993C11.7858 8.95554 11.7646 8.89016 11.7646 8.82306C11.7646 8.75597 11.7858 8.69059 11.8251 8.6362C11.8644 8.58181 11.9198 8.54119 11.9835 8.5201L13.6924 7.95093C14.0682 7.82575 14.4096 7.61478 14.6896 7.33474C14.9697 7.0547 15.1806 6.71329 15.3058 6.33756L15.875 4.62859ZM20.3886 0.144375C20.4031 0.102498 20.4303 0.0661859 20.4664 0.0404862C20.5026 0.0147864 20.5458 0.000976562 20.5901 0.000976562C20.6344 0.000976563 20.6776 0.0147864 20.7137 0.0404862C20.7499 0.0661859 20.7771 0.102498 20.7916 0.144375L21.171 1.28271C21.3402 1.79158 21.7387 2.19014 22.2476 2.35927L23.3859 2.73872C23.4278 2.75323 23.4641 2.78044 23.4898 2.81655C23.5155 2.85266 23.5293 2.89588 23.5293 2.9402C23.5293 2.98453 23.5155 3.02775 23.4898 3.06386C23.4641 3.09997 23.4278 3.12717 23.3859 3.14169L22.2476 3.52114C21.9968 3.60456 21.7689 3.7453 21.5821 3.93218C21.3952 4.11905 21.2545 4.34693 21.171 4.5977L20.7916 5.73603C20.7771 5.77791 20.7499 5.81422 20.7137 5.83992C20.6776 5.86562 20.6344 5.87943 20.5901 5.87943C20.5458 5.87943 20.5026 5.86562 20.4664 5.83992C20.4303 5.81422 20.4031 5.77791 20.3886 5.73603L20.0092 4.5977C19.9257 4.34693 19.785 4.11905 19.5981 3.93218C19.4112 3.7453 19.1834 3.60456 18.9326 3.52114L17.7943 3.14169C17.7524 3.12717 17.7161 3.09997 17.6904 3.06386C17.6647 3.02775 17.6509 2.98453 17.6509 2.9402C17.6509 2.89588 17.6647 2.85266 17.6904 2.81655C17.7161 2.78044 17.7524 2.75323 17.7943 2.73872L18.9326 2.35927C19.4415 2.19014 19.84 1.79158 20.0092 1.28271L20.3886 0.145846V0.144375Z" fill="#3E3E3E"/>
</svg>